<svg width="93" height="93" viewBox="0 0 93 93" fill="none" xmlns="http://www.w3.org/2000/svg">
<path d="M46.1287 74.0279C47.7325 74.0279 49.0889 73.4735 50.1978 72.3646C51.3067 71.2557 51.8596 69.9009 51.8565 68.3002C51.8565 66.6964 51.3036 65.3401 50.1978 64.2312C49.0919 63.1223 47.7356 62.5693 46.1287 62.5724C44.525 62.5724 43.1702 63.1268 42.0643 64.2357C40.9585 65.3446 40.404 66.6994 40.401 68.3002C40.401 69.9039 40.9554 71.2603 42.0643 72.3692C43.1732 73.4781 44.528 74.031 46.1287 74.0279ZM42.0047 56.3864H50.4819C50.4819 53.8662 50.769 51.8805 51.3433 50.4295C51.9176 48.9785 53.5397 46.9928 56.2096 44.4726C58.1953 42.487 59.7609 40.5961 60.9064 38.7998C62.052 37.0036 62.6247 34.8469 62.6247 32.3297C62.6247 28.053 61.0592 24.7691 57.928 22.478C54.7968 20.1868 51.0928 19.0413 46.8161 19.0413C42.463 19.0413 38.9316 20.1868 36.222 22.478C33.5124 24.7691 31.6214 27.5184 30.5492 30.726L38.1099 33.7044C38.4917 32.3297 39.3516 30.8405 40.6896 29.2367C42.0277 27.633 44.0698 26.8311 46.8161 26.8311C49.2599 26.8311 51.0928 27.5001 52.3147 28.8381C53.5367 30.1761 54.1476 31.6455 54.1476 33.2462C54.1476 34.7736 53.6894 36.2063 52.773 37.5443C51.8565 38.8823 50.711 40.1226 49.3363 41.2651C45.976 44.2435 43.914 46.4964 43.1503 48.0238C42.3866 49.5512 42.0047 52.3388 42.0047 56.3864ZM46.3579 92.3568C40.0191 92.3568 34.0622 91.1548 28.4872 88.7506C22.9122 86.3465 18.0626 83.0809 13.9386 78.9538C9.81464 74.8298 6.55057 69.9803 4.14644 64.4053C1.7423 58.8302 0.538699 52.8734 0.535645 46.5346C0.535645 40.1959 1.73924 34.239 4.14644 28.664C6.55363 23.0889 9.8177 18.2394 13.9386 14.1154C18.0626 9.9914 22.9122 6.72733 28.4872 4.32319C34.0622 1.91905 40.0191 0.715457 46.3579 0.712402C52.6966 0.712402 58.6535 1.916 64.2285 4.32319C69.8036 6.73039 74.6531 9.99446 78.7771 14.1154C82.9011 18.2394 86.1667 23.0889 88.5739 28.664C90.9811 34.239 92.1831 40.1959 92.1801 46.5346C92.1801 52.8734 90.9765 58.8302 88.5693 64.4053C86.1621 69.9803 82.898 74.8298 78.7771 78.9538C74.6531 83.0778 69.8036 86.3434 64.2285 88.7506C58.6535 91.1578 52.6966 92.3599 46.3579 92.3568ZM46.3579 83.1924C56.5915 83.1924 65.2595 79.6412 72.362 72.5387C79.4644 65.4363 83.0156 56.7682 83.0156 46.5346C83.0156 36.301 79.4644 27.633 72.362 20.5305C65.2595 13.4281 56.5915 9.87685 46.3579 9.87685C36.1242 9.87685 27.4562 13.4281 20.3538 20.5305C13.2513 27.633 9.70009 36.301 9.70009 46.5346C9.70009 56.7682 13.2513 65.4363 20.3538 72.5387C27.4562 79.6412 36.1242 83.1924 46.3579 83.1924Z" fill="white"/>
</svg>
