<svg width="121" height="121" viewBox="0 0 121 121" fill="none" xmlns="http://www.w3.org/2000/svg">
<path d="M35.2917 85.7083H70.5833V75.625H35.2917V85.7083ZM35.2917 65.5417H85.7083V55.4583H35.2917V65.5417ZM35.2917 45.375H85.7083V35.2917H35.2917V45.375ZM25.2083 105.875C22.4354 105.875 20.0625 104.889 18.0895 102.916C16.1165 100.943 15.1284 98.5679 15.125 95.7917V25.2083C15.125 22.4354 16.1132 20.0625 18.0895 18.0895C20.0658 16.1165 22.4388 15.1284 25.2083 15.125H95.7917C98.5646 15.125 100.939 16.1132 102.916 18.0895C104.892 20.0658 105.878 22.4388 105.875 25.2083V95.7917C105.875 98.5646 104.889 100.939 102.916 102.916C100.943 104.892 98.5679 105.878 95.7917 105.875H25.2083ZM25.2083 95.7917H95.7917V25.2083H25.2083V95.7917Z" fill="white"/>
</svg>
