<svg width="169" height="169" viewBox="0 0 169 169" fill="none" xmlns="http://www.w3.org/2000/svg">
<rect width="168.015" height="168.015" rx="84.0074" fill="#017649"/>
<g clip-path="url(#clip0_35_380)">
<path d="M80.8775 45.822C61.547 45.822 45.8223 60.8097 45.8223 79.2341C45.8223 97.6584 61.547 112.646 80.8775 112.646C86.7868 112.646 92.596 111.31 97.5037 108.732C97.8968 109.183 98.3327 109.598 98.8058 109.973L108.822 119.519C109.746 120.511 110.874 121.313 112.136 121.874C113.397 122.435 114.766 122.745 116.157 122.784C117.549 122.823 118.934 122.591 120.228 122.101C121.522 121.611 122.697 120.875 123.682 119.936C124.666 118.998 125.439 117.878 125.953 116.645C126.467 115.411 126.71 114.091 126.67 112.765C126.629 111.438 126.304 110.134 125.715 108.931C125.126 107.729 124.285 106.654 123.244 105.773L113.228 96.2265C112.741 95.7613 112.204 95.3454 111.626 94.9855C114.33 90.3078 116.033 84.8664 116.033 79.1386C116.033 60.7142 100.308 45.7266 80.9777 45.7266L80.8775 45.822ZM80.8775 55.3683C94.7994 55.3683 105.917 65.9647 105.917 79.2341C105.917 85.5346 103.513 91.3579 99.3066 95.6537L99.0061 95.9401C98.533 96.3148 98.0971 96.7302 97.704 97.1811C93.2971 101 87.2876 103.195 80.7774 103.195C66.8554 103.195 55.7379 92.5989 55.7379 79.3295C55.7379 66.0602 66.8554 55.4638 80.7774 55.4638L80.8775 55.3683Z" fill="white"/>
</g>
<defs>
<clipPath id="clip0_35_380">
<rect width="80.1263" height="76.3704" fill="white" transform="translate(45.8223 45.8223)"/>
</clipPath>
</defs>
</svg>
