<svg width="115" height="115" viewBox="0 0 115 115" fill="none" xmlns="http://www.w3.org/2000/svg">
<path d="M57.4996 31.4453C60.165 31.4453 62.7705 30.6549 64.9867 29.1741C67.2029 27.6933 68.9303 25.5885 69.9503 23.126C70.9703 20.6635 71.2372 17.9538 70.7172 15.3396C70.1972 12.7254 68.9137 10.3241 67.0289 8.43939C65.1442 6.55466 62.7429 5.27114 60.1287 4.75114C57.5145 4.23115 54.8048 4.49803 52.3423 5.51804C49.8798 6.53804 47.775 8.26537 46.2942 10.4816C44.8134 12.6978 44.023 15.3033 44.023 17.9688C44.023 21.543 45.4428 24.9708 47.9702 27.4981C50.4975 30.0255 53.9254 31.4453 57.4996 31.4453ZM57.4996 9.88282C59.0988 9.88282 60.6621 10.357 61.9919 11.2455C63.3216 12.134 64.358 13.3969 64.97 14.8744C65.582 16.3519 65.7421 17.9777 65.4301 19.5462C65.1181 21.1148 64.348 22.5555 63.2172 23.6864C62.0863 24.8172 60.6456 25.5873 59.077 25.8993C57.5085 26.2113 55.8827 26.0512 54.4052 25.4392C52.9277 24.8272 51.6648 23.7908 50.7763 22.4611C49.8879 21.1313 49.4136 19.568 49.4136 17.9688C49.4136 15.8242 50.2655 13.7675 51.7819 12.2511C53.2983 10.7347 55.355 9.88282 57.4996 9.88282ZM97.4261 60.8332L77.1169 37.8063C75.8524 36.372 74.2971 35.2233 72.5545 34.4363C70.8118 33.6494 68.9216 33.2424 67.0095 33.2422H47.9896C46.0778 33.2418 44.1879 33.6482 42.4452 34.4343C40.7026 35.2204 39.1471 36.3683 37.8822 37.8018L17.573 60.8332C16.8185 61.5806 16.2186 62.4694 15.8075 63.4486C15.3965 64.4279 15.1823 65.4786 15.1773 66.5406C15.1672 68.6855 16.0096 70.7465 17.5191 72.2703C19.0286 73.7941 21.0816 74.6559 23.2265 74.666C25.3714 74.6761 27.4324 73.8337 28.9562 72.3242L38.4392 64.719L30.2949 95.6477C29.4387 97.5933 29.3831 99.7979 30.1401 101.784C30.8972 103.771 32.406 105.379 34.3399 106.261C36.2739 107.143 38.4775 107.229 40.4739 106.498C42.4702 105.768 44.0986 104.281 45.0068 102.359L57.4996 80.8594L69.9923 102.381C70.9005 104.303 72.5289 105.79 74.5253 106.521C76.5216 107.251 78.7252 107.166 80.6592 106.284C82.5931 105.401 84.1019 103.793 84.859 101.807C85.616 99.8203 85.5604 97.6158 84.7042 95.6701L76.5599 64.7324L86.0429 72.3242C87.5759 73.7815 89.6189 74.5801 91.7338 74.5488C93.8487 74.5174 95.8671 73.6587 97.3563 72.1566C98.8454 70.6545 99.6867 68.6287 99.6998 66.5136C99.7128 64.3985 98.8966 62.3625 97.4261 60.8422V60.8332ZM93.5494 68.3891C93.299 68.6397 93.0018 68.8385 92.6746 68.9741C92.3474 69.1097 91.9966 69.1796 91.6424 69.1796C91.2882 69.1796 90.9375 69.1097 90.6103 68.9741C90.2831 68.8385 89.9858 68.6397 89.7355 68.3891C89.6677 68.3172 89.5941 68.2511 89.5154 68.1914L73.5636 55.3977C73.1215 55.0428 72.5787 54.8363 72.0125 54.8077C71.4463 54.779 70.8854 54.9297 70.4098 55.2381C69.9341 55.5466 69.5678 55.9973 69.363 56.5259C69.1582 57.0546 69.1254 57.6344 69.2691 58.1828L79.5427 97.2334C79.5881 97.3867 79.6436 97.5367 79.7089 97.6826C80.0109 98.3307 80.0431 99.0723 79.7984 99.7441C79.5537 100.416 79.0521 100.963 78.4039 101.265C77.7558 101.567 77.0143 101.599 76.3424 101.355C75.6706 101.11 75.1234 100.608 74.8214 99.9602C74.7889 99.8858 74.7514 99.8138 74.7091 99.7445L59.831 74.1211C59.5941 73.7127 59.254 73.3736 58.8448 73.1379C58.4356 72.9023 57.9717 72.7782 57.4996 72.7782C57.0274 72.7782 56.5635 72.9023 56.1543 73.1379C55.7451 73.3736 55.405 73.7127 55.1681 74.1211L40.29 99.749C40.2477 99.8183 40.2102 99.8903 40.1777 99.9646C39.8757 100.613 39.3285 101.114 38.6567 101.359C37.9848 101.604 37.2433 101.572 36.5952 101.27C35.947 100.968 35.4454 100.42 35.2007 99.7486C34.956 99.0768 34.9882 98.3352 35.2902 97.6871C35.3555 97.5412 35.411 97.3912 35.4564 97.2379L45.73 58.1873C45.8716 57.6409 45.838 57.0639 45.6341 56.5376C45.4302 56.0113 45.0662 55.5623 44.5935 55.2539C44.157 54.9665 43.6471 54.8106 43.1246 54.8047C42.5104 54.8041 41.9145 55.0133 41.4355 55.3977L25.4837 68.1914C25.4051 68.2511 25.3314 68.3172 25.2636 68.3891C24.7579 68.8948 24.0719 69.1789 23.3567 69.1789C22.6414 69.1789 21.9555 68.8948 21.4498 68.3891C20.944 67.8833 20.6599 67.1974 20.6599 66.4821C20.6599 65.7669 20.944 65.0809 21.4498 64.5752L21.5665 64.4539L41.9251 41.3686C42.6841 40.5085 43.6174 39.8198 44.663 39.3481C45.7086 38.8764 46.8425 38.6326 47.9896 38.6328H67.0095C68.1566 38.6326 69.2906 38.8764 70.3361 39.3481C71.3817 39.8198 72.315 40.5085 73.074 41.3686L93.437 64.4539L93.5538 64.5752C93.8042 64.8258 94.0026 65.1233 94.1379 65.4507C94.2731 65.778 94.3425 66.1289 94.3421 66.4831C94.3417 66.8373 94.2715 67.1879 94.1354 67.515C93.9994 67.842 93.8003 68.139 93.5494 68.3891Z" fill="white"/>
</svg>
