<svg width="1455" height="1217" viewBox="0 0 1455 1217" fill="none" xmlns="http://www.w3.org/2000/svg">
<path d="M4.21875 68.625C4.21875 56.875 7.1875 47.5938 13.125 40.7812C19.0625 33.9062 26.75 30.4688 36.1875 30.4688C42.25 30.4688 47.4062 32.125 51.6562 35.4375C55.9062 38.75 59.0625 42.7812 61.125 47.5312L51.9375 50.625C47.8125 43.3125 42.5 39.6562 36 39.6562C29.6875 39.6562 24.6562 42.3125 20.9062 47.625C17.1562 52.875 15.2812 59.875 15.2812 68.625C15.2812 77.5 17.1875 84.5312 21 89.7188C24.8125 94.9062 29.8125 97.5 36 97.5C40.0625 97.5 43.5938 96.3125 46.5938 93.9375C49.6562 91.5625 51.9062 88.6562 53.3438 85.2188L63 88.2188C62.0625 90.4688 60.875 92.5938 59.4375 94.5938C58 96.5312 56.2188 98.4688 54.0938 100.406C51.9688 102.344 49.3438 103.875 46.2188 105C43.1562 106.125 39.8125 106.688 36.1875 106.688C26.9375 106.688 19.2812 103.312 13.2188 96.5625C7.21875 89.8125 4.21875 80.5 4.21875 68.625ZM79.2188 90.5625C79.2188 92.6875 80.0625 94.4688 81.75 95.9062C83.5 97.3438 85.8438 98.0625 88.7812 98.0625C92.7812 98.0625 96.1875 96.7812 99 94.2188C101.812 91.5938 103.219 88.1875 103.219 84V78.2812C100.344 78.9688 96.5625 79.6875 91.875 80.4375C87.625 81.125 84.4375 82.2812 82.3125 83.9062C80.25 85.5312 79.2188 87.75 79.2188 90.5625ZM68.7188 91.4062C68.7188 81.5312 76.1875 75.4375 91.125 73.125C97.3125 72.1875 101.344 71.4062 103.219 70.7812V67.875C103.219 65.0625 102.188 62.8438 100.125 61.2188C98.125 59.5312 95.4062 58.6875 91.9688 58.6875C85.9062 58.6875 80.75 61.1562 76.5 66.0938L70.125 60.6562C72.8125 57.4688 76.0312 54.9688 79.7812 53.1562C83.5938 51.3438 87.5938 50.4375 91.7812 50.4375C106.281 50.4375 113.531 57.5625 113.531 71.8125V105H103.5V97.6875C102.438 100.125 100.438 102.25 97.5 104.062C94.5625 105.812 91.1562 106.688 87.2812 106.688C81.5312 106.688 77 105.281 73.6875 102.469C70.375 99.5938 68.7188 95.9062 68.7188 91.4062ZM126.469 105V52.125H136.5V59.5312H136.594C137.406 57.4062 139.156 55.375 141.844 53.4375C144.594 51.4375 147.969 50.4375 151.969 50.4375C157.094 50.4375 161.219 52.0312 164.344 55.2188C167.469 58.4062 169.031 63.6562 169.031 70.9688V105H158.719V72.375C158.719 63.625 155.688 59.25 149.625 59.25C146.062 59.25 143.031 60.7188 140.531 63.6562C138.094 66.5312 136.875 70.0312 136.875 74.1562V105H126.469ZM189.188 90.5625C189.188 92.6875 190.031 94.4688 191.719 95.9062C193.469 97.3438 195.812 98.0625 198.75 98.0625C202.75 98.0625 206.156 96.7812 208.969 94.2188C211.781 91.5938 213.188 88.1875 213.188 84V78.2812C210.312 78.9688 206.531 79.6875 201.844 80.4375C197.594 81.125 194.406 82.2812 192.281 83.9062C190.219 85.5312 189.188 87.75 189.188 90.5625ZM178.688 91.4062C178.688 81.5312 186.156 75.4375 201.094 73.125C207.281 72.1875 211.312 71.4062 213.188 70.7812V67.875C213.188 65.0625 212.156 62.8438 210.094 61.2188C208.094 59.5312 205.375 58.6875 201.938 58.6875C195.875 58.6875 190.719 61.1562 186.469 66.0938L180.094 60.6562C182.781 57.4688 186 54.9688 189.75 53.1562C193.562 51.3438 197.562 50.4375 201.75 50.4375C216.25 50.4375 223.5 57.5625 223.5 71.8125V105H213.469V97.6875C212.406 100.125 210.406 102.25 207.469 104.062C204.531 105.812 201.125 106.688 197.25 106.688C191.5 106.688 186.969 105.281 183.656 102.469C180.344 99.5938 178.688 95.9062 178.688 91.4062ZM237.094 42.9375V31.125H248.625V42.9375H237.094ZM237.844 105V52.125H248.062V105H237.844ZM258.844 94.125L266.344 89.8125C270.156 95.4375 275.062 98.25 281.062 98.25C284.25 98.25 286.812 97.625 288.75 96.375C290.688 95.0625 291.656 93.3438 291.656 91.2188C291.656 88.4688 289.594 86.2188 285.469 84.4688C284.156 83.8438 281.188 82.8125 276.562 81.375C274.375 80.6875 272.469 80 270.844 79.3125C269.281 78.5625 267.656 77.5938 265.969 76.4062C264.344 75.1562 263.094 73.625 262.219 71.8125C261.344 70 260.906 67.9375 260.906 65.625C260.906 61.0625 262.812 57.4062 266.625 54.6562C270.438 51.8438 275.281 50.4375 281.156 50.4375C285.469 50.4375 289.5 51.5938 293.25 53.9062C297 56.2188 299.781 59.0625 301.594 62.4375L294.75 66.6562C291.188 61.4688 286.656 58.875 281.156 58.875C277.969 58.875 275.531 59.5312 273.844 60.8438C272.156 62.0938 271.312 63.75 271.312 65.8125C271.312 66.9375 271.625 67.9688 272.25 68.9062C272.875 69.8438 273.5 70.5938 274.125 71.1562C274.812 71.7188 275.938 72.3438 277.5 73.0312C279.125 73.6562 280.312 74.0938 281.062 74.3438C281.875 74.5938 283.25 75.0312 285.188 75.6562C296.562 79.1562 302.25 84.375 302.25 91.3125C302.25 95.625 300.406 99.2812 296.719 102.281C293.031 105.219 287.875 106.688 281.25 106.688C276.312 106.688 271.875 105.562 267.938 103.312C264 101.062 260.969 98 258.844 94.125ZM332.25 78.2812C332.25 69.9062 334.531 63.1875 339.094 58.125C343.719 53 349.562 50.4375 356.625 50.4375C363.688 50.4375 369.406 52.9688 373.781 58.0312C378.219 63.0938 380.438 69.625 380.438 77.625C380.438 77.75 380.344 79.2188 380.156 82.0312H342.656C342.656 86.4688 343.938 90.2812 346.5 93.4688C349.062 96.6562 352.625 98.25 357.188 98.25C360.25 98.25 362.969 97.5 365.344 96C367.719 94.5 369.531 92.5625 370.781 90.1875L379.406 93.0938C377.719 97.0312 374.969 100.281 371.156 102.844C367.406 105.406 362.719 106.688 357.094 106.688C349.719 106.688 343.719 104.125 339.094 99C334.531 93.8125 332.25 86.9062 332.25 78.2812ZM342.844 74.625H369.938C369.938 70.1875 368.75 66.4375 366.375 63.375C364 60.3125 360.75 58.7812 356.625 58.7812C352.438 58.7812 349.125 60.3438 346.688 63.4688C344.25 66.5938 342.969 70.3125 342.844 74.625ZM390.656 105V52.125H400.688V58.875C401.625 56.875 403.312 54.9688 405.75 53.1562C408.188 51.3438 411.156 50.4375 414.656 50.4375C420.656 50.4375 425 53.8438 427.688 60.6562C428.062 59.8438 428.594 58.9688 429.281 58.0312C430.031 57.0312 431.031 55.9375 432.281 54.75C433.594 53.5 435.25 52.4688 437.25 51.6562C439.312 50.8438 441.562 50.4375 444 50.4375C454.688 50.4375 460.031 57.2812 460.031 70.9688V105H449.531V71.4375C449.531 67.375 448.969 64.3438 447.844 62.3438C446.781 60.2812 444.75 59.25 441.75 59.25C438.438 59.25 435.719 60.625 433.594 63.375C431.469 66.125 430.406 69.5625 430.406 73.6875V105H420.188V71.1562C420.188 63.2188 417.531 59.25 412.219 59.25C408.719 59.25 405.969 60.5625 403.969 63.1875C402.031 65.75 401.062 69.1562 401.062 73.4062V105H390.656ZM495.75 86.0625V52.125H506.156V84.4688C506.156 93.4688 509.344 97.9688 515.719 97.9688C519.594 97.9688 522.562 96.4062 524.625 93.2812C526.75 90.0938 527.812 86.3125 527.812 81.9375V52.125H538.031V105H528.188V98.0625H528C527.125 100.125 525.469 102.094 523.031 103.969C520.594 105.781 517.375 106.688 513.375 106.688C508.562 106.688 504.406 105.062 500.906 101.812C497.469 98.5625 495.75 93.3125 495.75 86.0625ZM547.594 94.125L555.094 89.8125C558.906 95.4375 563.812 98.25 569.812 98.25C573 98.25 575.562 97.625 577.5 96.375C579.438 95.0625 580.406 93.3438 580.406 91.2188C580.406 88.4688 578.344 86.2188 574.219 84.4688C572.906 83.8438 569.938 82.8125 565.312 81.375C563.125 80.6875 561.219 80 559.594 79.3125C558.031 78.5625 556.406 77.5938 554.719 76.4062C553.094 75.1562 551.844 73.625 550.969 71.8125C550.094 70 549.656 67.9375 549.656 65.625C549.656 61.0625 551.562 57.4062 555.375 54.6562C559.188 51.8438 564.031 50.4375 569.906 50.4375C574.219 50.4375 578.25 51.5938 582 53.9062C585.75 56.2188 588.531 59.0625 590.344 62.4375L583.5 66.6562C579.938 61.4688 575.406 58.875 569.906 58.875C566.719 58.875 564.281 59.5312 562.594 60.8438C560.906 62.0938 560.062 63.75 560.062 65.8125C560.062 66.9375 560.375 67.9688 561 68.9062C561.625 69.8438 562.25 70.5938 562.875 71.1562C563.562 71.7188 564.688 72.3438 566.25 73.0312C567.875 73.6562 569.062 74.0938 569.812 74.3438C570.625 74.5938 572 75.0312 573.938 75.6562C585.312 79.1562 591 84.375 591 91.3125C591 95.625 589.156 99.2812 585.469 102.281C581.781 105.219 576.625 106.688 570 106.688C565.062 106.688 560.625 105.562 556.688 103.312C552.75 101.062 549.719 98 547.594 94.125ZM608.062 78.5625C608.062 84.875 609.406 89.6875 612.094 93C614.781 96.3125 618 97.9688 621.75 97.9688C625.438 97.9688 628.625 96.3125 631.312 93C634.062 89.6875 635.438 84.875 635.438 78.5625C635.438 72.1875 634.062 67.375 631.312 64.125C628.625 60.875 625.438 59.25 621.75 59.25C618.062 59.25 614.844 60.875 612.094 64.125C609.406 67.375 608.062 72.1875 608.062 78.5625ZM597.562 78.5625C597.562 73.4375 598.375 68.8125 600 64.6875C601.688 60.5625 604.406 57.1562 608.156 54.4688C611.906 51.7812 616.438 50.4375 621.75 50.4375C629.562 50.4375 635.531 53.1562 639.656 58.5938C643.844 63.9688 645.938 70.625 645.938 78.5625C645.938 81.8125 645.531 85 644.719 88.125C643.906 91.1875 642.594 94.1562 640.781 97.0312C639.031 99.9062 636.5 102.25 633.188 104.062C629.938 105.812 626.125 106.688 621.75 106.688C617.375 106.688 613.562 105.844 610.312 104.156C607.062 102.406 604.531 100.125 602.719 97.3125C600.969 94.4375 599.656 91.4375 598.781 88.3125C597.969 85.1875 597.562 81.9375 597.562 78.5625Z" fill="#494953"/>
<mask id="path-2-inside-1_159_256" fill="white">
<path d="M693.5 1217C553.863 1217 419.946 1162.95 321.208 1066.75C222.47 970.54 167 840.056 167 704C167 567.944 222.47 437.46 321.208 341.254C419.946 245.048 553.864 191 693.5 191V704V1217Z"/>
</mask>
<path d="M693.5 1217C553.863 1217 419.946 1162.95 321.208 1066.75C222.47 970.54 167 840.056 167 704C167 567.944 222.47 437.46 321.208 341.254C419.946 245.048 553.864 191 693.5 191V704V1217Z" fill="#00FF9E" stroke="black" stroke-width="4" mask="url(#path-2-inside-1_159_256)"/>
<mask id="path-3-inside-2_159_256" fill="white">
<path d="M1220 704C1220 636.632 1206.38 569.923 1179.92 507.683C1153.46 445.443 1114.68 388.891 1065.79 341.254C1016.9 293.618 958.861 255.83 894.983 230.05C831.105 204.269 762.641 191 693.5 191V704H1220Z"/>
</mask>
<path d="M1220 704C1220 636.632 1206.38 569.923 1179.92 507.683C1153.46 445.443 1114.68 388.891 1065.79 341.254C1016.9 293.618 958.861 255.83 894.983 230.05C831.105 204.269 762.641 191 693.5 191V704H1220Z" fill="#B8F900" stroke="black" stroke-width="4" mask="url(#path-3-inside-2_159_256)"/>
<mask id="path-4-inside-3_159_256" fill="white">
<path d="M1220 704C1220 771.368 1206.38 838.077 1179.92 900.317C1153.46 962.557 1114.68 1019.11 1065.79 1066.75C1016.9 1114.38 958.861 1152.17 894.983 1177.95C831.105 1203.73 762.641 1217 693.5 1217V704H1220Z"/>
</mask>
<path d="M1220 704C1220 771.368 1206.38 838.077 1179.92 900.317C1153.46 962.557 1114.68 1019.11 1065.79 1066.75C1016.9 1114.38 958.861 1152.17 894.983 1177.95C831.105 1203.73 762.641 1217 693.5 1217V704H1220Z" fill="#017649" stroke="black" stroke-width="4" mask="url(#path-4-inside-3_159_256)"/>
<rect x="894" width="561" height="136" rx="18" fill="#017649"/>
<path d="M975.957 68.4065H994.403L988.986 52.3029C988.694 51.4245 988.108 49.6678 987.23 47.0327C986.4 44.3487 985.79 42.3724 985.4 41.1036H984.961C984.375 43.0068 983.204 46.7399 981.447 52.3029L975.957 68.4065ZM959.707 90L980.495 33.125H989.938L1010.73 90H1001.72L996.672 75.1408H973.761L968.711 90H959.707ZM1015.7 90V48.7162H1023.54V54.4989H1023.61C1024.24 52.8397 1025.61 51.2538 1027.71 49.741C1029.86 48.1794 1032.49 47.3986 1035.61 47.3986C1039.62 47.3986 1042.84 48.643 1045.28 51.1318C1047.72 53.6205 1048.94 57.7196 1048.94 63.4291V90H1040.88V64.527C1040.88 57.6952 1038.52 54.2793 1033.78 54.2793C1031 54.2793 1028.64 55.4261 1026.68 57.7196C1024.78 59.9643 1023.83 62.6971 1023.83 65.9178V90H1015.7ZM1064.67 78.7275C1064.67 80.3866 1065.33 81.7774 1066.65 82.8998C1068.02 84.0221 1069.85 84.5833 1072.14 84.5833C1075.26 84.5833 1077.92 83.583 1080.12 81.5822C1082.31 79.5327 1083.41 76.8731 1083.41 73.6036V69.1385C1081.17 69.6753 1078.22 70.2365 1074.56 70.8221C1071.24 71.3589 1068.75 72.2616 1067.09 73.5304C1065.48 74.7992 1064.67 76.5315 1064.67 78.7275ZM1056.48 79.3863C1056.48 71.6761 1062.31 66.9182 1073.97 65.1126C1078.8 64.3806 1081.95 63.7706 1083.41 63.2827V61.0135C1083.41 58.8176 1082.61 57.0852 1081 55.8164C1079.44 54.4989 1077.31 53.8401 1074.63 53.8401C1069.89 53.8401 1065.87 55.7676 1062.55 59.6227L1057.57 55.3773C1059.67 52.8885 1062.18 50.9366 1065.11 49.5214C1068.09 48.1062 1071.21 47.3986 1074.48 47.3986C1085.8 47.3986 1091.46 52.9617 1091.46 64.0878V90H1083.63V84.2905C1082.8 86.1937 1081.24 87.8529 1078.95 89.268C1076.65 90.6344 1073.99 91.3176 1070.97 91.3176C1066.48 91.3176 1062.94 90.2196 1060.35 88.0236C1057.77 85.7789 1056.48 82.8998 1056.48 79.3863ZM1067.67 41.7624L1076.02 28.2939H1085.97L1074.56 41.7624H1067.67ZM1102.37 90V31.1486H1110.42V90H1102.37ZM1122.35 41.5428V32.3198H1131.36V41.5428H1122.35ZM1122.94 90V48.7162H1130.92V90H1122.94ZM1139.34 81.509L1145.19 78.1419C1148.17 82.5338 1152 84.7297 1156.68 84.7297C1159.17 84.7297 1161.17 84.2417 1162.69 83.2658C1164.2 82.241 1164.95 80.899 1164.95 79.2399C1164.95 77.0927 1163.34 75.336 1160.12 73.9696C1159.1 73.4816 1156.78 72.6764 1153.17 71.5541C1151.46 71.0173 1149.97 70.4805 1148.7 69.9437C1147.48 69.3581 1146.22 68.6017 1144.9 67.6745C1143.63 66.6986 1142.65 65.503 1141.97 64.0878C1141.29 62.6727 1140.95 61.0623 1140.95 59.2568C1140.95 55.6944 1142.43 52.8397 1145.41 50.6926C1148.39 48.4966 1152.17 47.3986 1156.76 47.3986C1160.12 47.3986 1163.27 48.3014 1166.2 50.107C1169.13 51.9125 1171.3 54.1329 1172.71 56.768L1167.37 60.0619C1164.59 56.0116 1161.05 53.9865 1156.76 53.9865C1154.27 53.9865 1152.36 54.4989 1151.05 55.5236C1149.73 56.4996 1149.07 57.7928 1149.07 59.4032C1149.07 60.2815 1149.31 61.0867 1149.8 61.8187C1150.29 62.5507 1150.78 63.1363 1151.27 63.5755C1151.8 64.0146 1152.68 64.5026 1153.9 65.0394C1155.17 65.5274 1156.1 65.869 1156.68 66.0642C1157.32 66.2594 1158.39 66.601 1159.9 67.089C1168.79 69.8217 1173.23 73.8964 1173.23 79.3131C1173.23 82.6802 1171.79 85.5349 1168.91 87.8773C1166.03 90.1708 1162 91.3176 1156.83 91.3176C1152.97 91.3176 1149.51 90.4392 1146.44 88.6824C1143.36 86.9257 1140.99 84.5345 1139.34 81.509ZM1178.35 69.1385C1178.35 62.5995 1180.13 57.3536 1183.69 53.4009C1187.3 49.3994 1191.87 47.3986 1197.38 47.3986C1202.9 47.3986 1207.36 49.375 1210.78 53.3277C1214.24 57.2804 1215.97 62.3799 1215.97 68.6261C1215.97 68.7237 1215.9 69.8705 1215.75 72.0664H1186.48C1186.48 75.5312 1187.48 78.5079 1189.48 80.9966C1191.48 83.4854 1194.26 84.7297 1197.82 84.7297C1200.21 84.7297 1202.33 84.1441 1204.19 82.973C1206.04 81.8018 1207.46 80.289 1208.43 78.4347L1215.17 80.7038C1213.85 83.7782 1211.7 86.3157 1208.73 88.3164C1205.8 90.3172 1202.14 91.3176 1197.75 91.3176C1191.99 91.3176 1187.3 89.3168 1183.69 85.3153C1180.13 81.265 1178.35 75.8727 1178.35 69.1385ZM1186.62 66.2838H1207.78C1207.78 62.8191 1206.85 59.8911 1204.99 57.5C1203.14 55.1089 1200.6 53.9133 1197.38 53.9133C1194.11 53.9133 1191.53 55.1333 1189.62 57.5732C1187.72 60.0131 1186.72 62.9167 1186.62 66.2838Z" fill="white"/>
</svg>
