<svg width="1487" height="516" viewBox="0 0 1487 516" fill="none" xmlns="http://www.w3.org/2000/svg">
<path d="M8.8125 89V16.1562H19.5V89H8.8125ZM31.875 62.4688C31.875 53.7812 33.9688 46.9375 38.1562 41.9375C42.4062 36.9375 47.7812 34.4375 54.2812 34.4375C57.5938 34.4375 60.5 35.3125 63 37.0625C65.5 38.8125 67.3438 40.8125 68.5312 43.0625V13.625H78.8438V89H68.8125V81.3125C67.625 83.9375 65.7188 86.1562 63.0938 87.9688C60.5312 89.7812 57.5938 90.6875 54.2812 90.6875C51.5312 90.6875 48.875 90.1562 46.3125 89.0938C43.8125 88.0312 41.4375 86.4375 39.1875 84.3125C37 82.1875 35.2188 79.25 33.8438 75.5C32.5312 71.6875 31.875 67.3438 31.875 62.4688ZM42.375 62.4688C42.375 68.5312 43.5938 73.3125 46.0312 76.8125C48.5312 80.25 51.75 81.9688 55.6875 81.9688C59.4375 81.9688 62.5312 80.2188 64.9688 76.7188C67.4688 73.2188 68.7188 68.4688 68.7188 62.4688C68.7188 56.6562 67.5 52 65.0625 48.5C62.625 45 59.5 43.25 55.6875 43.25C51.5625 43.25 48.3125 45 45.9375 48.5C43.5625 52 42.375 56.6562 42.375 62.4688ZM100.125 74.5625C100.125 76.6875 100.969 78.4688 102.656 79.9062C104.406 81.3438 106.75 82.0625 109.688 82.0625C113.688 82.0625 117.094 80.7812 119.906 78.2188C122.719 75.5938 124.125 72.1875 124.125 68V62.2812C121.25 62.9688 117.469 63.6875 112.781 64.4375C108.531 65.125 105.344 66.2812 103.219 67.9062C101.156 69.5312 100.125 71.75 100.125 74.5625ZM89.625 75.4062C89.625 65.5312 97.0938 59.4375 112.031 57.125C118.219 56.1875 122.25 55.4062 124.125 54.7812V51.875C124.125 49.0625 123.094 46.8438 121.031 45.2188C119.031 43.5312 116.312 42.6875 112.875 42.6875C106.812 42.6875 101.656 45.1562 97.4062 50.0938L91.0312 44.6562C93.7188 41.4688 96.9375 38.9688 100.688 37.1562C104.5 35.3438 108.5 34.4375 112.688 34.4375C127.188 34.4375 134.438 41.5625 134.438 55.8125V89H124.406V81.6875C123.344 84.125 121.344 86.25 118.406 88.0625C115.469 89.8125 112.062 90.6875 108.188 90.6875C102.438 90.6875 97.9062 89.2812 94.5938 86.4688C91.2812 83.5938 89.625 79.9062 89.625 75.4062ZM144.188 62.4688C144.188 53.7812 146.281 46.9375 150.469 41.9375C154.719 36.9375 160.094 34.4375 166.594 34.4375C169.906 34.4375 172.812 35.3125 175.312 37.0625C177.812 38.8125 179.656 40.8125 180.844 43.0625V13.625H191.156V89H181.125V81.3125C179.938 83.9375 178.031 86.1562 175.406 87.9688C172.844 89.7812 169.906 90.6875 166.594 90.6875C163.844 90.6875 161.188 90.1562 158.625 89.0938C156.125 88.0312 153.75 86.4375 151.5 84.3125C149.312 82.1875 147.531 79.25 146.156 75.5C144.844 71.6875 144.188 67.3438 144.188 62.4688ZM154.688 62.4688C154.688 68.5312 155.906 73.3125 158.344 76.8125C160.844 80.25 164.062 81.9688 168 81.9688C171.75 81.9688 174.844 80.2188 177.281 76.7188C179.781 73.2188 181.031 68.4688 181.031 62.4688C181.031 56.6562 179.812 52 177.375 48.5C174.938 45 171.812 43.25 168 43.25C163.875 43.25 160.625 45 158.25 48.5C155.875 52 154.688 56.6562 154.688 62.4688ZM202.125 62.2812C202.125 53.9062 204.406 47.1875 208.969 42.125C213.594 37 219.438 34.4375 226.5 34.4375C233.562 34.4375 239.281 36.9688 243.656 42.0312C248.094 47.0938 250.312 53.625 250.312 61.625C250.312 61.75 250.219 63.2188 250.031 66.0312H212.531C212.531 70.4688 213.812 74.2812 216.375 77.4688C218.938 80.6562 222.5 82.25 227.062 82.25C230.125 82.25 232.844 81.5 235.219 80C237.594 78.5 239.406 76.5625 240.656 74.1875L249.281 77.0938C247.594 81.0312 244.844 84.2812 241.031 86.8438C237.281 89.4062 232.594 90.6875 226.969 90.6875C219.594 90.6875 213.594 88.125 208.969 83C204.406 77.8125 202.125 70.9062 202.125 62.2812ZM212.719 58.625H239.812C239.812 54.1875 238.625 50.4375 236.25 47.375C233.875 44.3125 230.625 42.7812 226.5 42.7812C222.312 42.7812 219 44.3438 216.562 47.4688C214.125 50.5938 212.844 54.3125 212.719 58.625Z" fill="#494953"/>
<path d="M143.591 451.784V446.497H145.658C152.019 446.497 155.199 444.208 155.199 439.629V438.353H161.216V486.547H154.105V451.784H143.591ZM184.674 450.812C184.674 453.04 185.343 454.843 186.68 456.221C188.058 457.598 189.739 458.287 191.724 458.287C193.75 458.287 195.411 457.598 196.708 456.221C198.045 454.803 198.713 453 198.713 450.812C198.713 448.705 198.065 446.943 196.768 445.525C195.472 444.106 193.791 443.397 191.724 443.397C189.617 443.397 187.916 444.106 186.619 445.525C185.323 446.943 184.674 448.705 184.674 450.812ZM176.105 473.116C176.105 469.915 176.936 467.302 178.597 465.276C180.299 463.25 182.284 461.812 184.553 460.961C179.894 458.733 177.564 455.248 177.564 450.508C177.564 446.821 178.901 443.762 181.575 441.331C184.29 438.9 187.673 437.685 191.724 437.685C195.776 437.685 199.139 438.9 201.813 441.331C204.527 443.762 205.885 446.821 205.885 450.508C205.885 453.061 205.216 455.208 203.879 456.95C202.542 458.692 200.861 460.029 198.835 460.961C201.225 461.812 203.251 463.271 204.912 465.337C206.573 467.403 207.404 470.016 207.404 473.177C207.404 477.309 205.945 480.672 203.028 483.265C200.111 485.818 196.343 487.094 191.724 487.094C187.348 487.094 183.641 485.858 180.603 483.387C177.604 480.875 176.105 477.451 176.105 473.116ZM183.216 472.751C183.216 475.223 184.006 477.289 185.586 478.95C187.207 480.571 189.253 481.381 191.724 481.381C194.196 481.381 196.221 480.571 197.802 478.95C199.422 477.289 200.233 475.223 200.233 472.751C200.233 470.32 199.422 468.254 197.802 466.552C196.221 464.81 194.196 463.939 191.724 463.939C189.293 463.939 187.267 464.79 185.647 466.492C184.026 468.193 183.216 470.28 183.216 472.751ZM227.824 465.641V459.746H257.542V465.641H227.824ZM277.78 476.884L283.371 474.818C285.438 479.193 288.618 481.381 292.913 481.381C295.425 481.381 297.511 480.632 299.173 479.133C300.874 477.593 301.725 475.425 301.725 472.63C301.725 470.037 300.793 467.97 298.93 466.431C297.106 464.891 294.797 464.121 292.001 464.121C290.826 464.121 289.449 464.182 287.869 464.304V458.652C288.841 458.733 290.138 458.773 291.758 458.773C294.068 458.773 296.012 458.064 297.592 456.646C299.173 455.228 299.963 453.283 299.963 450.812C299.963 448.665 299.274 446.902 297.896 445.525C296.519 444.106 294.756 443.397 292.609 443.397C288.963 443.397 286.289 445.687 284.587 450.265L278.874 448.502C279.765 445.302 281.427 442.709 283.858 440.723C286.289 438.698 289.347 437.685 293.034 437.685C297.329 437.685 300.753 438.86 303.305 441.21C305.858 443.56 307.134 446.537 307.134 450.143C307.134 452.696 306.465 454.924 305.128 456.828C303.832 458.733 302.232 460.131 300.327 461.022C302.637 461.751 304.642 463.108 306.344 465.094C308.086 467.039 308.957 469.551 308.957 472.63C308.957 477.168 307.499 480.713 304.581 483.265C301.664 485.818 297.795 487.094 292.974 487.094C289.165 487.094 285.924 486.122 283.25 484.177C280.576 482.191 278.753 479.761 277.78 476.884ZM321.355 462.42C321.355 466.107 321.598 469.307 322.084 472.022C322.571 474.737 323.442 476.985 324.698 478.768C325.994 480.51 327.615 481.381 329.56 481.381C331.059 481.381 332.335 480.875 333.388 479.862C334.482 478.808 335.313 477.35 335.88 475.486C336.488 473.622 336.913 471.637 337.156 469.53C337.44 467.383 337.582 465.013 337.582 462.42C337.582 459.746 337.44 457.294 337.156 455.066C336.873 452.838 336.407 450.832 335.759 449.049C335.151 447.267 334.3 445.889 333.206 444.917C332.153 443.904 330.897 443.397 329.438 443.397C327.534 443.397 325.954 444.289 324.698 446.071C323.442 447.814 322.571 450.062 322.084 452.817C321.598 455.532 321.355 458.733 321.355 462.42ZM314.184 462.42C314.184 457.841 314.629 453.871 315.521 450.508C316.412 447.145 317.628 444.572 319.167 442.79C320.707 441.007 322.327 439.71 324.029 438.9C325.731 438.09 327.534 437.685 329.438 437.685C334.3 437.685 338.068 439.852 340.742 444.187C343.416 448.482 344.753 454.56 344.753 462.42C344.753 469.915 343.457 475.912 340.864 480.409C338.311 484.866 334.543 487.094 329.56 487.094C327.655 487.094 325.852 486.689 324.151 485.878C322.449 485.068 320.828 483.772 319.289 481.989C317.749 480.206 316.513 477.633 315.582 474.271C314.65 470.908 314.184 466.957 314.184 462.42Z" fill="#494953"/>
<path d="M539.005 476.884L544.596 474.818C546.663 479.194 549.843 481.381 554.138 481.381C556.649 481.381 558.736 480.632 560.397 479.133C562.099 477.593 562.949 475.426 562.949 472.63C562.949 470.037 562.018 467.971 560.154 466.432C558.331 464.892 556.021 464.122 553.226 464.122C552.051 464.122 550.674 464.183 549.094 464.305V458.653C550.066 458.734 551.362 458.774 552.983 458.774C555.292 458.774 557.237 458.065 558.817 456.647C560.397 455.229 561.187 453.285 561.187 450.813C561.187 448.666 560.498 446.904 559.121 445.526C557.743 444.108 555.981 443.399 553.834 443.399C550.187 443.399 547.513 445.688 545.812 450.266L540.099 448.504C540.991 445.303 542.652 442.71 545.083 440.725C547.513 438.7 550.572 437.687 554.259 437.687C558.554 437.687 561.977 438.862 564.529 441.211C567.082 443.561 568.358 446.539 568.358 450.145C568.358 452.697 567.69 454.926 566.353 456.83C565.056 458.734 563.456 460.132 561.552 461.023C563.861 461.752 565.866 463.109 567.568 465.095C569.31 467.039 570.181 469.551 570.181 472.63C570.181 477.168 568.723 480.713 565.806 483.265C562.889 485.818 559.02 487.094 554.198 487.094C550.39 487.094 547.149 486.122 544.475 484.177C541.801 482.192 539.978 479.761 539.005 476.884ZM582.579 462.421C582.579 466.107 582.822 469.308 583.308 472.023C583.794 474.737 584.665 476.986 585.921 478.768C587.218 480.51 588.838 481.381 590.783 481.381C592.282 481.381 593.558 480.875 594.611 479.862C595.705 478.809 596.536 477.35 597.103 475.487C597.711 473.623 598.136 471.638 598.379 469.531C598.663 467.384 598.805 465.014 598.805 462.421C598.805 459.747 598.663 457.296 598.379 455.067C598.096 452.839 597.63 450.834 596.981 449.051C596.374 447.268 595.523 445.891 594.429 444.918C593.376 443.906 592.12 443.399 590.661 443.399C588.757 443.399 587.177 444.291 585.921 446.073C584.665 447.815 583.794 450.064 583.308 452.819C582.822 455.533 582.579 458.734 582.579 462.421ZM575.408 462.421C575.408 457.843 575.853 453.872 576.745 450.509C577.636 447.147 578.851 444.574 580.391 442.791C581.93 441.009 583.551 439.712 585.253 438.902C586.954 438.092 588.757 437.687 590.661 437.687C595.523 437.687 599.291 439.854 601.965 444.189C604.639 448.484 605.976 454.561 605.976 462.421C605.976 469.916 604.679 475.912 602.086 480.409C599.534 484.866 595.766 487.094 590.783 487.094C588.879 487.094 587.076 486.689 585.374 485.878C583.672 485.068 582.052 483.772 580.512 481.989C578.973 480.206 577.737 477.634 576.805 474.271C575.873 470.908 575.408 466.958 575.408 462.421ZM626.82 465.642V459.747H656.538V465.642H626.82ZM684.918 471.05C684.918 474.17 685.667 476.682 687.166 478.586C688.665 480.45 690.63 481.381 693.061 481.381C695.411 481.381 697.335 480.45 698.834 478.586C700.374 476.722 701.144 474.21 701.144 471.05C701.144 467.85 700.374 465.338 698.834 463.515C697.335 461.651 695.391 460.719 693 460.719C690.651 460.719 688.706 461.691 687.166 463.636C685.667 465.54 684.918 468.012 684.918 471.05ZM677.625 464.669C677.625 461.104 677.929 457.762 678.537 454.642C679.185 451.522 680.157 448.666 681.454 446.073C682.75 443.48 684.513 441.434 686.741 439.935C689.01 438.436 691.623 437.687 694.58 437.687C700.658 437.687 705.074 440.806 707.829 447.045L702.359 448.929C700.374 445.243 697.801 443.399 694.641 443.399C689.901 443.399 686.822 447.289 685.404 455.067C684.999 456.971 684.735 458.795 684.614 460.537C685.384 458.916 686.579 457.599 688.199 456.587C689.861 455.533 691.785 455.007 693.973 455.007C698.146 455.007 701.549 456.526 704.182 459.564C706.856 462.562 708.193 466.371 708.193 470.989C708.193 475.608 706.856 479.457 704.182 482.536C701.549 485.575 697.923 487.094 693.304 487.094C688.564 487.094 684.837 485.413 682.122 482.05C679.124 478.404 677.625 472.61 677.625 464.669ZM720.348 462.421C720.348 466.107 720.591 469.308 721.077 472.023C721.563 474.737 722.434 476.986 723.69 478.768C724.986 480.51 726.607 481.381 728.552 481.381C730.051 481.381 731.327 480.875 732.38 479.862C733.474 478.809 734.305 477.35 734.872 475.487C735.48 473.623 735.905 471.638 736.148 469.531C736.432 467.384 736.574 465.014 736.574 462.421C736.574 459.747 736.432 457.296 736.148 455.067C735.865 452.839 735.399 450.834 734.75 449.051C734.143 447.268 733.292 445.891 732.198 444.918C731.145 443.906 729.889 443.399 728.43 443.399C726.526 443.399 724.946 444.291 723.69 446.073C722.434 447.815 721.563 450.064 721.077 452.819C720.591 455.533 720.348 458.734 720.348 462.421ZM713.177 462.421C713.177 457.843 713.622 453.872 714.514 450.509C715.405 447.147 716.62 444.574 718.16 442.791C719.699 441.009 721.32 439.712 723.022 438.902C724.723 438.092 726.526 437.687 728.43 437.687C733.292 437.687 737.06 439.854 739.734 444.189C742.408 448.484 743.745 454.561 743.745 462.421C743.745 469.916 742.448 475.912 739.855 480.409C737.303 484.866 733.535 487.094 728.552 487.094C726.648 487.094 724.845 486.689 723.143 485.878C721.441 485.068 719.821 483.772 718.281 481.989C716.742 480.206 715.506 477.634 714.574 474.271C713.642 470.908 713.177 466.958 713.177 462.421Z" fill="#494953"/>
<path d="M966.248 468.072H981.563L977.066 454.703C976.822 453.973 976.336 452.515 975.607 450.327C974.918 448.099 974.412 446.458 974.088 445.405H973.723C973.237 446.985 972.265 450.084 970.806 454.703L966.248 468.072ZM952.757 486L970.016 438.781H977.856L995.115 486H987.64L983.447 473.663H964.425L960.232 486H952.757ZM996.999 468.862C996.999 463.352 998.417 458.936 1001.25 455.614C1004.13 452.292 1007.92 450.631 1012.62 450.631C1015.94 450.631 1018.73 451.624 1021 453.609C1023.27 455.553 1024.73 457.822 1025.38 460.415L1019.73 461.995C1019.2 460.415 1018.31 459.078 1017.05 457.984C1015.84 456.89 1014.38 456.344 1012.68 456.344C1009.92 456.344 1007.76 457.539 1006.18 459.929C1004.64 462.279 1003.87 465.257 1003.87 468.862C1003.87 472.792 1004.7 475.871 1006.36 478.1C1008.02 480.328 1010.13 481.442 1012.68 481.442C1014.5 481.442 1016.12 480.834 1017.54 479.619C1019 478.363 1020.01 476.925 1020.58 475.304L1026.23 476.945C1025.46 479.66 1023.82 482.03 1021.31 484.055C1018.84 486.081 1015.94 487.094 1012.62 487.094C1007.96 487.094 1004.19 485.453 1001.31 482.171C998.437 478.849 996.999 474.413 996.999 468.862ZM1032.37 445.769V438.112H1039.84V445.769H1032.37ZM1032.85 486V451.725H1039.48V486H1032.85ZM1049.14 486V451.725H1055.64V456.1C1056.25 454.804 1057.34 453.568 1058.92 452.393C1060.5 451.218 1062.43 450.631 1064.7 450.631C1068.59 450.631 1071.4 452.839 1073.15 457.255C1073.39 456.728 1073.73 456.161 1074.18 455.553C1074.66 454.905 1075.31 454.196 1076.12 453.426C1076.97 452.616 1078.05 451.948 1079.34 451.421C1080.68 450.894 1082.14 450.631 1083.72 450.631C1090.65 450.631 1094.11 455.067 1094.11 463.94V486H1087.3V464.244C1087.3 461.61 1086.94 459.645 1086.21 458.349C1085.52 457.012 1084.21 456.344 1082.26 456.344C1080.11 456.344 1078.35 457.235 1076.97 459.017C1075.6 460.8 1074.91 463.028 1074.91 465.702V486H1068.28V464.061C1068.28 458.916 1066.56 456.344 1063.12 456.344C1060.85 456.344 1059.07 457.194 1057.77 458.896C1056.51 460.557 1055.89 462.765 1055.89 465.52V486H1049.14ZM1107.12 476.641C1107.12 478.019 1107.66 479.173 1108.76 480.105C1109.89 481.037 1111.41 481.503 1113.32 481.503C1115.91 481.503 1118.12 480.672 1119.94 479.011C1121.76 477.31 1122.67 475.102 1122.67 472.387V468.68C1120.81 469.126 1118.36 469.592 1115.32 470.078C1112.57 470.524 1110.5 471.273 1109.12 472.326C1107.78 473.38 1107.12 474.818 1107.12 476.641ZM1100.31 477.188C1100.31 470.787 1105.15 466.837 1114.83 465.338C1118.85 464.73 1121.46 464.224 1122.67 463.818V461.934C1122.67 460.111 1122.01 458.673 1120.67 457.62C1119.37 456.526 1117.61 455.979 1115.38 455.979C1111.45 455.979 1108.11 457.579 1105.35 460.78L1101.22 457.255C1102.96 455.189 1105.05 453.568 1107.48 452.393C1109.95 451.218 1112.55 450.631 1115.26 450.631C1124.66 450.631 1129.36 455.25 1129.36 464.487V486H1122.86V481.26C1122.17 482.84 1120.87 484.217 1118.97 485.392C1117.06 486.527 1114.85 487.094 1112.34 487.094C1108.62 487.094 1105.68 486.182 1103.53 484.359C1101.38 482.496 1100.31 480.105 1100.31 477.188ZM1150.87 468.802C1150.87 463.17 1152.23 458.734 1154.94 455.493C1157.7 452.252 1161.18 450.631 1165.4 450.631C1167.54 450.631 1169.43 451.198 1171.05 452.333C1172.67 453.467 1173.86 454.763 1174.63 456.222V437.14H1181.32V486H1174.82V481.017C1174.05 482.718 1172.81 484.157 1171.11 485.332C1169.45 486.506 1167.54 487.094 1165.4 487.094C1163.61 487.094 1161.89 486.75 1160.23 486.061C1158.61 485.372 1157.07 484.339 1155.61 482.961C1154.19 481.584 1153.04 479.68 1152.15 477.249C1151.3 474.778 1150.87 471.962 1150.87 468.802ZM1157.68 468.802C1157.68 472.732 1158.47 475.831 1160.05 478.1C1161.67 480.328 1163.76 481.442 1166.31 481.442C1168.74 481.442 1170.74 480.308 1172.32 478.039C1173.94 475.77 1174.76 472.691 1174.76 468.802C1174.76 465.034 1173.97 462.016 1172.39 459.747C1170.8 457.478 1168.78 456.344 1166.31 456.344C1163.63 456.344 1161.53 457.478 1159.99 459.747C1158.45 462.016 1157.68 465.034 1157.68 468.802ZM1188.43 468.68C1188.43 463.251 1189.91 458.896 1192.87 455.614C1195.86 452.292 1199.65 450.631 1204.23 450.631C1208.81 450.631 1212.51 452.272 1215.35 455.553C1218.23 458.835 1219.67 463.069 1219.67 468.255C1219.67 468.336 1219.6 469.288 1219.48 471.111H1195.17C1195.17 473.988 1196 476.459 1197.67 478.525C1199.33 480.591 1201.64 481.624 1204.59 481.624C1206.58 481.624 1208.34 481.138 1209.88 480.166C1211.42 479.194 1212.6 477.938 1213.41 476.398L1219 478.282C1217.9 480.834 1216.12 482.941 1213.65 484.602C1211.22 486.263 1208.18 487.094 1204.53 487.094C1199.75 487.094 1195.86 485.433 1192.87 482.111C1189.91 478.748 1188.43 474.271 1188.43 468.68ZM1195.3 466.31H1212.86C1212.86 463.434 1212.09 461.003 1210.55 459.017C1209.01 457.032 1206.9 456.04 1204.23 456.04C1201.51 456.04 1199.37 457.053 1197.79 459.078C1196.21 461.104 1195.38 463.515 1195.3 466.31ZM1247.19 471.05C1247.19 474.17 1247.94 476.682 1249.44 478.586C1250.94 480.45 1252.91 481.381 1255.34 481.381C1257.69 481.381 1259.61 480.45 1261.11 478.586C1262.65 476.722 1263.42 474.21 1263.42 471.05C1263.42 467.85 1262.65 465.338 1261.11 463.515C1259.61 461.651 1257.67 460.719 1255.28 460.719C1252.93 460.719 1250.98 461.691 1249.44 463.636C1247.94 465.54 1247.19 468.012 1247.19 471.05ZM1239.9 464.669C1239.9 461.104 1240.21 457.762 1240.81 454.642C1241.46 451.522 1242.43 448.666 1243.73 446.073C1245.03 443.48 1246.79 441.434 1249.02 439.935C1251.29 438.436 1253.9 437.687 1256.86 437.687C1262.93 437.687 1267.35 440.806 1270.11 447.045L1264.64 448.929C1262.65 445.243 1260.08 443.399 1256.92 443.399C1252.18 443.399 1249.1 447.289 1247.68 455.067C1247.28 456.971 1247.01 458.795 1246.89 460.537C1247.66 458.916 1248.86 457.599 1250.48 456.587C1252.14 455.533 1254.06 455.007 1256.25 455.007C1260.42 455.007 1263.83 456.526 1266.46 459.564C1269.13 462.562 1270.47 466.371 1270.47 470.989C1270.47 475.608 1269.13 479.457 1266.46 482.536C1263.83 485.575 1260.2 487.094 1255.58 487.094C1250.84 487.094 1247.11 485.413 1244.4 482.05C1241.4 478.404 1239.9 472.61 1239.9 464.669ZM1282.62 462.421C1282.62 466.107 1282.87 469.308 1283.35 472.023C1283.84 474.737 1284.71 476.986 1285.97 478.768C1287.26 480.51 1288.88 481.381 1290.83 481.381C1292.33 481.381 1293.6 480.875 1294.66 479.862C1295.75 478.809 1296.58 477.35 1297.15 475.487C1297.76 473.623 1298.18 471.638 1298.43 469.531C1298.71 467.384 1298.85 465.014 1298.85 462.421C1298.85 459.747 1298.71 457.296 1298.43 455.067C1298.14 452.839 1297.68 450.834 1297.03 449.051C1296.42 447.268 1295.57 445.891 1294.47 444.918C1293.42 443.906 1292.17 443.399 1290.71 443.399C1288.8 443.399 1287.22 444.291 1285.97 446.073C1284.71 447.815 1283.84 450.064 1283.35 452.819C1282.87 455.533 1282.62 458.734 1282.62 462.421ZM1275.45 462.421C1275.45 457.843 1275.9 453.872 1276.79 450.509C1277.68 447.147 1278.9 444.574 1280.44 442.791C1281.98 441.009 1283.6 439.712 1285.3 438.902C1287 438.092 1288.8 437.687 1290.71 437.687C1295.57 437.687 1299.34 439.854 1302.01 444.189C1304.68 448.484 1306.02 454.561 1306.02 462.421C1306.02 469.916 1304.73 475.912 1302.13 480.409C1299.58 484.866 1295.81 487.094 1290.83 487.094C1288.92 487.094 1287.12 486.689 1285.42 485.878C1283.72 485.068 1282.1 483.772 1280.56 481.989C1279.02 480.206 1277.78 477.634 1276.85 474.271C1275.92 470.908 1275.45 466.958 1275.45 462.421Z" fill="#494953"/>
<path d="M123.495 467.237C123.495 493.587 101.572 514.969 74.5 514.969C47.4285 514.969 25.5051 493.587 25.5051 467.237C25.5051 440.888 47.4285 419.505 74.5 419.505C101.572 419.505 123.495 440.888 123.495 467.237Z" fill="#B8F900" stroke="black" stroke-width="1.0102"/>
<path d="M523.495 457.237C523.495 483.587 501.572 504.969 474.5 504.969C447.428 504.969 425.505 483.587 425.505 457.237C425.505 430.888 447.428 409.505 474.5 409.505C501.572 409.505 523.495 430.888 523.495 457.237Z" fill="#00FF9E" stroke="black" stroke-width="1.0102"/>
<path d="M938.495 458.237C938.495 484.587 916.572 505.969 889.5 505.969C862.428 505.969 840.505 484.587 840.505 458.237C840.505 431.888 862.428 410.505 889.5 410.505C916.572 410.505 938.495 431.888 938.495 458.237Z" fill="#017649" stroke="black" stroke-width="1.0102"/>
<rect x="1" y="153" width="1485" height="233" rx="21" fill="#00FF9E" stroke="black" stroke-width="2"/>
</svg>
