<svg width="118" height="224" viewBox="0 0 118 224" fill="none" xmlns="http://www.w3.org/2000/svg">
<path d="M38.1791 7H92.3693C95.9624 7 99.4082 8.40618 101.949 10.9092C104.49 13.4122 105.917 16.807 105.917 20.3469V113.775C105.917 117.315 104.49 120.709 101.949 123.212C99.4082 125.715 95.9624 127.122 92.3693 127.122H38.1791M78.8218 67.0608L51.7267 40.3671M78.8218 67.0608L51.7267 93.7545M78.8218 67.0608H11.084" stroke="#494953" stroke-width="12.3283" stroke-linecap="round" stroke-linejoin="round"/>
<path d="M2.32557 193.046L9.3047 190.7C10.4278 192.706 12.0522 194.35 14.1781 195.634C16.3039 196.877 18.6503 197.499 21.2174 197.499C23.8646 197.499 25.9905 196.857 27.5949 195.573C29.1993 194.29 30.0015 192.625 30.0015 190.58C30.0015 188.414 29.1391 186.729 27.4144 185.526C25.7297 184.323 23.2429 183.159 19.9539 182.036C15.261 180.472 12.0923 179.229 10.4478 178.306C6.15607 175.859 4.01018 172.31 4.01018 167.657C4.01018 163.726 5.55442 160.557 8.64289 158.151C11.7314 155.744 15.7624 154.541 20.736 154.541C24.8273 154.541 28.3168 155.504 31.2048 157.429C34.1328 159.314 36.2586 161.741 37.5822 164.709L30.9039 166.935C28.3369 163.205 24.9275 161.34 20.6759 161.34C18.0687 161.34 16.0031 161.921 14.4789 163.084C12.9547 164.248 12.1926 165.772 12.1926 167.657C12.1926 168.218 12.2528 168.76 12.3731 169.281C12.4934 169.763 12.7341 170.224 13.0951 170.665C13.4561 171.106 13.777 171.487 14.0577 171.808C14.3385 172.129 14.7998 172.47 15.4415 172.831C16.0833 173.192 16.5847 173.473 16.9457 173.673C17.3468 173.874 17.9885 174.135 18.8709 174.456C19.7534 174.776 20.3751 174.997 20.736 175.117C21.1371 175.238 21.8591 175.478 22.902 175.839C23.9448 176.16 24.6468 176.381 25.0078 176.501C26.8528 177.103 28.4773 177.745 29.8811 178.426C31.285 179.108 32.6487 179.991 33.9723 181.074C35.3361 182.117 36.3789 183.42 37.1009 184.984C37.8229 186.549 38.1839 188.313 38.1839 190.279C38.1839 194.731 36.5795 198.181 33.3707 200.627C30.202 203.074 26.0907 204.297 21.0369 204.297C16.6649 204.297 12.8344 203.295 9.54536 201.289C6.25634 199.243 3.84974 196.496 2.32557 193.046ZM49.8559 193.468C49.8559 194.751 50.3573 195.834 51.36 196.717C52.4029 197.559 53.7666 197.98 55.4512 197.98C57.8578 197.98 59.9034 197.178 61.5881 195.573C63.3128 193.969 64.1752 191.863 64.1752 189.256V186.067C62.3301 186.509 60.104 186.93 57.4968 187.331C52.4029 188.133 49.8559 190.179 49.8559 193.468ZM42.1548 194.129C42.1548 187.592 47.0081 183.601 56.7147 182.157C60.2444 181.635 62.7312 181.154 64.1752 180.713V178.848C64.1752 177.163 63.5735 175.839 62.3702 174.877C61.1669 173.914 59.5625 173.433 57.557 173.433C53.7466 173.433 50.4575 174.997 47.69 178.126L43.0572 174.155C44.8622 172.029 47.0081 170.384 49.4949 169.221C52.0218 168.018 54.6691 167.416 57.4367 167.416C62.6109 167.416 66.301 168.68 68.507 171.207C70.7131 173.693 71.8161 177.183 71.8161 181.675V203.214H64.4158V198.882C63.6938 200.367 62.4304 201.65 60.6254 202.733C58.8606 203.776 56.7749 204.297 54.3683 204.297C50.5578 204.297 47.5696 203.355 45.4037 201.47C43.2377 199.584 42.1548 197.138 42.1548 194.129ZM80.0587 163.325V154.962H88.2411V163.325H80.0587ZM80.4197 203.214V168.499H87.9403V203.214H80.4197ZM96.9651 203.214V168.499H104.305V172.229C105.067 170.946 106.15 169.823 107.554 168.86C108.998 167.898 110.703 167.416 112.668 167.416C114.513 167.416 116.017 167.677 117.18 168.198V175.117C115.656 174.636 114.152 174.395 112.668 174.395C110.061 174.395 108.055 175.418 106.652 177.464C105.288 179.469 104.606 182.157 104.606 185.526V203.214H96.9651Z" fill="#494953"/>
</svg>
