<svg width="1562" height="673" viewBox="0 0 1562 673" fill="none" xmlns="http://www.w3.org/2000/svg">
<path d="M0.708791 608.248V601.934H37.5015V608.248H22.8102V652H15.4645V608.248H0.708791ZM45.1049 633.829C45.1049 638.168 46.0285 641.476 47.8756 643.752C49.7228 646.029 51.9351 647.167 54.5125 647.167C57.047 647.167 59.2378 646.029 61.0849 643.752C62.975 641.476 63.9201 638.168 63.9201 633.829C63.9201 629.448 62.975 626.14 61.0849 623.906C59.2378 621.672 57.047 620.555 54.5125 620.555C51.978 620.555 49.7657 621.672 47.8756 623.906C46.0285 626.14 45.1049 629.448 45.1049 633.829ZM37.8881 633.829C37.8881 630.307 38.4466 627.128 39.5634 624.293C40.7233 621.458 42.5919 619.116 45.1693 617.269C47.7468 615.422 50.8612 614.498 54.5125 614.498C59.8821 614.498 63.9845 616.367 66.8197 620.104C69.6978 623.799 71.1369 628.374 71.1369 633.829C71.1369 636.063 70.8577 638.254 70.2992 640.402C69.7408 642.506 68.8387 644.547 67.5929 646.523C66.3901 648.499 64.6504 650.11 62.3736 651.356C60.1399 652.558 57.5195 653.16 54.5125 653.16C51.5055 653.16 48.8851 652.58 46.6514 651.42C44.4176 650.217 42.6778 648.649 41.4321 646.716C40.2293 644.74 39.3272 642.678 38.7258 640.53C38.1673 638.383 37.8881 636.149 37.8881 633.829ZM74.8097 621.715V615.658H80.6733V604.64H87.7613V615.658H96.4601V621.715H87.7613V640.659C87.7613 642.549 88.1264 643.903 88.8567 644.719C89.6299 645.535 90.7897 645.943 92.3362 645.943H96.4601V652H91.4341C84.2603 652 80.6733 648.392 80.6733 641.175V621.715H74.8097ZM107.994 642.077C107.994 643.537 108.574 644.762 109.734 645.75C110.937 646.738 112.547 647.232 114.566 647.232C117.316 647.232 119.657 646.351 121.59 644.59C123.523 642.786 124.49 640.445 124.49 637.566V633.636C122.514 634.108 119.915 634.602 116.693 635.118C113.772 635.59 111.581 636.385 110.12 637.502C108.703 638.619 107.994 640.144 107.994 642.077ZM100.777 642.657C100.777 635.87 105.911 631.681 116.177 630.092C120.43 629.448 123.201 628.911 124.49 628.481V626.484C124.49 624.55 123.781 623.025 122.363 621.909C120.989 620.749 119.12 620.169 116.757 620.169C112.59 620.169 109.046 621.866 106.125 625.259L101.744 621.522C103.591 619.331 105.803 617.613 108.381 616.367C111.001 615.121 113.75 614.498 116.628 614.498C126.594 614.498 131.577 619.396 131.577 629.19V652H124.683V646.974C123.953 648.649 122.578 650.11 120.559 651.356C118.54 652.558 116.199 653.16 113.535 653.16C109.583 653.16 106.469 652.193 104.192 650.26C101.916 648.284 100.777 645.75 100.777 642.657ZM141.178 652V600.194H148.266V652H141.178ZM179.582 633.12C179.582 637.029 180.355 640.101 181.902 642.335C183.491 644.568 185.596 645.685 188.216 645.685C190.837 645.685 192.92 644.611 194.467 642.464C196.013 640.273 196.786 637.158 196.786 633.12C196.786 629.168 195.992 626.097 194.402 623.906C192.856 621.672 190.837 620.555 188.345 620.555C185.682 620.555 183.555 621.715 181.966 624.035C180.377 626.312 179.582 629.34 179.582 633.12ZM172.365 633.185C172.365 627.514 173.761 622.983 176.553 619.589C179.389 616.195 182.997 614.498 187.379 614.498C189.784 614.498 191.782 615.121 193.371 616.367C195.004 617.57 196.163 618.923 196.851 620.427V615.658H203.874V647.232C203.874 654.105 202.564 659.174 199.944 662.439C197.366 665.746 193.328 667.4 187.83 667.4C181.773 667.4 177.112 665.123 173.847 660.57L178.615 657.284C181.236 660.248 184.372 661.73 188.023 661.73C190.6 661.73 192.684 660.72 194.273 658.701C195.863 656.682 196.7 654.04 196.786 650.776C196.786 650.26 196.786 649.487 196.786 648.456C196.829 647.425 196.851 646.716 196.851 646.33C195.992 647.919 194.746 649.229 193.113 650.26C191.481 651.248 189.655 651.742 187.636 651.742C183.04 651.742 179.346 650.045 176.553 646.652C173.761 643.215 172.365 638.726 172.365 633.185ZM218.114 642.077C218.114 643.537 218.694 644.762 219.854 645.75C221.057 646.738 222.668 647.232 224.687 647.232C227.436 647.232 229.777 646.351 231.71 644.59C233.643 642.786 234.61 640.445 234.61 637.566V633.636C232.634 634.108 230.035 634.602 226.813 635.118C223.892 635.59 221.701 636.385 220.241 637.502C218.823 638.619 218.114 640.144 218.114 642.077ZM210.898 642.657C210.898 635.87 216.031 631.681 226.298 630.092C230.551 629.448 233.321 628.911 234.61 628.481V626.484C234.61 624.55 233.901 623.025 232.484 621.909C231.109 620.749 229.24 620.169 226.878 620.169C222.711 620.169 219.167 621.866 216.246 625.259L211.864 621.522C213.711 619.331 215.924 617.613 218.501 616.367C221.121 615.121 223.871 614.498 226.749 614.498C236.715 614.498 241.698 619.396 241.698 629.19V652H234.803V646.974C234.073 648.649 232.698 650.11 230.679 651.356C228.66 652.558 226.319 653.16 223.656 653.16C219.704 653.16 216.589 652.193 214.313 650.26C212.036 648.284 210.898 645.75 210.898 642.657ZM247.755 644.525L252.91 641.561C255.53 645.428 258.902 647.361 263.026 647.361C265.217 647.361 266.978 646.931 268.31 646.072C269.641 645.17 270.307 643.989 270.307 642.528C270.307 640.638 268.89 639.091 266.055 637.889C265.152 637.459 263.112 636.75 259.933 635.762C258.43 635.29 257.119 634.817 256.003 634.345C254.929 633.829 253.812 633.163 252.652 632.347C251.535 631.488 250.676 630.436 250.074 629.19C249.473 627.944 249.172 626.526 249.172 624.937C249.172 621.801 250.483 619.288 253.103 617.398C255.723 615.465 259.053 614.498 263.09 614.498C266.055 614.498 268.825 615.293 271.403 616.883C273.98 618.472 275.892 620.427 277.137 622.746L272.434 625.646C269.985 622.08 266.871 620.298 263.09 620.298C260.9 620.298 259.224 620.749 258.064 621.651C256.905 622.51 256.325 623.648 256.325 625.066C256.325 625.839 256.54 626.548 256.969 627.192C257.399 627.837 257.828 628.352 258.258 628.739C258.73 629.125 259.504 629.555 260.577 630.027C261.694 630.457 262.511 630.758 263.026 630.93C263.584 631.101 264.53 631.402 265.861 631.832C273.679 634.237 277.588 637.824 277.588 642.592C277.588 645.556 276.321 648.069 273.787 650.131C271.252 652.15 267.708 653.16 263.155 653.16C259.761 653.16 256.711 652.387 254.005 650.84C251.299 649.294 249.215 647.189 247.755 644.525ZM280.81 621.715V615.658H286.674V604.64H293.762V615.658H302.461V621.715H293.762V640.659C293.762 642.549 294.127 643.903 294.857 644.719C295.63 645.535 296.79 645.943 298.337 645.943H302.461V652H297.435C290.261 652 286.674 648.392 286.674 641.175V621.715H280.81ZM314.123 633.829C314.123 638.168 315.047 641.476 316.894 643.752C318.741 646.029 320.954 647.167 323.531 647.167C326.066 647.167 328.256 646.029 330.103 643.752C331.994 641.476 332.939 638.168 332.939 633.829C332.939 629.448 331.994 626.14 330.103 623.906C328.256 621.672 326.066 620.555 323.531 620.555C320.997 620.555 318.784 621.672 316.894 623.906C315.047 626.14 314.123 629.448 314.123 633.829ZM306.907 633.829C306.907 630.307 307.465 627.128 308.582 624.293C309.742 621.458 311.61 619.116 314.188 617.269C316.765 615.422 319.88 614.498 323.531 614.498C328.901 614.498 333.003 616.367 335.838 620.104C338.716 623.799 340.155 628.374 340.155 633.829C340.155 636.063 339.876 638.254 339.318 640.402C338.759 642.506 337.857 644.547 336.611 646.523C335.409 648.499 333.669 650.11 331.392 651.356C329.158 652.558 326.538 653.16 323.531 653.16C320.524 653.16 317.904 652.58 315.67 651.42C313.436 650.217 311.696 648.649 310.451 646.716C309.248 644.74 308.346 642.678 307.744 640.53C307.186 638.383 306.907 636.149 306.907 633.829ZM361.226 633.636C361.226 627.88 362.794 623.262 365.93 619.782C369.108 616.26 373.125 614.498 377.979 614.498C382.833 614.498 386.764 616.238 389.771 619.718C392.821 623.197 394.346 627.686 394.346 633.185C394.346 633.271 394.281 634.28 394.152 636.213H368.378C368.378 639.263 369.259 641.884 371.02 644.074C372.781 646.265 375.23 647.361 378.366 647.361C380.471 647.361 382.339 646.845 383.972 645.814C385.604 644.783 386.85 643.452 387.709 641.819L393.637 643.817C392.477 646.523 390.587 648.757 387.967 650.518C385.389 652.279 382.167 653.16 378.301 653.16C373.232 653.16 369.108 651.399 365.93 647.876C362.794 644.311 361.226 639.564 361.226 633.636ZM368.507 631.123H387.129C387.129 628.073 386.313 625.495 384.68 623.391C383.048 621.286 380.814 620.233 377.979 620.233C375.101 620.233 372.824 621.307 371.149 623.455C369.474 625.603 368.593 628.159 368.507 631.123ZM401.369 652V615.658H408.264V620.298C408.908 618.923 410.068 617.613 411.743 616.367C413.419 615.121 415.459 614.498 417.865 614.498C421.989 614.498 424.974 616.84 426.821 621.522C427.079 620.964 427.444 620.362 427.917 619.718C428.432 619.03 429.119 618.279 429.979 617.463C430.881 616.603 432.019 615.895 433.394 615.336C434.811 614.778 436.358 614.498 438.033 614.498C445.379 614.498 449.052 619.202 449.052 628.61V652H441.835V628.932C441.835 626.14 441.448 624.056 440.675 622.682C439.945 621.264 438.549 620.555 436.487 620.555C434.21 620.555 432.341 621.5 430.881 623.391C429.42 625.281 428.69 627.643 428.69 630.479V652H421.666V628.739C421.666 623.283 419.841 620.555 416.189 620.555C413.784 620.555 411.894 621.458 410.519 623.262C409.187 625.023 408.522 627.364 408.522 630.285V652H401.369ZM475.406 652V601.934H484.556L494.028 626.419C494.586 628.008 495.359 630.242 496.347 633.12C497.378 635.956 498.109 637.975 498.538 639.177H498.796C499.054 638.49 500.6 634.237 503.435 626.419L512.778 601.934H522.057V652H514.711V627.514C514.711 624.207 514.991 619.073 515.549 612.114H515.291L512.005 621.522L501.567 648.843H495.896L485.458 621.522L482.107 612.05H481.785C482.429 619.052 482.751 624.207 482.751 627.514V652H475.406ZM537.586 642.077C537.586 643.537 538.166 644.762 539.326 645.75C540.529 646.738 542.139 647.232 544.158 647.232C546.908 647.232 549.249 646.351 551.182 644.59C553.115 642.786 554.082 640.445 554.082 637.566V633.636C552.105 634.108 549.507 634.602 546.285 635.118C543.364 635.59 541.173 636.385 539.712 637.502C538.295 638.619 537.586 640.144 537.586 642.077ZM530.369 642.657C530.369 635.87 535.503 631.681 545.769 630.092C550.022 629.448 552.793 628.911 554.082 628.481V626.484C554.082 624.55 553.373 623.025 551.955 621.909C550.581 620.749 548.712 620.169 546.349 620.169C542.182 620.169 538.638 621.866 535.717 625.259L531.336 621.522C533.183 619.331 535.395 617.613 537.973 616.367C540.593 615.121 543.342 614.498 546.22 614.498C556.186 614.498 561.169 619.396 561.169 629.19V652H554.275V646.974C553.545 648.649 552.17 650.11 550.151 651.356C548.132 652.558 545.791 653.16 543.127 653.16C539.175 653.16 536.061 652.193 533.784 650.26C531.508 648.284 530.369 645.75 530.369 642.657ZM570.062 652V615.658H576.827V620.04C577.558 618.622 578.717 617.355 580.307 616.238C581.896 615.078 583.808 614.498 586.042 614.498C588.018 614.498 589.629 614.778 590.874 615.336V621.844C589.457 621.286 587.846 621.006 586.042 621.006C583.206 621.006 581.016 622.102 579.469 624.293C577.966 626.441 577.214 629.319 577.214 632.927V652H570.062ZM595.836 652V600.194H602.924V631.316L616.713 615.658H625.734L612.525 630.35L626.829 652H618.388L607.95 635.311L602.924 640.917V652H595.836ZM627.989 633.636C627.989 627.88 629.557 623.262 632.693 619.782C635.872 616.26 639.888 614.498 644.742 614.498C649.597 614.498 653.527 616.238 656.534 619.718C659.584 623.197 661.109 627.686 661.109 633.185C661.109 633.271 661.045 634.28 660.916 636.213H635.141C635.141 639.263 636.022 641.884 637.783 644.074C639.545 646.265 641.993 647.361 645.129 647.361C647.234 647.361 649.103 646.845 650.735 645.814C652.367 644.783 653.613 643.452 654.472 641.819L660.4 643.817C659.24 646.523 657.35 648.757 654.73 650.518C652.152 652.279 648.931 653.16 645.065 653.16C639.996 653.16 635.872 651.399 632.693 647.876C629.557 644.311 627.989 639.564 627.989 633.636ZM635.27 631.123H653.892C653.892 628.073 653.076 625.495 651.444 623.391C649.811 621.286 647.578 620.233 644.742 620.233C641.864 620.233 639.588 621.307 637.912 623.455C636.237 625.603 635.356 628.159 635.27 631.123ZM664.653 621.715V615.658H670.517V604.64H677.605V615.658H686.303V621.715H677.605V640.659C677.605 642.549 677.97 643.903 678.7 644.719C679.473 645.535 680.633 645.943 682.179 645.943H686.303V652H681.277C674.104 652 670.517 648.392 670.517 641.175V621.715H664.653ZM693.391 609.344V601.225H701.317V609.344H693.391ZM693.907 652V615.658H700.93V652H693.907ZM711.175 652V615.658H718.07V620.749H718.135C718.693 619.288 719.896 617.892 721.743 616.56C723.633 615.186 725.953 614.498 728.702 614.498C732.224 614.498 735.06 615.594 737.207 617.785C739.355 619.976 740.429 623.584 740.429 628.61V652H733.341V629.576C733.341 623.562 731.258 620.555 727.091 620.555C724.643 620.555 722.559 621.565 720.841 623.584C719.165 625.56 718.328 627.966 718.328 630.801V652H711.175ZM754.541 633.12C754.541 637.029 755.314 640.101 756.86 642.335C758.45 644.568 760.555 645.685 763.175 645.685C765.795 645.685 767.879 644.611 769.425 642.464C770.972 640.273 771.745 637.158 771.745 633.12C771.745 629.168 770.95 626.097 769.361 623.906C767.814 621.672 765.795 620.555 763.304 620.555C760.641 620.555 758.514 621.715 756.925 624.035C755.335 626.312 754.541 629.34 754.541 633.12ZM747.324 633.185C747.324 627.514 748.72 622.983 751.512 619.589C754.347 616.195 757.956 614.498 762.337 614.498C764.743 614.498 766.74 615.121 768.33 616.367C769.962 617.57 771.122 618.923 771.809 620.427V615.658H778.833V647.232C778.833 654.105 777.523 659.174 774.902 662.439C772.325 665.746 768.287 667.4 762.788 667.4C756.731 667.4 752.071 665.123 748.806 660.57L753.574 657.284C756.194 660.248 759.33 661.73 762.982 661.73C765.559 661.73 767.643 660.72 769.232 658.701C770.821 656.682 771.659 654.04 771.745 650.776C771.745 650.26 771.745 649.487 771.745 648.456C771.788 647.425 771.809 646.716 771.809 646.33C770.95 647.919 769.704 649.229 768.072 650.26C766.44 651.248 764.614 651.742 762.595 651.742C757.999 651.742 754.304 650.045 751.512 646.652C748.72 643.215 747.324 638.726 747.324 633.185ZM808.667 627.966C808.667 615.336 812.533 604.017 820.265 594.008L825.484 596.972C822.649 601.568 820.737 605.005 819.749 607.282C817.086 613.339 815.754 620.233 815.754 627.966C815.754 632.648 816.248 637.008 817.236 641.046C818.267 645.084 819.384 648.306 820.587 650.711C821.79 653.074 823.422 655.823 825.484 658.959L820.265 661.923C816.657 657.026 813.821 651.893 811.759 646.523C809.698 641.153 808.667 634.968 808.667 627.966ZM839.402 642.077C839.402 643.537 839.982 644.762 841.142 645.75C842.345 646.738 843.956 647.232 845.975 647.232C848.724 647.232 851.065 646.351 852.998 644.59C854.931 642.786 855.898 640.445 855.898 637.566V633.636C853.922 634.108 851.323 634.602 848.101 635.118C845.18 635.59 842.989 636.385 841.529 637.502C840.111 638.619 839.402 640.144 839.402 642.077ZM832.186 642.657C832.186 635.87 837.319 631.681 847.586 630.092C851.838 629.448 854.609 628.911 855.898 628.481V626.484C855.898 624.55 855.189 623.025 853.771 621.909C852.397 620.749 850.528 620.169 848.166 620.169C843.999 620.169 840.455 621.866 837.534 625.259L833.152 621.522C834.999 619.331 837.211 617.613 839.789 616.367C842.409 615.121 845.159 614.498 848.037 614.498C858.003 614.498 862.986 619.396 862.986 629.19V652H856.091V646.974C855.361 648.649 853.986 650.11 851.967 651.356C849.948 652.558 847.607 653.16 844.944 653.16C840.992 653.16 837.877 652.193 835.601 650.26C833.324 648.284 832.186 645.75 832.186 642.657ZM877.033 633.12C877.033 637.029 877.806 640.101 879.352 642.335C880.942 644.568 883.047 645.685 885.667 645.685C888.287 645.685 890.371 644.611 891.917 642.464C893.464 640.273 894.237 637.158 894.237 633.12C894.237 629.168 893.442 626.097 891.853 623.906C890.306 621.672 888.287 620.555 885.796 620.555C883.133 620.555 881.006 621.715 879.417 624.035C877.827 626.312 877.033 629.34 877.033 633.12ZM869.816 633.185C869.816 627.514 871.212 622.983 874.004 619.589C876.839 616.195 880.448 614.498 884.829 614.498C887.235 614.498 889.232 615.121 890.822 616.367C892.454 617.57 893.614 618.923 894.301 620.427V615.658H901.325V647.232C901.325 654.105 900.015 659.174 897.394 662.439C894.817 665.746 890.779 667.4 885.28 667.4C879.223 667.4 874.563 665.123 871.298 660.57L876.066 657.284C878.687 660.248 881.822 661.73 885.474 661.73C888.051 661.73 890.135 660.72 891.724 658.701C893.313 656.682 894.151 654.04 894.237 650.776C894.237 650.26 894.237 649.487 894.237 648.456C894.28 647.425 894.301 646.716 894.301 646.33C893.442 647.919 892.196 649.229 890.564 650.26C888.932 651.248 887.106 651.742 885.087 651.742C880.491 651.742 876.796 650.045 874.004 646.652C871.212 643.215 869.816 638.726 869.816 633.185ZM915.694 633.829C915.694 638.168 916.618 641.476 918.465 643.752C920.312 646.029 922.524 647.167 925.102 647.167C927.636 647.167 929.827 646.029 931.674 643.752C933.564 641.476 934.509 638.168 934.509 633.829C934.509 629.448 933.564 626.14 931.674 623.906C929.827 621.672 927.636 620.555 925.102 620.555C922.567 620.555 920.355 621.672 918.465 623.906C916.618 626.14 915.694 629.448 915.694 633.829ZM908.477 633.829C908.477 630.307 909.036 627.128 910.153 624.293C911.312 621.458 913.181 619.116 915.758 617.269C918.336 615.422 921.45 614.498 925.102 614.498C930.471 614.498 934.574 616.367 937.409 620.104C940.287 623.799 941.726 628.374 941.726 633.829C941.726 636.063 941.447 638.254 940.888 640.402C940.33 642.506 939.428 644.547 938.182 646.523C936.979 648.499 935.239 650.11 932.963 651.356C930.729 652.558 928.109 653.16 925.102 653.16C922.095 653.16 919.474 652.58 917.24 651.42C915.007 650.217 913.267 648.649 912.021 646.716C910.818 644.74 909.916 642.678 909.315 640.53C908.756 638.383 908.477 636.149 908.477 633.829ZM943.208 655.673L962.474 598.712H969.949L950.682 655.673H943.208ZM972.075 613.919C973.02 609.838 974.803 606.637 977.423 604.318C980.087 601.955 983.523 600.774 987.733 600.774C992.158 600.774 995.787 602.041 998.623 604.575C1001.46 607.11 1002.88 610.589 1002.88 615.014C1002.88 619.997 1000.3 624.959 995.143 629.899C994.671 630.328 993.683 631.273 992.179 632.734C990.676 634.194 989.688 635.161 989.215 635.633C988.785 636.063 988.012 636.858 986.895 638.017C985.821 639.134 985.048 640.036 984.576 640.724C984.103 641.368 983.545 642.163 982.9 643.108C982.299 644.053 981.783 644.998 981.354 645.943H1002.75V652H972.462C972.462 650.11 972.784 648.22 973.428 646.33C974.116 644.44 974.889 642.764 975.748 641.304C976.607 639.843 977.853 638.189 979.485 636.342C981.118 634.452 982.492 632.949 983.609 631.832C984.769 630.672 986.358 629.147 988.377 627.257C988.85 626.827 989.194 626.505 989.408 626.29C993.317 622.596 995.272 618.794 995.272 614.885C995.272 612.351 994.585 610.375 993.21 608.957C991.835 607.539 989.988 606.831 987.669 606.831C985.263 606.831 983.265 607.625 981.676 609.215C980.13 610.804 979.013 612.995 978.325 615.787L972.075 613.919ZM1017.31 626.999C1017.31 630.908 1017.57 634.302 1018.08 637.18C1018.6 640.058 1019.52 642.442 1020.85 644.332C1022.23 646.179 1023.95 647.103 1026.01 647.103C1027.6 647.103 1028.95 646.566 1030.07 645.492C1031.23 644.375 1032.11 642.829 1032.71 640.853C1033.35 638.877 1033.8 636.772 1034.06 634.538C1034.36 632.261 1034.51 629.748 1034.51 626.999C1034.51 624.164 1034.36 621.565 1034.06 619.202C1033.76 616.84 1033.27 614.713 1032.58 612.823C1031.94 610.933 1031.03 609.473 1029.87 608.442C1028.76 607.368 1027.43 606.831 1025.88 606.831C1023.86 606.831 1022.18 607.776 1020.85 609.666C1019.52 611.513 1018.6 613.897 1018.08 616.818C1017.57 619.696 1017.31 623.09 1017.31 626.999ZM1009.71 626.999C1009.71 622.145 1010.18 617.935 1011.12 614.37C1012.07 610.804 1013.36 608.076 1014.99 606.186C1016.62 604.296 1018.34 602.922 1020.14 602.062C1021.95 601.203 1023.86 600.774 1025.88 600.774C1031.03 600.774 1035.03 603.072 1037.86 607.668C1040.7 612.222 1042.12 618.665 1042.12 626.999C1042.12 634.946 1040.74 641.304 1037.99 646.072C1035.29 650.797 1031.29 653.16 1026.01 653.16C1023.99 653.16 1022.08 652.73 1020.27 651.871C1018.47 651.012 1016.75 649.637 1015.12 647.747C1013.49 645.857 1012.18 643.129 1011.19 639.564C1010.2 635.998 1009.71 631.81 1009.71 626.999ZM1047.98 613.919C1048.93 609.838 1050.71 606.637 1053.33 604.318C1055.99 601.955 1059.43 600.774 1063.64 600.774C1068.06 600.774 1071.69 602.041 1074.53 604.575C1077.36 607.11 1078.78 610.589 1078.78 615.014C1078.78 619.997 1076.2 624.959 1071.05 629.899C1070.58 630.328 1069.59 631.273 1068.08 632.734C1066.58 634.194 1065.59 635.161 1065.12 635.633C1064.69 636.063 1063.92 636.858 1062.8 638.017C1061.73 639.134 1060.95 640.036 1060.48 640.724C1060.01 641.368 1059.45 642.163 1058.81 643.108C1058.2 644.053 1057.69 644.998 1057.26 645.943H1078.65V652H1048.37C1048.37 650.11 1048.69 648.22 1049.33 646.33C1050.02 644.44 1050.79 642.764 1051.65 641.304C1052.51 639.843 1053.76 638.189 1055.39 636.342C1057.02 634.452 1058.4 632.949 1059.51 631.832C1060.67 630.672 1062.26 629.147 1064.28 627.257C1064.75 626.827 1065.1 626.505 1065.31 626.29C1069.22 622.596 1071.18 618.794 1071.18 614.885C1071.18 612.351 1070.49 610.375 1069.12 608.957C1067.74 607.539 1065.89 606.831 1063.57 606.831C1061.17 606.831 1059.17 607.625 1057.58 609.215C1056.03 610.804 1054.92 612.995 1054.23 615.787L1047.98 613.919ZM1084.32 635.376L1106.68 601.418H1113.06V635.247H1119.57V641.304H1113.06V652.515H1105.71V641.304H1084.32V635.376ZM1091.35 635.247H1105.71V619.524C1105.71 617.076 1105.8 614.713 1105.97 612.437H1105.71C1105.24 613.296 1104.51 614.498 1103.52 616.045C1102.58 617.591 1102.04 618.472 1101.91 618.687L1091.35 635.247ZM1125.17 658.959C1128.48 653.976 1130.91 649.122 1132.46 644.397C1134.04 639.628 1134.84 634.151 1134.84 627.966C1134.84 624.314 1134.58 620.942 1134.07 617.849C1133.59 614.756 1132.82 611.921 1131.75 609.344C1130.67 606.766 1129.68 604.64 1128.78 602.965C1127.88 601.289 1126.68 599.292 1125.17 596.972L1130.33 594.008C1138.06 604.146 1141.93 615.465 1141.93 627.966C1141.93 635.01 1140.9 641.218 1138.83 646.587C1136.77 651.957 1133.94 657.069 1130.33 661.923L1125.17 658.959ZM1157.97 647.232V638.017H1167.89V647.232H1157.97ZM1157.97 620.555V611.277H1167.89V620.555H1157.97ZM1204.37 625.195H1215.9C1218.91 625.195 1221.2 624.443 1222.79 622.94C1224.43 621.393 1225.24 619.267 1225.24 616.56C1225.24 614.069 1224.4 612.071 1222.73 610.568C1221.05 609.021 1218.67 608.248 1215.58 608.248H1204.37V625.195ZM1197.02 652V601.934H1217.06C1222.13 601.934 1226.02 603.287 1228.72 605.993C1231.47 608.656 1232.85 611.986 1232.85 615.981C1232.85 619.417 1232.03 622.231 1230.4 624.422C1228.76 626.612 1226.94 628.051 1224.92 628.739C1226.6 629.813 1227.8 630.994 1228.53 632.283C1229.26 633.571 1229.88 635.462 1230.4 637.953C1230.96 640.616 1231.6 642.979 1232.33 645.041C1233.06 647.103 1234.18 649.423 1235.68 652H1227.43C1225.54 648.821 1223.95 644.311 1222.67 638.469C1222.19 636.192 1221.44 634.452 1220.41 633.249C1219.42 632.046 1217.85 631.445 1215.71 631.445H1204.37V652H1197.02ZM1239.74 641.948L1245.15 639.371C1246.44 641.433 1248.1 643.043 1250.11 644.203C1252.13 645.363 1254.28 645.943 1256.56 645.943C1258.92 645.943 1260.92 645.32 1262.55 644.074C1264.18 642.786 1265 640.939 1265 638.533C1265 637.545 1264.81 636.643 1264.42 635.827C1264.08 635.01 1263.62 634.345 1263.07 633.829C1262.55 633.271 1261.76 632.691 1260.68 632.089C1259.65 631.488 1258.71 630.994 1257.85 630.607C1256.99 630.221 1255.76 629.705 1254.17 629.061C1252.58 628.374 1251.25 627.772 1250.18 627.257C1247.09 625.796 1244.81 624.078 1243.35 622.102C1241.93 620.126 1241.22 617.72 1241.22 614.885C1241.22 612.05 1242.23 609.387 1244.25 606.895C1246.31 604.404 1249.26 602.879 1253.08 602.32V596.779H1259.78V602.449C1262.23 602.621 1264.55 603.587 1266.74 605.349C1268.97 607.067 1270.52 608.914 1271.38 610.89L1265.9 613.532C1263.45 609.881 1260.27 608.055 1256.36 608.055C1254 608.055 1252.09 608.721 1250.63 610.052C1249.21 611.341 1248.5 612.974 1248.5 614.95C1248.5 615.551 1248.55 616.109 1248.63 616.625C1248.76 617.097 1248.95 617.57 1249.21 618.042C1249.51 618.472 1249.79 618.859 1250.05 619.202C1250.31 619.503 1250.72 619.847 1251.27 620.233C1251.88 620.62 1252.35 620.942 1252.69 621.2C1253.08 621.415 1253.68 621.715 1254.5 622.102C1255.36 622.489 1256.02 622.789 1256.49 623.004C1256.97 623.176 1257.74 623.477 1258.81 623.906C1259.89 624.336 1260.73 624.679 1261.33 624.937C1262.87 625.581 1264.2 626.247 1265.32 626.935C1266.48 627.579 1267.64 628.417 1268.8 629.448C1269.96 630.479 1270.84 631.703 1271.44 633.12C1272.09 634.538 1272.41 636.127 1272.41 637.889C1272.41 641.712 1271.23 644.848 1268.87 647.296C1266.55 649.702 1263.52 651.184 1259.78 651.742V656.962H1253.08V651.613C1250.5 651.399 1247.95 650.389 1245.41 648.585C1242.88 646.738 1240.99 644.525 1239.74 641.948ZM1282.01 615.723V610.117H1284.2C1290.95 610.117 1294.32 607.69 1294.32 602.836V601.483H1300.7V652.58H1293.16V615.723H1282.01ZM1320.99 652V642.786H1330.92V652H1320.99ZM1349.41 614.692C1349.41 617.054 1350.12 618.966 1351.54 620.427C1353 621.887 1354.78 622.617 1356.88 622.617C1359.03 622.617 1360.79 621.887 1362.17 620.427C1363.59 618.923 1364.29 617.011 1364.29 614.692C1364.29 612.458 1363.61 610.589 1362.23 609.086C1360.86 607.582 1359.08 606.831 1356.88 606.831C1354.65 606.831 1352.85 607.582 1351.47 609.086C1350.1 610.589 1349.41 612.458 1349.41 614.692ZM1340.32 638.34C1340.32 634.946 1341.21 632.175 1342.97 630.027C1344.77 627.88 1346.88 626.355 1349.28 625.453C1344.34 623.09 1341.87 619.396 1341.87 614.37C1341.87 610.461 1343.29 607.217 1346.12 604.64C1349 602.062 1352.59 600.774 1356.88 600.774C1361.18 600.774 1364.75 602.062 1367.58 604.64C1370.46 607.217 1371.9 610.461 1371.9 614.37C1371.9 617.076 1371.19 619.353 1369.77 621.2C1368.35 623.047 1366.57 624.465 1364.42 625.453C1366.96 626.355 1369.11 627.901 1370.87 630.092C1372.63 632.283 1373.51 635.053 1373.51 638.404C1373.51 642.786 1371.96 646.351 1368.87 649.1C1365.78 651.807 1361.78 653.16 1356.88 653.16C1352.25 653.16 1348.31 651.85 1345.09 649.229C1341.91 646.566 1340.32 642.936 1340.32 638.34ZM1347.86 637.953C1347.86 640.573 1348.7 642.764 1350.38 644.525C1352.09 646.244 1354.26 647.103 1356.88 647.103C1359.5 647.103 1361.65 646.244 1363.33 644.525C1365.05 642.764 1365.91 640.573 1365.91 637.953C1365.91 635.376 1365.05 633.185 1363.33 631.381C1361.65 629.533 1359.5 628.61 1356.88 628.61C1354.31 628.61 1352.16 629.512 1350.44 631.316C1348.72 633.12 1347.86 635.333 1347.86 637.953ZM1378.66 608.184V601.934H1410.24V606.96C1402.03 620.147 1396 635.333 1392.13 652.515H1384.53C1387.49 637.738 1393.2 622.961 1401.67 608.184H1378.66ZM1424.54 636.149C1424.54 639.457 1425.34 642.12 1426.93 644.139C1428.52 646.115 1430.6 647.103 1433.18 647.103C1435.67 647.103 1437.71 646.115 1439.3 644.139C1440.93 642.163 1441.75 639.499 1441.75 636.149C1441.75 632.755 1440.93 630.092 1439.3 628.159C1437.71 626.183 1435.65 625.195 1433.11 625.195C1430.62 625.195 1428.56 626.226 1426.93 628.288C1425.34 630.307 1424.54 632.927 1424.54 636.149ZM1416.81 629.383C1416.81 625.603 1417.13 622.059 1417.78 618.751C1418.46 615.444 1419.49 612.415 1420.87 609.666C1422.24 606.917 1424.11 604.747 1426.47 603.158C1428.88 601.568 1431.65 600.774 1434.79 600.774C1441.23 600.774 1445.91 604.081 1448.83 610.697L1443.03 612.694C1440.93 608.785 1438.2 606.831 1434.85 606.831C1429.83 606.831 1426.56 610.955 1425.06 619.202C1424.63 621.221 1424.35 623.154 1424.22 625.001C1425.04 623.283 1426.3 621.887 1428.02 620.813C1429.78 619.696 1431.82 619.138 1434.14 619.138C1438.57 619.138 1442.18 620.749 1444.97 623.971C1447.8 627.149 1449.22 631.187 1449.22 636.084C1449.22 640.982 1447.8 645.062 1444.97 648.327C1442.18 651.549 1438.33 653.16 1433.43 653.16C1428.41 653.16 1424.46 651.377 1421.58 647.812C1418.4 643.946 1416.81 637.803 1416.81 629.383ZM1454.76 662.954L1460.63 642.786H1469.26L1460.5 662.954H1454.76ZM1485.95 626.999C1485.95 630.908 1486.21 634.302 1486.72 637.18C1487.24 640.058 1488.16 642.442 1489.49 644.332C1490.87 646.179 1492.59 647.103 1494.65 647.103C1496.24 647.103 1497.59 646.566 1498.71 645.492C1499.87 644.375 1500.75 642.829 1501.35 640.853C1501.99 638.877 1502.44 636.772 1502.7 634.538C1503 632.261 1503.15 629.748 1503.15 626.999C1503.15 624.164 1503 621.565 1502.7 619.202C1502.4 616.84 1501.91 614.713 1501.22 612.823C1500.58 610.933 1499.67 609.473 1498.51 608.442C1497.4 607.368 1496.07 606.831 1494.52 606.831C1492.5 606.831 1490.82 607.776 1489.49 609.666C1488.16 611.513 1487.24 613.897 1486.72 616.818C1486.21 619.696 1485.95 623.09 1485.95 626.999ZM1478.35 626.999C1478.35 622.145 1478.82 617.935 1479.76 614.37C1480.71 610.804 1482 608.076 1483.63 606.186C1485.26 604.296 1486.98 602.922 1488.78 602.062C1490.59 601.203 1492.5 600.774 1494.52 600.774C1499.67 600.774 1503.67 603.072 1506.5 607.668C1509.34 612.222 1510.76 618.665 1510.76 626.999C1510.76 634.946 1509.38 641.304 1506.63 646.072C1503.93 650.797 1499.93 653.16 1494.65 653.16C1492.63 653.16 1490.72 652.73 1488.91 651.871C1487.11 651.012 1485.39 649.637 1483.76 647.747C1482.13 645.857 1480.82 643.129 1479.83 639.564C1478.84 635.998 1478.35 631.81 1478.35 626.999ZM1525.06 614.692C1525.06 617.054 1525.77 618.966 1527.19 620.427C1528.65 621.887 1530.43 622.617 1532.54 622.617C1534.68 622.617 1536.44 621.887 1537.82 620.427C1539.24 618.923 1539.95 617.011 1539.95 614.692C1539.95 612.458 1539.26 610.589 1537.88 609.086C1536.51 607.582 1534.73 606.831 1532.54 606.831C1530.3 606.831 1528.5 607.582 1527.12 609.086C1525.75 610.589 1525.06 612.458 1525.06 614.692ZM1515.98 638.34C1515.98 634.946 1516.86 632.175 1518.62 630.027C1520.42 627.88 1522.53 626.355 1524.93 625.453C1519.99 623.09 1517.52 619.396 1517.52 614.37C1517.52 610.461 1518.94 607.217 1521.78 604.64C1524.65 602.062 1528.24 600.774 1532.54 600.774C1536.83 600.774 1540.4 602.062 1543.23 604.64C1546.11 607.217 1547.55 610.461 1547.55 614.37C1547.55 617.076 1546.84 619.353 1545.42 621.2C1544.01 623.047 1542.22 624.465 1540.07 625.453C1542.61 626.355 1544.76 627.901 1546.52 630.092C1548.28 632.283 1549.16 635.053 1549.16 638.404C1549.16 642.786 1547.61 646.351 1544.52 649.1C1541.43 651.807 1537.43 653.16 1532.54 653.16C1527.9 653.16 1523.97 651.85 1520.74 649.229C1517.57 646.566 1515.98 642.936 1515.98 638.34ZM1523.51 637.953C1523.51 640.573 1524.35 642.764 1526.03 644.525C1527.75 646.244 1529.92 647.103 1532.54 647.103C1535.16 647.103 1537.3 646.244 1538.98 644.525C1540.7 642.764 1541.56 640.573 1541.56 637.953C1541.56 635.376 1540.7 633.185 1538.98 631.381C1537.3 629.533 1535.16 628.61 1532.54 628.61C1529.96 628.61 1527.81 629.512 1526.09 631.316C1524.37 633.12 1523.51 635.333 1523.51 637.953Z" fill="#494953"/>
<path d="M680.219 52.625C680.219 40.875 683.188 31.5937 689.125 24.7812C695.062 17.9062 702.75 14.4688 712.188 14.4688C718.25 14.4688 723.406 16.125 727.656 19.4375C731.906 22.75 735.062 26.7813 737.125 31.5312L727.938 34.625C723.812 27.3125 718.5 23.6562 712 23.6562C705.688 23.6562 700.656 26.3125 696.906 31.625C693.156 36.875 691.281 43.875 691.281 52.625C691.281 61.5 693.188 68.5312 697 73.7188C700.812 78.9062 705.812 81.5 712 81.5C716.062 81.5 719.594 80.3125 722.594 77.9375C725.656 75.5625 727.906 72.6562 729.344 69.2188L739 72.2188C738.062 74.4688 736.875 76.5938 735.438 78.5938C734 80.5312 732.219 82.4688 730.094 84.4062C727.969 86.3438 725.344 87.875 722.219 89C719.156 90.125 715.812 90.6875 712.188 90.6875C702.938 90.6875 695.281 87.3125 689.219 80.5625C683.219 73.8125 680.219 64.5 680.219 52.625ZM762.25 61.3438H785.875L778.938 40.7188C778.562 39.5938 777.812 37.3438 776.688 33.9688C775.625 30.5313 774.844 28 774.344 26.375H773.781C773.031 28.8125 771.531 33.5938 769.281 40.7188L762.25 61.3438ZM741.438 89L768.062 16.1562H780.156L806.781 89H795.25L788.781 69.9688H759.438L752.969 89H741.438ZM810.531 52.625C810.531 40.875 813.5 31.5937 819.438 24.7812C825.375 17.9062 833.062 14.4688 842.5 14.4688C848.562 14.4688 853.719 16.125 857.969 19.4375C862.219 22.75 865.375 26.7813 867.438 31.5312L858.25 34.625C854.125 27.3125 848.812 23.6562 842.312 23.6562C836 23.6562 830.969 26.3125 827.219 31.625C823.469 36.875 821.594 43.875 821.594 52.625C821.594 61.5 823.5 68.5312 827.312 73.7188C831.125 78.9062 836.125 81.5 842.312 81.5C846.375 81.5 849.906 80.3125 852.906 77.9375C855.969 75.5625 858.219 72.6562 859.656 69.2188L869.312 72.2188C868.375 74.4688 867.188 76.5938 865.75 78.5938C864.312 80.5312 862.531 82.4688 860.406 84.4062C858.281 86.3438 855.656 87.875 852.531 89C849.469 90.125 846.125 90.6875 842.5 90.6875C833.25 90.6875 825.594 87.3125 819.531 80.5625C813.531 73.8125 810.531 64.5 810.531 52.625Z" fill="#494953"/>
<path d="M220.469 375.062H246.689C253.525 375.062 258.75 373.354 262.363 369.936C266.074 366.42 267.93 361.586 267.93 355.434C267.93 349.77 266.025 345.229 262.217 341.811C258.408 338.295 252.988 336.537 245.957 336.537H220.469V375.062ZM203.77 436V322.182H249.326C260.85 322.182 269.688 325.258 275.84 331.41C282.09 337.465 285.215 345.033 285.215 354.115C285.215 361.928 283.359 368.324 279.648 373.305C275.938 378.285 271.787 381.557 267.197 383.119C271.006 385.561 273.74 388.246 275.4 391.176C277.061 394.105 278.477 398.402 279.648 404.066C280.918 410.121 282.383 415.492 284.043 420.18C285.703 424.867 288.242 430.141 291.66 436H272.91C268.613 428.773 265 418.52 262.07 405.238C260.996 400.062 259.287 396.107 256.943 393.373C254.697 390.639 251.133 389.271 246.25 389.271H220.469V436H203.77ZM300.889 413.148L313.193 407.289C316.123 411.977 319.883 415.639 324.473 418.275C329.062 420.912 333.945 422.23 339.121 422.23C344.492 422.23 349.033 420.814 352.744 417.982C356.455 415.053 358.311 410.854 358.311 405.385C358.311 403.139 357.871 401.088 356.992 399.232C356.211 397.377 355.186 395.863 353.916 394.691C352.744 393.422 350.938 392.104 348.496 390.736C346.152 389.369 344.004 388.246 342.051 387.367C340.098 386.488 337.314 385.316 333.701 383.852C330.088 382.289 327.061 380.922 324.619 379.75C317.588 376.43 312.412 372.523 309.092 368.031C305.869 363.539 304.258 358.07 304.258 351.625C304.258 345.18 306.553 339.125 311.143 333.461C315.83 327.797 322.52 324.33 331.211 323.061V310.463H346.445V323.354C352.012 323.744 357.285 325.941 362.266 329.945C367.344 333.852 370.859 338.051 372.812 342.543L360.361 348.549C354.795 340.248 347.568 336.098 338.682 336.098C333.311 336.098 328.965 337.611 325.645 340.639C322.422 343.568 320.811 347.279 320.811 351.771C320.811 353.139 320.908 354.408 321.104 355.58C321.396 356.654 321.836 357.729 322.422 358.803C323.105 359.779 323.74 360.658 324.326 361.439C324.912 362.123 325.84 362.904 327.109 363.783C328.477 364.662 329.551 365.395 330.332 365.98C331.211 366.469 332.578 367.152 334.434 368.031C336.387 368.91 337.9 369.594 338.975 370.082C340.049 370.473 341.807 371.156 344.248 372.133C346.689 373.109 348.594 373.891 349.961 374.477C353.477 375.941 356.504 377.455 359.043 379.018C361.68 380.482 364.316 382.387 366.953 384.73C369.59 387.074 371.592 389.857 372.959 393.08C374.424 396.303 375.156 399.916 375.156 403.92C375.156 412.611 372.471 419.74 367.1 425.307C361.826 430.775 354.941 434.145 346.445 435.414V447.279H331.211V435.121C325.352 434.633 319.541 432.338 313.779 428.236C308.018 424.037 303.721 419.008 300.889 413.148ZM406.423 295.758V274.086H414.892C440.965 274.086 454.001 264.703 454.001 245.938V240.707H478.661V438.242H449.517V295.758H406.423ZM574.814 291.772C574.814 300.906 577.554 308.295 583.034 313.942C588.68 319.588 595.572 322.411 603.709 322.411C612.012 322.411 618.821 319.588 624.135 313.942C629.615 308.129 632.355 300.74 632.355 291.772C632.355 283.137 629.698 275.913 624.384 270.1C619.07 264.288 612.178 261.382 603.709 261.382C595.074 261.382 588.099 264.288 582.785 270.1C577.471 275.913 574.814 283.137 574.814 291.772ZM539.691 383.191C539.691 370.072 543.095 359.361 549.904 351.057C556.878 342.754 565.016 336.859 574.315 333.371C555.218 324.238 545.669 309.956 545.669 290.526C545.669 275.414 551.149 262.877 562.109 252.913C573.236 242.949 587.102 237.967 603.709 237.967C620.316 237.967 634.099 242.949 645.059 252.913C656.186 262.877 661.749 275.414 661.749 290.526C661.749 300.989 659.009 309.79 653.529 316.931C648.048 324.072 641.157 329.552 632.853 333.371C642.651 336.859 650.955 342.837 657.763 351.307C664.572 359.776 667.976 370.487 667.976 383.44C667.976 400.379 661.998 414.162 650.041 424.791C638.085 435.253 622.64 440.484 603.709 440.484C585.774 440.484 570.579 435.419 558.124 425.289C545.835 414.993 539.691 400.96 539.691 383.191ZM568.835 381.697C568.835 391.827 572.073 400.296 578.55 407.105C585.193 413.747 593.579 417.069 603.709 417.069C613.839 417.069 622.142 413.747 628.619 407.105C635.261 400.296 638.583 391.827 638.583 381.697C638.583 371.733 635.261 363.263 628.619 356.288C622.142 349.148 613.839 345.577 603.709 345.577C593.745 345.577 585.442 349.065 578.799 356.039C572.156 363.014 568.835 371.567 568.835 381.697ZM688.652 478.347L711.32 400.379H744.699L710.821 478.347H688.652ZM780.071 266.613V242.45H902.129V261.88C870.41 312.862 847.078 371.567 832.132 437.993H802.739C814.197 380.866 836.284 323.74 868.999 266.613H780.071ZM957.429 374.722C957.429 387.509 960.501 397.805 966.646 405.61C972.79 413.249 980.844 417.069 990.808 417.069C1000.44 417.069 1008.33 413.249 1014.47 405.61C1020.78 397.971 1023.94 387.675 1023.94 374.722C1023.94 361.603 1020.78 351.307 1014.47 343.834C1008.33 336.195 1000.36 332.375 990.559 332.375C980.927 332.375 972.956 336.361 966.646 344.332C960.501 352.137 957.429 362.267 957.429 374.722ZM927.537 348.566C927.537 333.953 928.783 320.252 931.274 307.465C933.931 294.678 937.916 282.97 943.23 272.342C948.544 261.714 955.768 253.328 964.902 247.183C974.201 241.039 984.913 237.967 997.036 237.967C1021.95 237.967 1040.05 250.754 1051.34 276.328L1028.92 284.05C1020.78 268.938 1010.24 261.382 997.285 261.382C977.855 261.382 965.234 277.324 959.422 309.209C957.761 317.014 956.682 324.487 956.183 331.628C959.339 324.985 964.238 319.588 970.88 315.436C977.689 311.119 985.577 308.96 994.545 308.96C1011.65 308.96 1025.6 315.187 1036.39 327.642C1047.35 339.931 1052.83 355.541 1052.83 374.473C1052.83 393.404 1047.35 409.18 1036.39 421.801C1025.6 434.256 1010.74 440.484 991.804 440.484C972.375 440.484 957.097 433.592 945.97 419.809C933.681 404.863 927.537 381.115 927.537 348.566ZM1102.65 339.35C1102.65 354.462 1103.65 367.581 1105.64 378.707C1107.64 389.834 1111.21 399.05 1116.35 406.357C1121.67 413.498 1128.31 417.069 1136.28 417.069C1142.43 417.069 1147.66 414.993 1151.97 410.841C1156.46 406.523 1159.86 400.545 1162.19 392.906C1164.68 385.267 1166.42 377.13 1167.42 368.494C1168.58 359.693 1169.16 349.978 1169.16 339.35C1169.16 328.389 1168.58 318.342 1167.42 309.209C1166.26 300.075 1164.35 291.855 1161.69 284.548C1159.2 277.241 1155.71 271.595 1151.23 267.609C1146.91 263.458 1141.76 261.382 1135.78 261.382C1127.98 261.382 1121.5 265.035 1116.35 272.342C1111.21 279.483 1107.64 288.7 1105.64 299.992C1103.65 311.119 1102.65 324.238 1102.65 339.35ZM1073.26 339.35C1073.26 320.584 1075.09 304.31 1078.74 290.526C1082.39 276.743 1087.38 266.198 1093.69 258.891C1100 251.584 1106.64 246.27 1113.61 242.949C1120.59 239.627 1127.98 237.967 1135.78 237.967C1155.71 237.967 1171.16 246.851 1182.12 264.62C1193.08 282.223 1198.56 307.133 1198.56 339.35C1198.56 370.072 1193.24 394.65 1182.61 413.083C1172.15 431.35 1156.71 440.484 1136.28 440.484C1128.48 440.484 1121.09 438.823 1114.11 435.502C1107.14 432.18 1100.49 426.866 1094.18 419.559C1087.87 412.253 1082.81 401.707 1078.99 387.924C1075.17 374.141 1073.26 357.949 1073.26 339.35ZM1253.86 291.772C1253.86 300.906 1256.6 308.295 1262.08 313.942C1267.72 319.588 1274.61 322.411 1282.75 322.411C1291.05 322.411 1297.86 319.588 1303.18 313.942C1308.66 308.129 1311.4 300.74 1311.4 291.772C1311.4 283.137 1308.74 275.913 1303.43 270.1C1298.11 264.288 1291.22 261.382 1282.75 261.382C1274.12 261.382 1267.14 264.288 1261.83 270.1C1256.51 275.913 1253.86 283.137 1253.86 291.772ZM1218.73 383.191C1218.73 370.072 1222.14 359.361 1228.95 351.057C1235.92 342.754 1244.06 336.859 1253.36 333.371C1234.26 324.238 1224.71 309.956 1224.71 290.526C1224.71 275.414 1230.19 262.877 1241.15 252.913C1252.28 242.949 1266.14 237.967 1282.75 237.967C1299.36 237.967 1313.14 242.949 1324.1 252.913C1335.23 262.877 1340.79 275.414 1340.79 290.526C1340.79 300.989 1338.05 309.79 1332.57 316.931C1327.09 324.072 1320.2 329.552 1311.9 333.371C1321.69 336.859 1330 342.837 1336.81 351.307C1343.61 359.776 1347.02 370.487 1347.02 383.44C1347.02 400.379 1341.04 414.162 1329.08 424.791C1317.13 435.253 1301.68 440.484 1282.75 440.484C1264.82 440.484 1249.62 435.419 1237.17 425.289C1224.88 414.993 1218.73 400.96 1218.73 383.191ZM1247.88 381.697C1247.88 391.827 1251.12 400.296 1257.59 407.105C1264.24 413.747 1272.62 417.069 1282.75 417.069C1292.88 417.069 1301.18 413.747 1307.66 407.105C1314.3 400.296 1317.63 391.827 1317.63 381.697C1317.63 371.733 1314.3 363.263 1307.66 356.288C1301.18 349.148 1292.88 345.577 1282.75 345.577C1272.79 345.577 1264.48 349.065 1257.84 356.039C1251.2 363.014 1247.88 371.567 1247.88 381.697Z" fill="#494953"/>
</svg>
