<svg width="793" height="181" viewBox="0 0 793 181" fill="none" xmlns="http://www.w3.org/2000/svg">
<rect width="692" height="181" rx="33" fill="#017649"/>
<path fill-rule="evenodd" clip-rule="evenodd" d="M560.895 109.518L532.121 78.6809L539.371 71.0272L564.549 98.0103L589.928 71.217L597.121 78.9249L568.116 109.545C567.154 110.56 565.854 111.127 564.499 111.122C563.145 111.117 561.849 110.54 560.895 109.518Z" fill="white"/>
<path d="M110.438 92.3438H134.062L127.125 71.7188C126.75 70.5938 126 68.3438 124.875 64.9688C123.812 61.5312 123.031 59 122.531 57.375H121.969C121.219 59.8125 119.719 64.5938 117.469 71.7188L110.438 92.3438ZM89.625 120L116.25 47.1562H128.344L154.969 120H143.438L136.969 100.969H107.625L101.156 120H89.625ZM161.344 120V67.125H171.375V74.5312H171.469C172.281 72.4062 174.031 70.375 176.719 68.4375C179.469 66.4375 182.844 65.4375 186.844 65.4375C191.969 65.4375 196.094 67.0312 199.219 70.2188C202.344 73.4062 203.906 78.6562 203.906 85.9688V120H193.594V87.375C193.594 78.625 190.562 74.25 184.5 74.25C180.938 74.25 177.906 75.7188 175.406 78.6562C172.969 81.5312 171.75 85.0312 171.75 89.1562V120H161.344ZM216.281 101.062V67.125H226.688V99.4688C226.688 108.469 229.875 112.969 236.25 112.969C240.125 112.969 243.094 111.406 245.156 108.281C247.281 105.094 248.344 101.312 248.344 96.9375V67.125H258.562V120H248.719V113.062H248.531C247.656 115.125 246 117.094 243.562 118.969C241.125 120.781 237.906 121.688 233.906 121.688C229.094 121.688 224.938 120.062 221.438 116.812C218 113.562 216.281 108.312 216.281 101.062ZM279.375 105.562C279.375 107.688 280.219 109.469 281.906 110.906C283.656 112.344 286 113.062 288.938 113.062C292.938 113.062 296.344 111.781 299.156 109.219C301.969 106.594 303.375 103.188 303.375 99V93.2812C300.5 93.9688 296.719 94.6875 292.031 95.4375C287.781 96.125 284.594 97.2812 282.469 98.9062C280.406 100.531 279.375 102.75 279.375 105.562ZM268.875 106.406C268.875 96.5312 276.344 90.4375 291.281 88.125C297.469 87.1875 301.5 86.4062 303.375 85.7812V82.875C303.375 80.0625 302.344 77.8438 300.281 76.2188C298.281 74.5312 295.562 73.6875 292.125 73.6875C286.062 73.6875 280.906 76.1562 276.656 81.0938L270.281 75.6562C272.969 72.4688 276.188 69.9688 279.938 68.1562C283.75 66.3438 287.75 65.4375 291.938 65.4375C306.438 65.4375 313.688 72.5625 313.688 86.8125V120H303.656V112.688C302.594 115.125 300.594 117.25 297.656 119.062C294.719 120.812 291.312 121.688 287.438 121.688C281.688 121.688 277.156 120.281 273.844 117.469C270.531 114.594 268.875 110.906 268.875 106.406ZM327.656 120V44.625H337.969V120H327.656Z" fill="white"/>
</svg>
