<svg width="86" height="106" viewBox="0 0 86 106" fill="none" xmlns="http://www.w3.org/2000/svg">
<path d="M9.55555 94.2222H16.3639L63.0666 36.6583L56.2583 28.2667L9.55555 85.8306V94.2222ZM0 106V80.9722L63.0666 3.38611C64.0222 2.30648 65.0781 1.47222 66.2343 0.883334C67.3905 0.294445 68.6041 0 69.875 0C71.1459 0 72.3801 0.294445 73.5777 0.883334C74.7754 1.47222 75.8106 2.35556 76.6833 3.53333L83.2527 11.7778C84.2083 12.8574 84.9059 14.1333 85.3454 15.6056C85.785 17.0778 86.0032 18.55 86 20.0222C86 21.5926 85.7818 23.0903 85.3454 24.5154C84.909 25.9406 84.2115 27.24 83.2527 28.4139L20.3055 106H0ZM59.6028 32.5361L56.2583 28.2667L63.0666 36.6583L59.6028 32.5361Z" fill="#0FA958"/>
</svg>
