<svg width="2335" height="1836" viewBox="0 0 2335 1836" fill="none" xmlns="http://www.w3.org/2000/svg">
<path d="M0.9375 1792.06L10.0312 1788.5C10.8438 1791.12 12.1562 1793.28 13.9688 1794.97C15.8438 1796.66 18.0625 1797.5 20.625 1797.5C27.4375 1797.5 30.8438 1792.69 30.8438 1783.06V1732.16H41.5312V1784.47C41.5312 1791.66 39.75 1797.16 36.1875 1800.97C32.625 1804.78 27.5312 1806.69 20.9062 1806.69C15.5312 1806.69 11.1562 1805.28 7.78125 1802.47C4.46875 1799.66 2.1875 1796.19 0.9375 1792.06ZM64.3125 1790.56C64.3125 1792.69 65.1562 1794.47 66.8438 1795.91C68.5938 1797.34 70.9375 1798.06 73.875 1798.06C77.875 1798.06 81.2812 1796.78 84.0938 1794.22C86.9062 1791.59 88.3125 1788.19 88.3125 1784V1778.28C85.4375 1778.97 81.6562 1779.69 76.9688 1780.44C72.7188 1781.12 69.5312 1782.28 67.4062 1783.91C65.3438 1785.53 64.3125 1787.75 64.3125 1790.56ZM53.8125 1791.41C53.8125 1781.53 61.2812 1775.44 76.2188 1773.12C82.4062 1772.19 86.4375 1771.41 88.3125 1770.78V1767.88C88.3125 1765.06 87.2812 1762.84 85.2188 1761.22C83.2188 1759.53 80.5 1758.69 77.0625 1758.69C71 1758.69 65.8438 1761.16 61.5938 1766.09L55.2188 1760.66C57.9062 1757.47 61.125 1754.97 64.875 1753.16C68.6875 1751.34 72.6875 1750.44 76.875 1750.44C91.375 1750.44 98.625 1757.56 98.625 1771.81V1805H88.5938V1797.69C87.5312 1800.12 85.5312 1802.25 82.5938 1804.06C79.6562 1805.81 76.25 1806.69 72.375 1806.69C66.625 1806.69 62.0938 1805.28 58.7812 1802.47C55.4688 1799.59 53.8125 1795.91 53.8125 1791.41ZM111.562 1805V1752.12H121.594V1759.53H121.688C122.5 1757.41 124.25 1755.38 126.938 1753.44C129.688 1751.44 133.062 1750.44 137.062 1750.44C142.188 1750.44 146.312 1752.03 149.438 1755.22C152.562 1758.41 154.125 1763.66 154.125 1770.97V1805H143.812V1772.38C143.812 1763.62 140.781 1759.25 134.719 1759.25C131.156 1759.25 128.125 1760.72 125.625 1763.66C123.188 1766.53 121.969 1770.03 121.969 1774.16V1805H111.562ZM209.438 1760.94V1752.12H217.875V1745.66C217.875 1740.28 219.188 1736.28 221.812 1733.66C224.5 1730.97 228.25 1729.62 233.062 1729.62H241.031V1738.34H234.562C230.312 1738.34 228.188 1741.03 228.188 1746.41V1752.12H239.719V1760.94H228.188V1805H217.875V1760.94H209.438ZM244.875 1778.28C244.875 1769.91 247.156 1763.19 251.719 1758.12C256.344 1753 262.188 1750.44 269.25 1750.44C276.312 1750.44 282.031 1752.97 286.406 1758.03C290.844 1763.09 293.062 1769.62 293.062 1777.62C293.062 1777.75 292.969 1779.22 292.781 1782.03H255.281C255.281 1786.47 256.562 1790.28 259.125 1793.47C261.688 1796.66 265.25 1798.25 269.812 1798.25C272.875 1798.25 275.594 1797.5 277.969 1796C280.344 1794.5 282.156 1792.56 283.406 1790.19L292.031 1793.09C290.344 1797.03 287.594 1800.28 283.781 1802.84C280.031 1805.41 275.344 1806.69 269.719 1806.69C262.344 1806.69 256.344 1804.12 251.719 1799C247.156 1793.81 244.875 1786.91 244.875 1778.28ZM255.469 1774.62H282.562C282.562 1770.19 281.375 1766.44 279 1763.38C276.625 1760.31 273.375 1758.78 269.25 1758.78C265.062 1758.78 261.75 1760.34 259.312 1763.47C256.875 1766.59 255.594 1770.31 255.469 1774.62ZM297.188 1752.12H308.531L317.625 1781.19C319.688 1788.69 321.062 1793.69 321.75 1796.19H321.938C322.375 1794.56 323.094 1792.03 324.094 1788.59C325.156 1785.09 325.875 1782.62 326.25 1781.19L335.25 1752.12H346.594L327.844 1805H315.938L297.188 1752.12ZM400.969 1805V1752.12H411V1758.88C411.938 1756.88 413.625 1754.97 416.062 1753.16C418.5 1751.34 421.469 1750.44 424.969 1750.44C430.969 1750.44 435.312 1753.84 438 1760.66C438.375 1759.84 438.906 1758.97 439.594 1758.03C440.344 1757.03 441.344 1755.94 442.594 1754.75C443.906 1753.5 445.562 1752.47 447.562 1751.66C449.625 1750.84 451.875 1750.44 454.312 1750.44C465 1750.44 470.344 1757.28 470.344 1770.97V1805H459.844V1771.44C459.844 1767.38 459.281 1764.34 458.156 1762.34C457.094 1760.28 455.062 1759.25 452.062 1759.25C448.75 1759.25 446.031 1760.62 443.906 1763.38C441.781 1766.12 440.719 1769.56 440.719 1773.69V1805H430.5V1771.16C430.5 1763.22 427.844 1759.25 422.531 1759.25C419.031 1759.25 416.281 1760.56 414.281 1763.19C412.344 1765.75 411.375 1769.16 411.375 1773.41V1805H400.969ZM490.406 1790.56C490.406 1792.69 491.25 1794.47 492.938 1795.91C494.688 1797.34 497.031 1798.06 499.969 1798.06C503.969 1798.06 507.375 1796.78 510.188 1794.22C513 1791.59 514.406 1788.19 514.406 1784V1778.28C511.531 1778.97 507.75 1779.69 503.062 1780.44C498.812 1781.12 495.625 1782.28 493.5 1783.91C491.438 1785.53 490.406 1787.75 490.406 1790.56ZM479.906 1791.41C479.906 1781.53 487.375 1775.44 502.312 1773.12C508.5 1772.19 512.531 1771.41 514.406 1770.78V1767.88C514.406 1765.06 513.375 1762.84 511.312 1761.22C509.312 1759.53 506.594 1758.69 503.156 1758.69C497.094 1758.69 491.938 1761.16 487.688 1766.09L481.312 1760.66C484 1757.47 487.219 1754.97 490.969 1753.16C494.781 1751.34 498.781 1750.44 502.969 1750.44C517.469 1750.44 524.719 1757.56 524.719 1771.81V1805H514.688V1797.69C513.625 1800.12 511.625 1802.25 508.688 1804.06C505.75 1805.81 502.344 1806.69 498.469 1806.69C492.719 1806.69 488.188 1805.28 484.875 1802.47C481.562 1799.59 479.906 1795.91 479.906 1791.41ZM537.656 1805V1752.12H547.5V1758.5C548.562 1756.44 550.25 1754.59 552.562 1752.97C554.875 1751.28 557.656 1750.44 560.906 1750.44C563.781 1750.44 566.125 1750.84 567.938 1751.66V1761.12C565.875 1760.31 563.531 1759.91 560.906 1759.91C556.781 1759.91 553.594 1761.5 551.344 1764.69C549.156 1767.81 548.062 1772 548.062 1777.25V1805H537.656ZM628.5 1790.56C628.5 1792.69 629.344 1794.47 631.031 1795.91C632.781 1797.34 635.125 1798.06 638.062 1798.06C642.062 1798.06 645.469 1796.78 648.281 1794.22C651.094 1791.59 652.5 1788.19 652.5 1784V1778.28C649.625 1778.97 645.844 1779.69 641.156 1780.44C636.906 1781.12 633.719 1782.28 631.594 1783.91C629.531 1785.53 628.5 1787.75 628.5 1790.56ZM618 1791.41C618 1781.53 625.469 1775.44 640.406 1773.12C646.594 1772.19 650.625 1771.41 652.5 1770.78V1767.88C652.5 1765.06 651.469 1762.84 649.406 1761.22C647.406 1759.53 644.688 1758.69 641.25 1758.69C635.188 1758.69 630.031 1761.16 625.781 1766.09L619.406 1760.66C622.094 1757.47 625.312 1754.97 629.062 1753.16C632.875 1751.34 636.875 1750.44 641.062 1750.44C655.562 1750.44 662.812 1757.56 662.812 1771.81V1805H652.781V1797.69C651.719 1800.12 649.719 1802.25 646.781 1804.06C643.844 1805.81 640.438 1806.69 636.562 1806.69C630.812 1806.69 626.281 1805.28 622.969 1802.47C619.656 1799.59 618 1795.91 618 1791.41ZM676.312 1805V1729.62H686.531V1759.16C687.781 1756.84 689.656 1754.81 692.156 1753.06C694.656 1751.31 697.562 1750.44 700.875 1750.44C707.375 1750.44 712.719 1752.94 716.906 1757.94C721.156 1762.94 723.281 1769.78 723.281 1778.47C723.281 1783.34 722.594 1787.69 721.219 1791.5C719.844 1795.25 718.031 1798.19 715.781 1800.31C713.594 1802.44 711.219 1804.03 708.656 1805.09C706.156 1806.16 703.594 1806.69 700.969 1806.69C697.656 1806.69 694.688 1805.78 692.062 1803.97C689.438 1802.16 687.531 1799.97 686.344 1797.41V1805H676.312ZM686.344 1778.47C686.344 1784.47 687.562 1789.22 690 1792.72C692.5 1796.22 695.656 1797.97 699.469 1797.97C703.344 1797.97 706.5 1796.28 708.938 1792.91C711.438 1789.47 712.688 1784.66 712.688 1778.47C712.688 1772.53 711.469 1767.84 709.031 1764.41C706.656 1760.97 703.469 1759.25 699.469 1759.25C695.594 1759.25 692.438 1761 690 1764.5C687.562 1768 686.344 1772.66 686.344 1778.47ZM733.688 1805V1752.12H743.531V1758.5C744.594 1756.44 746.281 1754.59 748.594 1752.97C750.906 1751.28 753.688 1750.44 756.938 1750.44C759.812 1750.44 762.156 1750.84 763.969 1751.66V1761.12C761.906 1760.31 759.562 1759.91 756.938 1759.91C752.812 1759.91 749.625 1761.5 747.375 1764.69C745.188 1767.81 744.094 1772 744.094 1777.25V1805H733.688ZM817.406 1805V1752.12H827.438V1758.88C828.375 1756.88 830.062 1754.97 832.5 1753.16C834.938 1751.34 837.906 1750.44 841.406 1750.44C847.406 1750.44 851.75 1753.84 854.438 1760.66C854.812 1759.84 855.344 1758.97 856.031 1758.03C856.781 1757.03 857.781 1755.94 859.031 1754.75C860.344 1753.5 862 1752.47 864 1751.66C866.062 1750.84 868.312 1750.44 870.75 1750.44C881.438 1750.44 886.781 1757.28 886.781 1770.97V1805H876.281V1771.44C876.281 1767.38 875.719 1764.34 874.594 1762.34C873.531 1760.28 871.5 1759.25 868.5 1759.25C865.188 1759.25 862.469 1760.62 860.344 1763.38C858.219 1766.12 857.156 1769.56 857.156 1773.69V1805H846.938V1771.16C846.938 1763.22 844.281 1759.25 838.969 1759.25C835.469 1759.25 832.719 1760.56 830.719 1763.19C828.781 1765.75 827.812 1769.16 827.812 1773.41V1805H817.406ZM906.844 1790.56C906.844 1792.69 907.688 1794.47 909.375 1795.91C911.125 1797.34 913.469 1798.06 916.406 1798.06C920.406 1798.06 923.812 1796.78 926.625 1794.22C929.438 1791.59 930.844 1788.19 930.844 1784V1778.28C927.969 1778.97 924.188 1779.69 919.5 1780.44C915.25 1781.12 912.062 1782.28 909.938 1783.91C907.875 1785.53 906.844 1787.75 906.844 1790.56ZM896.344 1791.41C896.344 1781.53 903.812 1775.44 918.75 1773.12C924.938 1772.19 928.969 1771.41 930.844 1770.78V1767.88C930.844 1765.06 929.812 1762.84 927.75 1761.22C925.75 1759.53 923.031 1758.69 919.594 1758.69C913.531 1758.69 908.375 1761.16 904.125 1766.09L897.75 1760.66C900.438 1757.47 903.656 1754.97 907.406 1753.16C911.219 1751.34 915.219 1750.44 919.406 1750.44C933.906 1750.44 941.156 1757.56 941.156 1771.81V1805H931.125V1797.69C930.062 1800.12 928.062 1802.25 925.125 1804.06C922.188 1805.81 918.781 1806.69 914.906 1806.69C909.156 1806.69 904.625 1805.28 901.312 1802.47C898 1799.59 896.344 1795.91 896.344 1791.41ZM954.75 1742.94V1731.12H966.281V1742.94H954.75ZM955.5 1805V1752.12H965.719V1805H955.5ZM1028.62 1742.94V1731.12H1040.34V1742.94H1028.62ZM1019.62 1817.47H1021.59C1026.78 1817.47 1029.38 1813.84 1029.38 1806.59V1752.12H1039.59V1807.06C1039.59 1813.38 1038.19 1818.16 1035.38 1821.41C1032.56 1824.66 1028.53 1826.28 1023.28 1826.28H1019.62V1817.47ZM1054.03 1786.06V1752.12H1064.44V1784.47C1064.44 1793.47 1067.62 1797.97 1074 1797.97C1077.88 1797.97 1080.84 1796.41 1082.91 1793.28C1085.03 1790.09 1086.09 1786.31 1086.09 1781.94V1752.12H1096.31V1805H1086.47V1798.06H1086.28C1085.41 1800.12 1083.75 1802.09 1081.31 1803.97C1078.88 1805.78 1075.66 1806.69 1071.66 1806.69C1066.84 1806.69 1062.69 1805.06 1059.19 1801.81C1055.75 1798.56 1054.03 1793.31 1054.03 1786.06ZM1110 1805V1752.12H1120.03V1759.53H1120.12C1120.94 1757.41 1122.69 1755.38 1125.38 1753.44C1128.12 1751.44 1131.5 1750.44 1135.5 1750.44C1140.62 1750.44 1144.75 1752.03 1147.88 1755.22C1151 1758.41 1152.56 1763.66 1152.56 1770.97V1805H1142.25V1772.38C1142.25 1763.62 1139.22 1759.25 1133.16 1759.25C1129.59 1759.25 1126.56 1760.72 1124.06 1763.66C1121.62 1766.53 1120.41 1770.03 1120.41 1774.16V1805H1110ZM1213.59 1742.94V1731.12H1225.31V1742.94H1213.59ZM1204.59 1817.47H1206.56C1211.75 1817.47 1214.34 1813.84 1214.34 1806.59V1752.12H1224.56V1807.06C1224.56 1813.38 1223.16 1818.16 1220.34 1821.41C1217.53 1824.66 1213.5 1826.28 1208.25 1826.28H1204.59V1817.47ZM1239 1786.06V1752.12H1249.41V1784.47C1249.41 1793.47 1252.59 1797.97 1258.97 1797.97C1262.84 1797.97 1265.81 1796.41 1267.88 1793.28C1270 1790.09 1271.06 1786.31 1271.06 1781.94V1752.12H1281.28V1805H1271.44V1798.06H1271.25C1270.38 1800.12 1268.72 1802.09 1266.28 1803.97C1263.84 1805.78 1260.62 1806.69 1256.62 1806.69C1251.81 1806.69 1247.66 1805.06 1244.16 1801.81C1240.72 1798.56 1239 1793.31 1239 1786.06ZM1296 1805V1729.62H1306.31V1805H1296ZM1374.94 1790.56C1374.94 1792.69 1375.78 1794.47 1377.47 1795.91C1379.22 1797.34 1381.56 1798.06 1384.5 1798.06C1388.5 1798.06 1391.91 1796.78 1394.72 1794.22C1397.53 1791.59 1398.94 1788.19 1398.94 1784V1778.28C1396.06 1778.97 1392.28 1779.69 1387.59 1780.44C1383.34 1781.12 1380.16 1782.28 1378.03 1783.91C1375.97 1785.53 1374.94 1787.75 1374.94 1790.56ZM1364.44 1791.41C1364.44 1781.53 1371.91 1775.44 1386.84 1773.12C1393.03 1772.19 1397.06 1771.41 1398.94 1770.78V1767.88C1398.94 1765.06 1397.91 1762.84 1395.84 1761.22C1393.84 1759.53 1391.12 1758.69 1387.69 1758.69C1381.62 1758.69 1376.47 1761.16 1372.22 1766.09L1365.84 1760.66C1368.53 1757.47 1371.75 1754.97 1375.5 1753.16C1379.31 1751.34 1383.31 1750.44 1387.5 1750.44C1402 1750.44 1409.25 1757.56 1409.25 1771.81V1805H1399.22V1797.69C1398.16 1800.12 1396.16 1802.25 1393.22 1804.06C1390.28 1805.81 1386.88 1806.69 1383 1806.69C1377.25 1806.69 1372.72 1805.28 1369.41 1802.47C1366.09 1799.59 1364.44 1795.91 1364.44 1791.41ZM1429.69 1777.53C1429.69 1783.22 1430.81 1787.69 1433.06 1790.94C1435.38 1794.19 1438.44 1795.81 1442.25 1795.81C1446.06 1795.81 1449.09 1794.25 1451.34 1791.12C1453.59 1787.94 1454.72 1783.41 1454.72 1777.53C1454.72 1771.78 1453.56 1767.31 1451.25 1764.12C1449 1760.88 1446.06 1759.25 1442.44 1759.25C1438.56 1759.25 1435.47 1760.94 1433.16 1764.31C1430.84 1767.62 1429.69 1772.03 1429.69 1777.53ZM1419.19 1777.62C1419.19 1769.38 1421.22 1762.78 1425.28 1757.84C1429.41 1752.91 1434.66 1750.44 1441.03 1750.44C1444.53 1750.44 1447.44 1751.34 1449.75 1753.16C1452.12 1754.91 1453.81 1756.88 1454.81 1759.06V1752.12H1465.03V1798.06C1465.03 1808.06 1463.12 1815.44 1459.31 1820.19C1455.56 1825 1449.69 1827.41 1441.69 1827.41C1432.88 1827.41 1426.09 1824.09 1421.34 1817.47L1428.28 1812.69C1432.09 1817 1436.66 1819.16 1441.97 1819.16C1445.72 1819.16 1448.75 1817.69 1451.06 1814.75C1453.38 1811.81 1454.59 1807.97 1454.72 1803.22C1454.72 1802.47 1454.72 1801.34 1454.72 1799.84C1454.78 1798.34 1454.81 1797.31 1454.81 1796.75C1453.56 1799.06 1451.75 1800.97 1449.38 1802.47C1447 1803.91 1444.34 1804.62 1441.41 1804.62C1434.72 1804.62 1429.34 1802.16 1425.28 1797.22C1421.22 1792.22 1419.19 1785.69 1419.19 1777.62ZM1485.94 1778.56C1485.94 1784.88 1487.28 1789.69 1489.97 1793C1492.66 1796.31 1495.88 1797.97 1499.62 1797.97C1503.31 1797.97 1506.5 1796.31 1509.19 1793C1511.94 1789.69 1513.31 1784.88 1513.31 1778.56C1513.31 1772.19 1511.94 1767.38 1509.19 1764.12C1506.5 1760.88 1503.31 1759.25 1499.62 1759.25C1495.94 1759.25 1492.72 1760.88 1489.97 1764.12C1487.28 1767.38 1485.94 1772.19 1485.94 1778.56ZM1475.44 1778.56C1475.44 1773.44 1476.25 1768.81 1477.88 1764.69C1479.56 1760.56 1482.28 1757.16 1486.03 1754.47C1489.78 1751.78 1494.31 1750.44 1499.62 1750.44C1507.44 1750.44 1513.41 1753.16 1517.53 1758.59C1521.72 1763.97 1523.81 1770.62 1523.81 1778.56C1523.81 1781.81 1523.41 1785 1522.59 1788.12C1521.78 1791.19 1520.47 1794.16 1518.66 1797.03C1516.91 1799.91 1514.38 1802.25 1511.06 1804.06C1507.81 1805.81 1504 1806.69 1499.62 1806.69C1495.25 1806.69 1491.44 1805.84 1488.19 1804.16C1484.94 1802.41 1482.41 1800.12 1480.59 1797.31C1478.84 1794.44 1477.53 1791.44 1476.66 1788.31C1475.84 1785.19 1475.44 1781.94 1475.44 1778.56ZM1576.97 1794.12L1584.47 1789.81C1588.28 1795.44 1593.19 1798.25 1599.19 1798.25C1602.38 1798.25 1604.94 1797.62 1606.88 1796.38C1608.81 1795.06 1609.78 1793.34 1609.78 1791.22C1609.78 1788.47 1607.72 1786.22 1603.59 1784.47C1602.28 1783.84 1599.31 1782.81 1594.69 1781.38C1592.5 1780.69 1590.59 1780 1588.97 1779.31C1587.41 1778.56 1585.78 1777.59 1584.09 1776.41C1582.47 1775.16 1581.22 1773.62 1580.34 1771.81C1579.47 1770 1579.03 1767.94 1579.03 1765.62C1579.03 1761.06 1580.94 1757.41 1584.75 1754.66C1588.56 1751.84 1593.41 1750.44 1599.28 1750.44C1603.59 1750.44 1607.62 1751.59 1611.38 1753.91C1615.12 1756.22 1617.91 1759.06 1619.72 1762.44L1612.88 1766.66C1609.31 1761.47 1604.78 1758.88 1599.28 1758.88C1596.09 1758.88 1593.66 1759.53 1591.97 1760.84C1590.28 1762.09 1589.44 1763.75 1589.44 1765.81C1589.44 1766.94 1589.75 1767.97 1590.38 1768.91C1591 1769.84 1591.62 1770.59 1592.25 1771.16C1592.94 1771.72 1594.06 1772.34 1595.62 1773.03C1597.25 1773.66 1598.44 1774.09 1599.19 1774.34C1600 1774.59 1601.38 1775.03 1603.31 1775.66C1614.69 1779.16 1620.38 1784.38 1620.38 1791.31C1620.38 1795.62 1618.53 1799.28 1614.84 1802.28C1611.16 1805.22 1606 1806.69 1599.38 1806.69C1594.44 1806.69 1590 1805.56 1586.06 1803.31C1582.12 1801.06 1579.09 1798 1576.97 1794.12ZM1626.94 1778.28C1626.94 1769.91 1629.22 1763.19 1633.78 1758.12C1638.41 1753 1644.25 1750.44 1651.31 1750.44C1658.38 1750.44 1664.09 1752.97 1668.47 1758.03C1672.91 1763.09 1675.12 1769.62 1675.12 1777.62C1675.12 1777.75 1675.03 1779.22 1674.84 1782.03H1637.34C1637.34 1786.47 1638.62 1790.28 1641.19 1793.47C1643.75 1796.66 1647.31 1798.25 1651.88 1798.25C1654.94 1798.25 1657.66 1797.5 1660.03 1796C1662.41 1794.5 1664.22 1792.56 1665.47 1790.19L1674.09 1793.09C1672.41 1797.03 1669.66 1800.28 1665.84 1802.84C1662.09 1805.41 1657.41 1806.69 1651.78 1806.69C1644.41 1806.69 1638.41 1804.12 1633.78 1799C1629.22 1793.81 1626.94 1786.91 1626.94 1778.28ZM1637.53 1774.62H1664.62C1664.62 1770.19 1663.44 1766.44 1661.06 1763.38C1658.69 1760.31 1655.44 1758.78 1651.31 1758.78C1647.12 1758.78 1643.81 1760.34 1641.38 1763.47C1638.94 1766.59 1637.66 1770.31 1637.53 1774.62ZM1680.28 1760.94V1752.12H1688.81V1736.09H1699.12V1752.12H1711.78V1760.94H1699.12V1788.5C1699.12 1791.25 1699.66 1793.22 1700.72 1794.41C1701.84 1795.59 1703.53 1796.19 1705.78 1796.19H1711.78V1805H1704.47C1694.03 1805 1688.81 1799.75 1688.81 1789.25V1760.94H1680.28ZM1775.62 1778.56C1775.62 1784.88 1776.97 1789.69 1779.66 1793C1782.34 1796.31 1785.56 1797.97 1789.31 1797.97C1793 1797.97 1796.19 1796.31 1798.88 1793C1801.62 1789.69 1803 1784.88 1803 1778.56C1803 1772.19 1801.62 1767.38 1798.88 1764.12C1796.19 1760.88 1793 1759.25 1789.31 1759.25C1785.62 1759.25 1782.41 1760.88 1779.66 1764.12C1776.97 1767.38 1775.62 1772.19 1775.62 1778.56ZM1765.12 1778.56C1765.12 1773.44 1765.94 1768.81 1767.56 1764.69C1769.25 1760.56 1771.97 1757.16 1775.72 1754.47C1779.47 1751.78 1784 1750.44 1789.31 1750.44C1797.12 1750.44 1803.09 1753.16 1807.22 1758.59C1811.41 1763.97 1813.5 1770.62 1813.5 1778.56C1813.5 1781.81 1813.09 1785 1812.28 1788.12C1811.47 1791.19 1810.16 1794.16 1808.34 1797.03C1806.59 1799.91 1804.06 1802.25 1800.75 1804.06C1797.5 1805.81 1793.69 1806.69 1789.31 1806.69C1784.94 1806.69 1781.12 1805.84 1777.88 1804.16C1774.62 1802.41 1772.09 1800.12 1770.28 1797.31C1768.53 1794.44 1767.22 1791.44 1766.34 1788.31C1765.53 1785.19 1765.12 1781.94 1765.12 1778.56ZM1823.25 1786.06V1752.12H1833.66V1784.47C1833.66 1793.47 1836.84 1797.97 1843.22 1797.97C1847.09 1797.97 1850.06 1796.41 1852.12 1793.28C1854.25 1790.09 1855.31 1786.31 1855.31 1781.94V1752.12H1865.53V1805H1855.69V1798.06H1855.5C1854.62 1800.12 1852.97 1802.09 1850.53 1803.97C1848.09 1805.78 1844.88 1806.69 1840.88 1806.69C1836.06 1806.69 1831.91 1805.06 1828.41 1801.81C1824.97 1798.56 1823.25 1793.31 1823.25 1786.06ZM1874.06 1760.94V1752.12H1882.59V1736.09H1892.91V1752.12H1905.56V1760.94H1892.91V1788.5C1892.91 1791.25 1893.44 1793.22 1894.5 1794.41C1895.62 1795.59 1897.31 1796.19 1899.56 1796.19H1905.56V1805H1898.25C1887.81 1805 1882.59 1799.75 1882.59 1789.25V1760.94H1874.06ZM1962.09 1805V1752.12H1972.12V1759.53H1972.22C1973.03 1757.41 1974.78 1755.38 1977.47 1753.44C1980.22 1751.44 1983.59 1750.44 1987.59 1750.44C1992.72 1750.44 1996.84 1752.03 1999.97 1755.22C2003.09 1758.41 2004.66 1763.66 2004.66 1770.97V1805H1994.34V1772.38C1994.34 1763.62 1991.31 1759.25 1985.25 1759.25C1981.69 1759.25 1978.66 1760.72 1976.16 1763.66C1973.72 1766.53 1972.5 1770.03 1972.5 1774.16V1805H1962.09ZM2025 1778.56C2025 1784.88 2026.34 1789.69 2029.03 1793C2031.72 1796.31 2034.94 1797.97 2038.69 1797.97C2042.38 1797.97 2045.56 1796.31 2048.25 1793C2051 1789.69 2052.38 1784.88 2052.38 1778.56C2052.38 1772.19 2051 1767.38 2048.25 1764.12C2045.56 1760.88 2042.38 1759.25 2038.69 1759.25C2035 1759.25 2031.78 1760.88 2029.03 1764.12C2026.34 1767.38 2025 1772.19 2025 1778.56ZM2014.5 1778.56C2014.5 1773.44 2015.31 1768.81 2016.94 1764.69C2018.62 1760.56 2021.34 1757.16 2025.09 1754.47C2028.84 1751.78 2033.38 1750.44 2038.69 1750.44C2046.5 1750.44 2052.47 1753.16 2056.59 1758.59C2060.78 1763.97 2062.88 1770.62 2062.88 1778.56C2062.88 1781.81 2062.47 1785 2061.66 1788.12C2060.84 1791.19 2059.53 1794.16 2057.72 1797.03C2055.97 1799.91 2053.44 1802.25 2050.12 1804.06C2046.88 1805.81 2043.06 1806.69 2038.69 1806.69C2034.31 1806.69 2030.5 1805.84 2027.25 1804.16C2024 1802.41 2021.47 1800.12 2019.66 1797.31C2017.91 1794.44 2016.59 1791.44 2015.72 1788.31C2014.91 1785.19 2014.5 1781.94 2014.5 1778.56ZM2067.19 1752.12H2078.53L2087.62 1781.19C2089.69 1788.69 2091.06 1793.69 2091.75 1796.19H2091.94C2092.38 1794.56 2093.09 1792.03 2094.09 1788.59C2095.16 1785.09 2095.88 1782.62 2096.25 1781.19L2105.25 1752.12H2116.59L2097.84 1805H2085.94L2067.19 1752.12ZM2167.78 1778.47C2167.78 1769.78 2169.88 1762.94 2174.06 1757.94C2178.31 1752.94 2183.69 1750.44 2190.19 1750.44C2193.5 1750.44 2196.41 1751.31 2198.91 1753.06C2201.41 1754.81 2203.25 1756.81 2204.44 1759.06V1729.62H2214.75V1805H2204.72V1797.31C2203.53 1799.94 2201.62 1802.16 2199 1803.97C2196.44 1805.78 2193.5 1806.69 2190.19 1806.69C2187.44 1806.69 2184.78 1806.16 2182.22 1805.09C2179.72 1804.03 2177.34 1802.44 2175.09 1800.31C2172.91 1798.19 2171.12 1795.25 2169.75 1791.5C2168.44 1787.69 2167.78 1783.34 2167.78 1778.47ZM2178.28 1778.47C2178.28 1784.53 2179.5 1789.31 2181.94 1792.81C2184.44 1796.25 2187.66 1797.97 2191.59 1797.97C2195.34 1797.97 2198.44 1796.22 2200.88 1792.72C2203.38 1789.22 2204.62 1784.47 2204.62 1778.47C2204.62 1772.66 2203.41 1768 2200.97 1764.5C2198.53 1761 2195.41 1759.25 2191.59 1759.25C2187.47 1759.25 2184.22 1761 2181.84 1764.5C2179.47 1768 2178.28 1772.66 2178.28 1778.47ZM2225.72 1778.28C2225.72 1769.91 2228 1763.19 2232.56 1758.12C2237.19 1753 2243.03 1750.44 2250.09 1750.44C2257.16 1750.44 2262.88 1752.97 2267.25 1758.03C2271.69 1763.09 2273.91 1769.62 2273.91 1777.62C2273.91 1777.75 2273.81 1779.22 2273.62 1782.03H2236.12C2236.12 1786.47 2237.41 1790.28 2239.97 1793.47C2242.53 1796.66 2246.09 1798.25 2250.66 1798.25C2253.72 1798.25 2256.44 1797.5 2258.81 1796C2261.19 1794.5 2263 1792.56 2264.25 1790.19L2272.88 1793.09C2271.19 1797.03 2268.44 1800.28 2264.62 1802.84C2260.88 1805.41 2256.19 1806.69 2250.56 1806.69C2243.19 1806.69 2237.19 1804.12 2232.56 1799C2228 1793.81 2225.72 1786.91 2225.72 1778.28ZM2236.31 1774.62H2263.41C2263.41 1770.19 2262.22 1766.44 2259.84 1763.38C2257.47 1760.31 2254.22 1758.78 2250.09 1758.78C2245.91 1758.78 2242.59 1760.34 2240.16 1763.47C2237.72 1766.59 2236.44 1770.31 2236.31 1774.62ZM2279.91 1805V1798.16L2308.31 1760.94H2282.25V1752.12H2321.81V1758.59L2293.12 1796.28H2322.75V1805H2279.91Z" fill="#006D43"/>
<path d="M0 1665L2335 1665" stroke="#006D43" stroke-width="8"/>
<rect x="30" y="845" width="65" height="820" fill="#FF4545"/>
<rect x="88" y="1080" width="65" height="585" fill="#02A767"/>
<rect x="225" y="1207" width="65" height="458" fill="#FF4545"/>
<rect x="283" y="1445" width="65" height="220" fill="#02A767"/>
<rect x="420" y="1106" width="65" height="559" fill="#FF4545"/>
<rect x="478" y="1241" width="65" height="424" fill="#02A767"/>
<rect x="624" y="1445" width="65" height="220" fill="#FF4545"/>
<rect x="682" y="885" width="65" height="780" fill="#02A767"/>
<rect x="828" y="790" width="65" height="875" fill="#FF4545"/>
<rect x="886" y="743" width="65" height="922" fill="#02A767"/>
<rect x="1023" y="1001" width="65" height="664" fill="#FF4545"/>
<rect x="1081" y="743" width="65" height="922" fill="#02A767"/>
<rect x="1205" y="1080" width="65" height="585" fill="#FF4545"/>
<rect x="1263" y="1201" width="65" height="464" fill="#02A767"/>
<rect x="1388" y="1536" width="65" height="129" fill="#FF4545"/>
<rect x="1446" y="649" width="65" height="1016" fill="#02A767"/>
<rect x="1583" y="1385" width="65" height="280" fill="#FF4545"/>
<rect x="1641" y="743" width="65" height="922" fill="#02A767"/>
<rect x="1782" y="1331" width="65" height="334" fill="#FF4545"/>
<rect x="1840" y="649" width="65" height="1016" fill="#02A767"/>
<rect x="2039" y="845" width="65" height="820" fill="#02A767"/>
<rect x="1981" y="978" width="65" height="687" fill="#FF4545"/>
<rect x="2186" y="790" width="65" height="875" fill="#FF4545"/>
<rect x="2244" y="649" width="65" height="1016" fill="#02A767"/>
<path d="M191.812 89V16.1562H238.875V25.3438H202.5V46.8125H235.312V55.8125H202.5V79.8125H239.719V89H191.812ZM249.844 89V36.125H259.875V43.5312H259.969C260.781 41.4062 262.531 39.375 265.219 37.4375C267.969 35.4375 271.344 34.4375 275.344 34.4375C280.469 34.4375 284.594 36.0312 287.719 39.2188C290.844 42.4062 292.406 47.6562 292.406 54.9688V89H282.094V56.375C282.094 47.625 279.062 43.25 273 43.25C269.438 43.25 266.406 44.7188 263.906 47.6562C261.469 50.5312 260.25 54.0312 260.25 58.1562V89H249.844ZM299.906 44.9375V36.125H308.438V20.0938H318.75V36.125H331.406V44.9375H318.75V72.5C318.75 75.25 319.281 77.2188 320.344 78.4062C321.469 79.5938 323.156 80.1875 325.406 80.1875H331.406V89H324.094C313.656 89 308.438 83.75 308.438 73.25V44.9375H299.906ZM341.062 89V36.125H350.906V42.5C351.969 40.4375 353.656 38.5938 355.969 36.9688C358.281 35.2812 361.062 34.4375 364.312 34.4375C367.188 34.4375 369.531 34.8438 371.344 35.6562V45.125C369.281 44.3125 366.938 43.9062 364.312 43.9062C360.188 43.9062 357 45.5 354.75 48.6875C352.562 51.8125 351.469 56 351.469 61.25V89H341.062ZM384.562 74.5625C384.562 76.6875 385.406 78.4688 387.094 79.9062C388.844 81.3438 391.188 82.0625 394.125 82.0625C398.125 82.0625 401.531 80.7812 404.344 78.2188C407.156 75.5938 408.562 72.1875 408.562 68V62.2812C405.688 62.9688 401.906 63.6875 397.219 64.4375C392.969 65.125 389.781 66.2812 387.656 67.9062C385.594 69.5312 384.562 71.75 384.562 74.5625ZM374.062 75.4062C374.062 65.5312 381.531 59.4375 396.469 57.125C402.656 56.1875 406.688 55.4062 408.562 54.7812V51.875C408.562 49.0625 407.531 46.8438 405.469 45.2188C403.469 43.5312 400.75 42.6875 397.312 42.6875C391.25 42.6875 386.094 45.1562 381.844 50.0938L375.469 44.6562C378.156 41.4688 381.375 38.9688 385.125 37.1562C388.938 35.3438 392.938 34.4375 397.125 34.4375C411.625 34.4375 418.875 41.5625 418.875 55.8125V89H408.844V81.6875C407.781 84.125 405.781 86.25 402.844 88.0625C399.906 89.8125 396.5 90.6875 392.625 90.6875C386.875 90.6875 382.344 89.2812 379.031 86.4688C375.719 83.5938 374.062 79.9062 374.062 75.4062ZM428.625 62.4688C428.625 53.7812 430.719 46.9375 434.906 41.9375C439.156 36.9375 444.531 34.4375 451.031 34.4375C454.344 34.4375 457.25 35.3125 459.75 37.0625C462.25 38.8125 464.094 40.8125 465.281 43.0625V13.625H475.594V89H465.562V81.3125C464.375 83.9375 462.469 86.1562 459.844 87.9688C457.281 89.7812 454.344 90.6875 451.031 90.6875C448.281 90.6875 445.625 90.1562 443.062 89.0938C440.562 88.0312 438.188 86.4375 435.938 84.3125C433.75 82.1875 431.969 79.25 430.594 75.5C429.281 71.6875 428.625 67.3438 428.625 62.4688ZM439.125 62.4688C439.125 68.5312 440.344 73.3125 442.781 76.8125C445.281 80.25 448.5 81.9688 452.438 81.9688C456.188 81.9688 459.281 80.2188 461.719 76.7188C464.219 73.2188 465.469 68.4688 465.469 62.4688C465.469 56.6562 464.25 52 461.812 48.5C459.375 45 456.25 43.25 452.438 43.25C448.312 43.25 445.062 45 442.688 48.5C440.312 52 439.125 56.6562 439.125 62.4688ZM496.875 74.5625C496.875 76.6875 497.719 78.4688 499.406 79.9062C501.156 81.3438 503.5 82.0625 506.438 82.0625C510.438 82.0625 513.844 80.7812 516.656 78.2188C519.469 75.5938 520.875 72.1875 520.875 68V62.2812C518 62.9688 514.219 63.6875 509.531 64.4375C505.281 65.125 502.094 66.2812 499.969 67.9062C497.906 69.5312 496.875 71.75 496.875 74.5625ZM486.375 75.4062C486.375 65.5312 493.844 59.4375 508.781 57.125C514.969 56.1875 519 55.4062 520.875 54.7812V51.875C520.875 49.0625 519.844 46.8438 517.781 45.2188C515.781 43.5312 513.062 42.6875 509.625 42.6875C503.562 42.6875 498.406 45.1562 494.156 50.0938L487.781 44.6562C490.469 41.4688 493.688 38.9688 497.438 37.1562C501.25 35.3438 505.25 34.4375 509.438 34.4375C523.938 34.4375 531.188 41.5625 531.188 55.8125V89H521.156V81.6875C520.094 84.125 518.094 86.25 515.156 88.0625C512.219 89.8125 508.812 90.6875 504.938 90.6875C499.188 90.6875 494.656 89.2812 491.344 86.4688C488.031 83.5938 486.375 79.9062 486.375 75.4062ZM540 78.125L547.5 73.8125C551.312 79.4375 556.219 82.25 562.219 82.25C565.406 82.25 567.969 81.625 569.906 80.375C571.844 79.0625 572.812 77.3438 572.812 75.2188C572.812 72.4688 570.75 70.2188 566.625 68.4688C565.312 67.8438 562.344 66.8125 557.719 65.375C555.531 64.6875 553.625 64 552 63.3125C550.438 62.5625 548.812 61.5938 547.125 60.4062C545.5 59.1562 544.25 57.625 543.375 55.8125C542.5 54 542.062 51.9375 542.062 49.625C542.062 45.0625 543.969 41.4062 547.781 38.6562C551.594 35.8438 556.438 34.4375 562.312 34.4375C566.625 34.4375 570.656 35.5938 574.406 37.9062C578.156 40.2188 580.938 43.0625 582.75 46.4375L575.906 50.6562C572.344 45.4688 567.812 42.875 562.312 42.875C559.125 42.875 556.688 43.5312 555 44.8438C553.312 46.0938 552.469 47.75 552.469 49.8125C552.469 50.9375 552.781 51.9688 553.406 52.9062C554.031 53.8438 554.656 54.5938 555.281 55.1562C555.969 55.7188 557.094 56.3438 558.656 57.0312C560.281 57.6562 561.469 58.0938 562.219 58.3438C563.031 58.5938 564.406 59.0312 566.344 59.6562C577.719 63.1562 583.406 68.375 583.406 75.3125C583.406 79.625 581.562 83.2812 577.875 86.2812C574.188 89.2188 569.031 90.6875 562.406 90.6875C557.469 90.6875 553.031 89.5625 549.094 87.3125C545.156 85.0625 542.125 82 540 78.125Z" fill="#006D43"/>
<path d="M177.906 223.094L187.469 219.812C189.281 223 191.844 225.594 195.156 227.594C198.469 229.531 202.188 230.5 206.312 230.5C210.625 230.5 214.125 229.438 216.812 227.312C219.562 225.188 220.938 222.375 220.938 218.875C220.938 217 220.531 215.344 219.719 213.906C218.906 212.406 217.625 211.125 215.875 210.062C214.188 208.938 212.531 208.031 210.906 207.344C209.344 206.656 207.281 205.875 204.719 205C197.344 202.562 192.281 200.5 189.531 198.812C183.531 195.125 180.531 189.938 180.531 183.25C180.531 177.312 182.844 172.531 187.469 168.906C192.094 165.281 198.156 163.469 205.656 163.469C211.719 163.469 216.938 164.875 221.312 167.688C225.688 170.5 228.844 174.062 230.781 178.375L221.781 181.469C217.906 175.594 212.5 172.656 205.562 172.656C201.25 172.656 197.844 173.625 195.344 175.562C192.844 177.438 191.594 179.969 191.594 183.156C191.594 185.594 192.594 187.75 194.594 189.625C196.594 191.5 198.469 192.781 200.219 193.469C201.969 194.156 205.031 195.219 209.406 196.656C210.344 196.969 211.062 197.219 211.562 197.406C214.5 198.406 217.031 199.406 219.156 200.406C221.281 201.406 223.406 202.719 225.531 204.344C227.656 205.969 229.281 207.969 230.406 210.344C231.531 212.719 232.094 215.406 232.094 218.406C232.094 225.094 229.688 230.312 224.875 234.062C220.062 237.812 213.812 239.688 206.125 239.688C199.438 239.688 193.656 238.188 188.781 235.188C183.906 232.188 180.281 228.156 177.906 223.094ZM249.25 223.562C249.25 225.688 250.094 227.469 251.781 228.906C253.531 230.344 255.875 231.062 258.812 231.062C262.812 231.062 266.219 229.781 269.031 227.219C271.844 224.594 273.25 221.188 273.25 217V211.281C270.375 211.969 266.594 212.688 261.906 213.438C257.656 214.125 254.469 215.281 252.344 216.906C250.281 218.531 249.25 220.75 249.25 223.562ZM238.75 224.406C238.75 214.531 246.219 208.438 261.156 206.125C267.344 205.188 271.375 204.406 273.25 203.781V200.875C273.25 198.062 272.219 195.844 270.156 194.219C268.156 192.531 265.438 191.688 262 191.688C255.938 191.688 250.781 194.156 246.531 199.094L240.156 193.656C242.844 190.469 246.062 187.969 249.812 186.156C253.625 184.344 257.625 183.438 261.812 183.438C276.312 183.438 283.562 190.562 283.562 204.812V238H273.531V230.688C272.469 233.125 270.469 235.25 267.531 237.062C264.594 238.812 261.188 239.688 257.312 239.688C251.562 239.688 247.031 238.281 243.719 235.469C240.406 232.594 238.75 228.906 238.75 224.406ZM297.156 238V185.125H307.469V238H297.156ZM294.812 176.219L305.5 158.969H318.25L303.625 176.219H294.812ZM318.531 211.469C318.531 202.781 320.625 195.938 324.812 190.938C329.062 185.938 334.438 183.438 340.938 183.438C344.25 183.438 347.156 184.312 349.656 186.062C352.156 187.812 354 189.812 355.188 192.062V162.625H365.5V238H355.469V230.312C354.281 232.938 352.375 235.156 349.75 236.969C347.188 238.781 344.25 239.688 340.938 239.688C338.188 239.688 335.531 239.156 332.969 238.094C330.469 237.031 328.094 235.438 325.844 233.312C323.656 231.188 321.875 228.25 320.5 224.5C319.188 220.688 318.531 216.344 318.531 211.469ZM329.031 211.469C329.031 217.531 330.25 222.312 332.688 225.812C335.188 229.25 338.406 230.969 342.344 230.969C346.094 230.969 349.188 229.219 351.625 225.719C354.125 222.219 355.375 217.469 355.375 211.469C355.375 205.656 354.156 201 351.719 197.5C349.281 194 346.156 192.25 342.344 192.25C338.219 192.25 334.969 194 332.594 197.5C330.219 201 329.031 205.656 329.031 211.469ZM386.781 223.562C386.781 225.688 387.625 227.469 389.312 228.906C391.062 230.344 393.406 231.062 396.344 231.062C400.344 231.062 403.75 229.781 406.562 227.219C409.375 224.594 410.781 221.188 410.781 217V211.281C407.906 211.969 404.125 212.688 399.438 213.438C395.188 214.125 392 215.281 389.875 216.906C387.812 218.531 386.781 220.75 386.781 223.562ZM376.281 224.406C376.281 214.531 383.75 208.438 398.688 206.125C404.875 205.188 408.906 204.406 410.781 203.781V200.875C410.781 198.062 409.75 195.844 407.688 194.219C405.688 192.531 402.969 191.688 399.531 191.688C393.469 191.688 388.312 194.156 384.062 199.094L377.688 193.656C380.375 190.469 383.594 187.969 387.344 186.156C391.156 184.344 395.156 183.438 399.344 183.438C413.844 183.438 421.094 190.562 421.094 204.812V238H411.062V230.688C410 233.125 408 235.25 405.062 237.062C402.125 238.812 398.719 239.688 394.844 239.688C389.094 239.688 384.562 238.281 381.25 235.469C377.938 232.594 376.281 228.906 376.281 224.406ZM429.906 227.125L437.406 222.812C441.219 228.438 446.125 231.25 452.125 231.25C455.312 231.25 457.875 230.625 459.812 229.375C461.75 228.062 462.719 226.344 462.719 224.219C462.719 221.469 460.656 219.219 456.531 217.469C455.219 216.844 452.25 215.812 447.625 214.375C445.438 213.688 443.531 213 441.906 212.312C440.344 211.562 438.719 210.594 437.031 209.406C435.406 208.156 434.156 206.625 433.281 204.812C432.406 203 431.969 200.938 431.969 198.625C431.969 194.062 433.875 190.406 437.688 187.656C441.5 184.844 446.344 183.438 452.219 183.438C456.531 183.438 460.562 184.594 464.312 186.906C468.062 189.219 470.844 192.062 472.656 195.438L465.812 199.656C462.25 194.469 457.719 191.875 452.219 191.875C449.031 191.875 446.594 192.531 444.906 193.844C443.219 195.094 442.375 196.75 442.375 198.812C442.375 199.938 442.688 200.969 443.312 201.906C443.938 202.844 444.562 203.594 445.188 204.156C445.875 204.719 447 205.344 448.562 206.031C450.188 206.656 451.375 207.094 452.125 207.344C452.938 207.594 454.312 208.031 456.25 208.656C467.625 212.156 473.312 217.375 473.312 224.312C473.312 228.625 471.469 232.281 467.781 235.281C464.094 238.219 458.938 239.688 452.312 239.688C447.375 239.688 442.938 238.562 439 236.312C435.062 234.062 432.031 231 429.906 227.125Z" fill="#FF4545"/>
<rect x="19" y="32" width="65" height="55" fill="#02A767"/>
<rect x="19" y="180" width="65" height="55" fill="#FF4545"/>
</svg>
