<svg width="1801" height="656" viewBox="0 0 1801 656" fill="none" xmlns="http://www.w3.org/2000/svg">
<path d="M262.044 617.909H265.566V638.705C265.566 640.561 265.226 642.137 264.544 643.435C263.862 644.732 262.901 645.717 261.66 646.389C260.42 647.062 258.957 647.398 257.271 647.398C255.68 647.398 254.264 647.109 253.024 646.531C251.783 645.944 250.808 645.111 250.098 644.031C249.388 642.952 249.032 641.669 249.032 640.182H252.498C252.498 641.006 252.702 641.725 253.109 642.341C253.526 642.947 254.094 643.42 254.814 643.761C255.533 644.102 256.352 644.273 257.271 644.273C258.284 644.273 259.146 644.06 259.856 643.634C260.566 643.207 261.106 642.582 261.476 641.759C261.854 640.925 262.044 639.907 262.044 638.705V617.909ZM278.592 647.511C277.209 647.511 275.955 647.251 274.828 646.73C273.701 646.2 272.806 645.438 272.143 644.443C271.48 643.439 271.149 642.227 271.149 640.807C271.149 639.557 271.395 638.544 271.888 637.767C272.38 636.981 273.038 636.366 273.862 635.92C274.686 635.475 275.595 635.144 276.589 634.926C277.593 634.699 278.602 634.519 279.615 634.386C280.941 634.216 282.015 634.088 282.839 634.003C283.673 633.908 284.279 633.752 284.657 633.534C285.046 633.316 285.24 632.937 285.24 632.398V632.284C285.24 630.883 284.856 629.794 284.089 629.017C283.332 628.241 282.181 627.852 280.638 627.852C279.037 627.852 277.782 628.203 276.873 628.903C275.964 629.604 275.325 630.352 274.956 631.148L271.774 630.011C272.342 628.686 273.1 627.653 274.047 626.915C275.003 626.167 276.045 625.646 277.172 625.352C278.308 625.049 279.425 624.898 280.524 624.898C281.225 624.898 282.03 624.983 282.939 625.153C283.857 625.314 284.743 625.651 285.595 626.162C286.457 626.673 287.172 627.445 287.74 628.477C288.308 629.509 288.592 630.892 288.592 632.625V647H285.24V644.045H285.069C284.842 644.519 284.463 645.026 283.933 645.565C283.403 646.105 282.697 646.564 281.816 646.943C280.936 647.322 279.861 647.511 278.592 647.511ZM279.103 644.5C280.429 644.5 281.547 644.24 282.456 643.719C283.374 643.198 284.066 642.526 284.53 641.702C285.003 640.878 285.24 640.011 285.24 639.102V636.034C285.098 636.205 284.785 636.361 284.302 636.503C283.829 636.635 283.28 636.754 282.655 636.858C282.039 636.953 281.438 637.038 280.851 637.114C280.273 637.18 279.804 637.237 279.444 637.284C278.573 637.398 277.759 637.582 277.001 637.838C276.253 638.084 275.647 638.458 275.183 638.96C274.728 639.453 274.501 640.125 274.501 640.977C274.501 642.142 274.932 643.023 275.794 643.619C276.665 644.206 277.768 644.5 279.103 644.5ZM298.063 633.875V647H294.711V625.182H297.949V628.591H298.233C298.745 627.483 299.521 626.593 300.563 625.92C301.605 625.239 302.949 624.898 304.597 624.898C306.074 624.898 307.367 625.201 308.475 625.807C309.583 626.403 310.445 627.312 311.06 628.534C311.676 629.746 311.983 631.28 311.983 633.136V647H308.631V633.364C308.631 631.65 308.186 630.314 307.296 629.358C306.406 628.392 305.184 627.909 303.631 627.909C302.561 627.909 301.605 628.141 300.762 628.605C299.928 629.069 299.27 629.746 298.787 630.636C298.304 631.527 298.063 632.606 298.063 633.875Z" fill="black"/>
<path d="M480.156 647V617.909H497.599V621.034H483.678V630.864H496.292V633.989H483.678V647H480.156ZM510.724 647.455C508.622 647.455 506.808 646.991 505.284 646.062C503.768 645.125 502.599 643.818 501.775 642.142C500.961 640.456 500.553 638.496 500.553 636.261C500.553 634.027 500.961 632.057 501.775 630.352C502.599 628.638 503.745 627.303 505.212 626.347C506.69 625.381 508.413 624.898 510.383 624.898C511.519 624.898 512.641 625.087 513.749 625.466C514.857 625.845 515.866 626.46 516.775 627.312C517.684 628.155 518.409 629.273 518.948 630.665C519.488 632.057 519.758 633.771 519.758 635.807V637.227H502.94V634.33H516.349C516.349 633.098 516.103 632 515.61 631.034C515.127 630.068 514.436 629.306 513.536 628.747C512.646 628.188 511.595 627.909 510.383 627.909C509.048 627.909 507.892 628.241 506.917 628.903C505.951 629.557 505.208 630.409 504.687 631.46C504.166 632.511 503.906 633.638 503.906 634.841V636.773C503.906 638.42 504.19 639.817 504.758 640.963C505.336 642.099 506.136 642.966 507.159 643.562C508.181 644.15 509.37 644.443 510.724 644.443C511.605 644.443 512.4 644.32 513.11 644.074C513.83 643.818 514.45 643.439 514.971 642.938C515.492 642.426 515.894 641.792 516.178 641.034L519.417 641.943C519.076 643.042 518.503 644.008 517.698 644.841C516.893 645.665 515.899 646.309 514.715 646.773C513.532 647.227 512.201 647.455 510.724 647.455ZM542.034 625.182L533.966 647H530.557L522.489 625.182H526.125L532.148 642.568H532.375L538.398 625.182H542.034Z" fill="black"/>
<path d="M720.463 617.909H724.667L734.553 642.057H734.894L744.781 617.909H748.985V647H745.69V624.898H745.406L736.315 647H733.133L724.042 624.898H723.758V647H720.463V617.909ZM762.014 647.511C760.632 647.511 759.377 647.251 758.25 646.73C757.123 646.2 756.228 645.438 755.566 644.443C754.903 643.439 754.571 642.227 754.571 640.807C754.571 639.557 754.817 638.544 755.31 637.767C755.802 636.981 756.46 636.366 757.284 635.92C758.108 635.475 759.017 635.144 760.012 634.926C761.015 634.699 762.024 634.519 763.037 634.386C764.363 634.216 765.438 634.088 766.262 634.003C767.095 633.908 767.701 633.752 768.08 633.534C768.468 633.316 768.662 632.937 768.662 632.398V632.284C768.662 630.883 768.279 629.794 767.512 629.017C766.754 628.241 765.603 627.852 764.06 627.852C762.459 627.852 761.205 628.203 760.296 628.903C759.387 629.604 758.747 630.352 758.378 631.148L755.196 630.011C755.764 628.686 756.522 627.653 757.469 626.915C758.425 626.167 759.467 625.646 760.594 625.352C761.73 625.049 762.848 624.898 763.946 624.898C764.647 624.898 765.452 624.983 766.361 625.153C767.28 625.314 768.165 625.651 769.017 626.162C769.879 626.673 770.594 627.445 771.162 628.477C771.73 629.509 772.014 630.892 772.014 632.625V647H768.662V644.045H768.492C768.264 644.519 767.886 645.026 767.355 645.565C766.825 646.105 766.119 646.564 765.239 646.943C764.358 647.322 763.283 647.511 762.014 647.511ZM762.526 644.5C763.852 644.5 764.969 644.24 765.878 643.719C766.797 643.198 767.488 642.526 767.952 641.702C768.425 640.878 768.662 640.011 768.662 639.102V636.034C768.52 636.205 768.208 636.361 767.725 636.503C767.251 636.635 766.702 636.754 766.077 636.858C765.461 636.953 764.86 637.038 764.273 637.114C763.695 637.18 763.227 637.237 762.867 637.284C761.995 637.398 761.181 637.582 760.423 637.838C759.675 638.084 759.069 638.458 758.605 638.96C758.151 639.453 757.923 640.125 757.923 640.977C757.923 642.142 758.354 643.023 759.216 643.619C760.087 644.206 761.191 644.5 762.526 644.5ZM778.133 647V625.182H781.372V628.477H781.599C781.997 627.398 782.716 626.522 783.758 625.849C784.8 625.177 785.974 624.841 787.281 624.841C787.527 624.841 787.835 624.846 788.204 624.855C788.573 624.865 788.853 624.879 789.042 624.898V628.307C788.928 628.278 788.668 628.236 788.261 628.179C787.863 628.113 787.442 628.08 786.997 628.08C785.936 628.08 784.989 628.302 784.156 628.747C783.332 629.183 782.678 629.789 782.195 630.565C781.722 631.332 781.485 632.208 781.485 633.193V647H778.133Z" fill="black"/>
<path d="M960.256 647H956.562L967.244 617.909H970.881L981.562 647H977.869L969.176 622.511H968.949L960.256 647ZM961.619 635.636H976.506V638.761H961.619V635.636ZM986.094 647V617.909H989.446V628.648H989.73C989.976 628.269 990.317 627.786 990.753 627.199C991.198 626.602 991.832 626.072 992.656 625.608C993.489 625.134 994.616 624.898 996.037 624.898C997.874 624.898 999.493 625.357 1000.89 626.276C1002.3 627.194 1003.39 628.496 1004.18 630.182C1004.96 631.867 1005.35 633.856 1005.35 636.148C1005.35 638.458 1004.96 640.461 1004.18 642.156C1003.39 643.842 1002.3 645.149 1000.91 646.077C999.517 646.995 997.912 647.455 996.094 647.455C994.692 647.455 993.57 647.223 992.727 646.759C991.884 646.285 991.236 645.75 990.781 645.153C990.327 644.547 989.976 644.045 989.73 643.648H989.332V647H986.094ZM989.389 636.091C989.389 637.739 989.631 639.192 990.114 640.452C990.596 641.702 991.302 642.682 992.23 643.392C993.158 644.093 994.294 644.443 995.639 644.443C997.041 644.443 998.21 644.074 999.148 643.335C1000.09 642.587 1000.8 641.583 1001.28 640.324C1001.76 639.055 1002 637.644 1002 636.091C1002 634.557 1001.77 633.174 1001.29 631.943C1000.83 630.703 1000.12 629.723 999.176 629.003C998.239 628.274 997.06 627.909 995.639 627.909C994.275 627.909 993.13 628.255 992.202 628.946C991.274 629.628 990.573 630.584 990.099 631.815C989.626 633.037 989.389 634.462 989.389 636.091ZM1010.48 647V625.182H1013.72V628.477H1013.95C1014.35 627.398 1015.07 626.522 1016.11 625.849C1017.15 625.177 1018.32 624.841 1019.63 624.841C1019.88 624.841 1020.18 624.846 1020.55 624.855C1020.92 624.865 1021.2 624.879 1021.39 624.898V628.307C1021.28 628.278 1021.02 628.236 1020.61 628.179C1020.21 628.113 1019.79 628.08 1019.35 628.08C1018.29 628.08 1017.34 628.302 1016.51 628.747C1015.68 629.183 1015.03 629.789 1014.55 630.565C1014.07 631.332 1013.84 632.208 1013.84 633.193V647H1010.48Z" fill="black"/>
<path d="M1205.04 618.909H1209.24L1219.13 643.057H1219.47L1229.36 618.909H1233.56V648H1230.27V625.898H1229.98L1220.89 648H1217.71L1208.62 625.898H1208.34V648H1205.04V618.909ZM1246.59 648.511C1245.21 648.511 1243.95 648.251 1242.83 647.73C1241.7 647.2 1240.81 646.438 1240.14 645.443C1239.48 644.439 1239.15 643.227 1239.15 641.807C1239.15 640.557 1239.39 639.544 1239.89 638.767C1240.38 637.981 1241.04 637.366 1241.86 636.92C1242.69 636.475 1243.59 636.144 1244.59 635.926C1245.59 635.699 1246.6 635.519 1247.61 635.386C1248.94 635.216 1250.01 635.088 1250.84 635.003C1251.67 634.908 1252.28 634.752 1252.66 634.534C1253.05 634.316 1253.24 633.937 1253.24 633.398V633.284C1253.24 631.883 1252.86 630.794 1252.09 630.017C1251.33 629.241 1250.18 628.852 1248.64 628.852C1247.04 628.852 1245.78 629.203 1244.87 629.903C1243.96 630.604 1243.32 631.352 1242.96 632.148L1239.77 631.011C1240.34 629.686 1241.1 628.653 1242.05 627.915C1243 627.167 1244.04 626.646 1245.17 626.352C1246.31 626.049 1247.42 625.898 1248.52 625.898C1249.22 625.898 1250.03 625.983 1250.94 626.153C1251.86 626.314 1252.74 626.651 1253.59 627.162C1254.46 627.673 1255.17 628.445 1255.74 629.477C1256.31 630.509 1256.59 631.892 1256.59 633.625V648H1253.24V645.045H1253.07C1252.84 645.519 1252.46 646.026 1251.93 646.565C1251.4 647.105 1250.7 647.564 1249.82 647.943C1248.94 648.322 1247.86 648.511 1246.59 648.511ZM1247.1 645.5C1248.43 645.5 1249.55 645.24 1250.46 644.719C1251.37 644.198 1252.07 643.526 1252.53 642.702C1253 641.878 1253.24 641.011 1253.24 640.102V637.034C1253.1 637.205 1252.78 637.361 1252.3 637.503C1251.83 637.635 1251.28 637.754 1250.65 637.858C1250.04 637.953 1249.44 638.038 1248.85 638.114C1248.27 638.18 1247.8 638.237 1247.44 638.284C1246.57 638.398 1245.76 638.582 1245 638.838C1244.25 639.084 1243.65 639.458 1243.18 639.96C1242.73 640.453 1242.5 641.125 1242.5 641.977C1242.5 643.142 1242.93 644.023 1243.79 644.619C1244.66 645.206 1245.77 645.5 1247.1 645.5ZM1262.71 648V626.182H1266.06V648H1262.71ZM1264.41 622.545C1263.76 622.545 1263.2 622.323 1262.72 621.878C1262.26 621.433 1262.03 620.898 1262.03 620.273C1262.03 619.648 1262.26 619.113 1262.72 618.668C1263.2 618.223 1263.76 618 1264.41 618C1265.07 618 1265.63 618.223 1266.09 618.668C1266.56 619.113 1266.8 619.648 1266.8 620.273C1266.8 620.898 1266.56 621.433 1266.09 621.878C1265.63 622.323 1265.07 622.545 1264.41 622.545Z" fill="black"/>
<path d="M1459.3 620.909H1462.82V641.705C1462.82 643.561 1462.48 645.137 1461.8 646.435C1461.12 647.732 1460.16 648.717 1458.92 649.389C1457.68 650.062 1456.21 650.398 1454.53 650.398C1452.94 650.398 1451.52 650.109 1450.28 649.531C1449.04 648.944 1448.06 648.111 1447.35 647.031C1446.64 645.952 1446.29 644.669 1446.29 643.182H1449.75C1449.75 644.006 1449.96 644.725 1450.37 645.341C1450.78 645.947 1451.35 646.42 1452.07 646.761C1452.79 647.102 1453.61 647.273 1454.53 647.273C1455.54 647.273 1456.4 647.06 1457.11 646.634C1457.82 646.207 1458.36 645.582 1458.73 644.759C1459.11 643.925 1459.3 642.907 1459.3 641.705V620.909ZM1483.18 641.08V628.182H1486.53V650H1483.18V646.307H1482.95C1482.44 647.415 1481.64 648.357 1480.56 649.134C1479.48 649.901 1478.12 650.284 1476.47 650.284C1475.11 650.284 1473.9 649.986 1472.84 649.389C1471.78 648.783 1470.94 647.874 1470.34 646.662C1469.73 645.44 1469.43 643.902 1469.43 642.045V628.182H1472.78V641.818C1472.78 643.409 1473.22 644.678 1474.12 645.625C1475.01 646.572 1476.16 647.045 1477.55 647.045C1478.39 647.045 1479.23 646.832 1480.1 646.406C1480.97 645.98 1481.7 645.327 1482.28 644.446C1482.88 643.565 1483.18 642.443 1483.18 641.08ZM1496.02 636.875V650H1492.67V628.182H1495.91V631.591H1496.19C1496.7 630.483 1497.48 629.593 1498.52 628.92C1499.56 628.239 1500.91 627.898 1502.56 627.898C1504.03 627.898 1505.33 628.201 1506.43 628.807C1507.54 629.403 1508.4 630.312 1509.02 631.534C1509.63 632.746 1509.94 634.28 1509.94 636.136V650H1506.59V636.364C1506.59 634.65 1506.15 633.314 1505.25 632.358C1504.36 631.392 1503.14 630.909 1501.59 630.909C1500.52 630.909 1499.56 631.141 1498.72 631.605C1497.89 632.069 1497.23 632.746 1496.75 633.636C1496.26 634.527 1496.02 635.606 1496.02 636.875Z" fill="black"/>
<path d="M1685.85 617.909H1689.37V638.705C1689.37 640.561 1689.03 642.137 1688.35 643.435C1687.67 644.732 1686.71 645.717 1685.47 646.389C1684.23 647.062 1682.76 647.398 1681.08 647.398C1679.49 647.398 1678.07 647.109 1676.83 646.531C1675.59 645.944 1674.61 645.111 1673.9 644.031C1673.19 642.952 1672.84 641.669 1672.84 640.182H1676.3C1676.3 641.006 1676.51 641.725 1676.92 642.341C1677.33 642.947 1677.9 643.42 1678.62 643.761C1679.34 644.102 1680.16 644.273 1681.08 644.273C1682.09 644.273 1682.95 644.06 1683.66 643.634C1684.37 643.207 1684.91 642.582 1685.28 641.759C1685.66 640.925 1685.85 639.907 1685.85 638.705V617.909ZM1709.73 638.08V625.182H1713.08V647H1709.73V643.307H1709.5C1708.99 644.415 1708.19 645.357 1707.11 646.134C1706.04 646.901 1704.67 647.284 1703.02 647.284C1701.66 647.284 1700.45 646.986 1699.39 646.389C1698.33 645.783 1697.49 644.874 1696.89 643.662C1696.28 642.44 1695.98 640.902 1695.98 639.045V625.182H1699.33V638.818C1699.33 640.409 1699.78 641.678 1700.67 642.625C1701.57 643.572 1702.71 644.045 1704.1 644.045C1704.94 644.045 1705.78 643.832 1706.65 643.406C1707.52 642.98 1708.25 642.327 1708.83 641.446C1709.43 640.565 1709.73 639.443 1709.73 638.08ZM1722.57 617.909V647H1719.22V617.909H1722.57Z" fill="black"/>
<line x1="134" y1="555.5" x2="1801" y2="555.5" stroke="#999999"/>
<line x1="134" y1="443.5" x2="1801" y2="443.5" stroke="#999999"/>
<line x1="134" y1="338.5" x2="1801" y2="338.5" stroke="#999999"/>
<line x1="134" y1="236.5" x2="1801" y2="236.5" stroke="#999999"/>
<line x1="134" y1="117.5" x2="1801" y2="117.5" stroke="#999999"/>
<line x1="134" y1="18.5" x2="1801" y2="18.5" stroke="#999999"/>
<path d="M37.7663 466.398C36.0997 466.398 34.5987 466.066 33.2635 465.403C31.9283 464.741 30.8582 463.831 30.0533 462.676C29.2483 461.521 28.808 460.205 28.7322 458.727H32.1413C32.2739 460.044 32.8705 461.133 33.9311 461.994C35.0012 462.847 36.2796 463.273 37.7663 463.273C38.9595 463.273 40.0201 462.993 40.9482 462.435C41.8857 461.876 42.6196 461.109 43.1499 460.134C43.6896 459.149 43.9595 458.036 43.9595 456.795C43.9595 455.527 43.6802 454.395 43.1214 453.401C42.5722 452.397 41.8146 451.606 40.8487 451.028C39.8828 450.451 38.7796 450.157 37.5391 450.148C36.6489 450.138 35.7351 450.276 34.7976 450.56C33.8601 450.834 33.0883 451.189 32.4822 451.625L29.1868 451.227L30.9482 436.909H46.0618V440.034H33.9027L32.88 448.614H33.0504C33.647 448.14 34.3951 447.747 35.2947 447.435C36.1944 447.122 37.1319 446.966 38.1072 446.966C39.8875 446.966 41.4737 447.392 42.8658 448.244C44.2673 449.087 45.3658 450.242 46.1612 451.71C46.9661 453.178 47.3686 454.854 47.3686 456.739C47.3686 458.595 46.9519 460.252 46.1186 461.71C45.2947 463.159 44.1584 464.305 42.7095 465.148C41.2607 465.981 39.6129 466.398 37.7663 466.398ZM62.5 466.398C60.3598 466.398 58.5369 465.815 57.0312 464.651C55.5256 463.476 54.375 461.777 53.5795 459.551C52.7841 457.316 52.3864 454.617 52.3864 451.455C52.3864 448.311 52.7841 445.626 53.5795 443.401C54.3845 441.166 55.5398 439.461 57.0455 438.287C58.5606 437.103 60.3788 436.511 62.5 436.511C64.6212 436.511 66.4347 437.103 67.9403 438.287C69.4555 439.461 70.6108 441.166 71.4062 443.401C72.2112 445.626 72.6136 448.311 72.6136 451.455C72.6136 454.617 72.2159 457.316 71.4205 459.551C70.625 461.777 69.4744 463.476 67.9688 464.651C66.4631 465.815 64.6402 466.398 62.5 466.398ZM62.5 463.273C64.6212 463.273 66.2689 462.25 67.4432 460.205C68.6174 458.159 69.2045 455.242 69.2045 451.455C69.2045 448.936 68.9347 446.791 68.3949 445.02C67.8646 443.249 67.0975 441.9 66.0938 440.972C65.0994 440.044 63.9015 439.58 62.5 439.58C60.3977 439.58 58.7547 440.616 57.571 442.69C56.3873 444.755 55.7955 447.676 55.7955 451.455C55.7955 453.973 56.0606 456.114 56.5909 457.875C57.1212 459.636 57.8835 460.976 58.8778 461.895C59.8816 462.813 61.089 463.273 62.5 463.273ZM87.5 466.398C85.3598 466.398 83.5369 465.815 82.0312 464.651C80.5256 463.476 79.375 461.777 78.5795 459.551C77.7841 457.316 77.3864 454.617 77.3864 451.455C77.3864 448.311 77.7841 445.626 78.5795 443.401C79.3845 441.166 80.5398 439.461 82.0455 438.287C83.5606 437.103 85.3788 436.511 87.5 436.511C89.6212 436.511 91.4347 437.103 92.9403 438.287C94.4555 439.461 95.6108 441.166 96.4062 443.401C97.2112 445.626 97.6136 448.311 97.6136 451.455C97.6136 454.617 97.2159 457.316 96.4205 459.551C95.625 461.777 94.4744 463.476 92.9688 464.651C91.4631 465.815 89.6402 466.398 87.5 466.398ZM87.5 463.273C89.6212 463.273 91.2689 462.25 92.4432 460.205C93.6174 458.159 94.2045 455.242 94.2045 451.455C94.2045 448.936 93.9347 446.791 93.3949 445.02C92.8646 443.249 92.0975 441.9 91.0938 440.972C90.0994 440.044 88.9015 439.58 87.5 439.58C85.3977 439.58 83.7547 440.616 82.571 442.69C81.3873 444.755 80.7955 447.676 80.7955 451.455C80.7955 453.973 81.0606 456.114 81.5909 457.875C82.1212 459.636 82.8835 460.976 83.8778 461.895C84.8816 462.813 86.089 463.273 87.5 463.273Z" fill="black"/>
<path d="M19.6449 331.909V361H16.1222V335.602H15.9517L8.84943 340.318V336.739L16.1222 331.909H19.6449ZM37.5 361.398C35.3598 361.398 33.5369 360.815 32.0312 359.651C30.5256 358.476 29.375 356.777 28.5795 354.551C27.7841 352.316 27.3864 349.617 27.3864 346.455C27.3864 343.311 27.7841 340.626 28.5795 338.401C29.3845 336.166 30.5398 334.461 32.0455 333.287C33.5606 332.103 35.3788 331.511 37.5 331.511C39.6212 331.511 41.4347 332.103 42.9403 333.287C44.4555 334.461 45.6108 336.166 46.4062 338.401C47.2112 340.626 47.6136 343.311 47.6136 346.455C47.6136 349.617 47.2159 352.316 46.4205 354.551C45.625 356.777 44.4744 358.476 42.9688 359.651C41.4631 360.815 39.6402 361.398 37.5 361.398ZM37.5 358.273C39.6212 358.273 41.2689 357.25 42.4432 355.205C43.6174 353.159 44.2045 350.242 44.2045 346.455C44.2045 343.936 43.9347 341.791 43.3949 340.02C42.8646 338.249 42.0975 336.9 41.0938 335.972C40.0994 335.044 38.9015 334.58 37.5 334.58C35.3977 334.58 33.7547 335.616 32.571 337.69C31.3873 339.755 30.7955 342.676 30.7955 346.455C30.7955 348.973 31.0606 351.114 31.5909 352.875C32.1212 354.636 32.8835 355.976 33.8778 356.895C34.8816 357.813 36.089 358.273 37.5 358.273ZM62.5 361.398C60.3598 361.398 58.5369 360.815 57.0312 359.651C55.5256 358.476 54.375 356.777 53.5795 354.551C52.7841 352.316 52.3864 349.617 52.3864 346.455C52.3864 343.311 52.7841 340.626 53.5795 338.401C54.3845 336.166 55.5398 334.461 57.0455 333.287C58.5606 332.103 60.3788 331.511 62.5 331.511C64.6212 331.511 66.4347 332.103 67.9403 333.287C69.4555 334.461 70.6108 336.166 71.4062 338.401C72.2112 340.626 72.6136 343.311 72.6136 346.455C72.6136 349.617 72.2159 352.316 71.4205 354.551C70.625 356.777 69.4744 358.476 67.9688 359.651C66.4631 360.815 64.6402 361.398 62.5 361.398ZM62.5 358.273C64.6212 358.273 66.2689 357.25 67.4432 355.205C68.6174 353.159 69.2045 350.242 69.2045 346.455C69.2045 343.936 68.9347 341.791 68.3949 340.02C67.8646 338.249 67.0975 336.9 66.0938 335.972C65.0994 335.044 63.9015 334.58 62.5 334.58C60.3977 334.58 58.7547 335.616 57.571 337.69C56.3873 339.755 55.7955 342.676 55.7955 346.455C55.7955 348.973 56.0606 351.114 56.5909 352.875C57.1212 354.636 57.8835 355.976 58.8778 356.895C59.8816 357.813 61.089 358.273 62.5 358.273ZM87.5 361.398C85.3598 361.398 83.5369 360.815 82.0312 359.651C80.5256 358.476 79.375 356.777 78.5795 354.551C77.7841 352.316 77.3864 349.617 77.3864 346.455C77.3864 343.311 77.7841 340.626 78.5795 338.401C79.3845 336.166 80.5398 334.461 82.0455 333.287C83.5606 332.103 85.3788 331.511 87.5 331.511C89.6212 331.511 91.4347 332.103 92.9403 333.287C94.4555 334.461 95.6108 336.166 96.4062 338.401C97.2112 340.626 97.6136 343.311 97.6136 346.455C97.6136 349.617 97.2159 352.316 96.4205 354.551C95.625 356.777 94.4744 358.476 92.9688 359.651C91.4631 360.815 89.6402 361.398 87.5 361.398ZM87.5 358.273C89.6212 358.273 91.2689 357.25 92.4432 355.205C93.6174 353.159 94.2045 350.242 94.2045 346.455C94.2045 343.936 93.9347 341.791 93.3949 340.02C92.8646 338.249 92.0975 336.9 91.0938 335.972C90.0994 335.044 88.9015 334.58 87.5 334.58C85.3977 334.58 83.7547 335.616 82.571 337.69C81.3873 339.755 80.7955 342.676 80.7955 346.455C80.7955 348.973 81.0606 351.114 81.5909 352.875C82.1212 354.636 82.8835 355.976 83.8778 356.895C84.8816 357.813 86.089 358.273 87.5 358.273Z" fill="black"/>
<path d="M20.3089 221.909V251H16.7862V225.602H16.6158L9.51349 230.318V226.739L16.7862 221.909H20.3089ZM37.7663 251.398C36.0997 251.398 34.5987 251.066 33.2635 250.403C31.9283 249.741 30.8582 248.831 30.0533 247.676C29.2483 246.521 28.808 245.205 28.7322 243.727H32.1413C32.2739 245.044 32.8705 246.133 33.9311 246.994C35.0012 247.847 36.2796 248.273 37.7663 248.273C38.9595 248.273 40.0201 247.993 40.9482 247.435C41.8857 246.876 42.6196 246.109 43.1499 245.134C43.6896 244.149 43.9595 243.036 43.9595 241.795C43.9595 240.527 43.6802 239.395 43.1214 238.401C42.5722 237.397 41.8146 236.606 40.8487 236.028C39.8828 235.451 38.7796 235.157 37.5391 235.148C36.6489 235.138 35.7351 235.276 34.7976 235.56C33.8601 235.834 33.0883 236.189 32.4822 236.625L29.1868 236.227L30.9482 221.909H46.0618V225.034H33.9027L32.88 233.614H33.0504C33.647 233.14 34.3951 232.747 35.2947 232.435C36.1944 232.122 37.1319 231.966 38.1072 231.966C39.8875 231.966 41.4737 232.392 42.8658 233.244C44.2673 234.087 45.3658 235.242 46.1612 236.71C46.9661 238.178 47.3686 239.854 47.3686 241.739C47.3686 243.595 46.9519 245.252 46.1186 246.71C45.2947 248.159 44.1584 249.305 42.7095 250.148C41.2607 250.981 39.6129 251.398 37.7663 251.398ZM62.5 251.398C60.3598 251.398 58.5369 250.815 57.0312 249.651C55.5256 248.476 54.375 246.777 53.5795 244.551C52.7841 242.316 52.3864 239.617 52.3864 236.455C52.3864 233.311 52.7841 230.626 53.5795 228.401C54.3845 226.166 55.5398 224.461 57.0455 223.287C58.5606 222.103 60.3788 221.511 62.5 221.511C64.6212 221.511 66.4347 222.103 67.9403 223.287C69.4555 224.461 70.6108 226.166 71.4062 228.401C72.2112 230.626 72.6136 233.311 72.6136 236.455C72.6136 239.617 72.2159 242.316 71.4205 244.551C70.625 246.777 69.4744 248.476 67.9688 249.651C66.4631 250.815 64.6402 251.398 62.5 251.398ZM62.5 248.273C64.6212 248.273 66.2689 247.25 67.4432 245.205C68.6174 243.159 69.2045 240.242 69.2045 236.455C69.2045 233.936 68.9347 231.791 68.3949 230.02C67.8646 228.249 67.0975 226.9 66.0938 225.972C65.0994 225.044 63.9015 224.58 62.5 224.58C60.3977 224.58 58.7547 225.616 57.571 227.69C56.3873 229.755 55.7955 232.676 55.7955 236.455C55.7955 238.973 56.0606 241.114 56.5909 242.875C57.1212 244.636 57.8835 245.976 58.8778 246.895C59.8816 247.813 61.089 248.273 62.5 248.273ZM87.5 251.398C85.3598 251.398 83.5369 250.815 82.0312 249.651C80.5256 248.476 79.375 246.777 78.5795 244.551C77.7841 242.316 77.3864 239.617 77.3864 236.455C77.3864 233.311 77.7841 230.626 78.5795 228.401C79.3845 226.166 80.5398 224.461 82.0455 223.287C83.5606 222.103 85.3788 221.511 87.5 221.511C89.6212 221.511 91.4347 222.103 92.9403 223.287C94.4555 224.461 95.6108 226.166 96.4062 228.401C97.2112 230.626 97.6136 233.311 97.6136 236.455C97.6136 239.617 97.2159 242.316 96.4205 244.551C95.625 246.777 94.4744 248.476 92.9688 249.651C91.4631 250.815 89.6402 251.398 87.5 251.398ZM87.5 248.273C89.6212 248.273 91.2689 247.25 92.4432 245.205C93.6174 243.159 94.2045 240.242 94.2045 236.455C94.2045 233.936 93.9347 231.791 93.3949 230.02C92.8646 228.249 92.0975 226.9 91.0938 225.972C90.0994 225.044 88.9015 224.58 87.5 224.58C85.3977 224.58 83.7547 225.616 82.571 227.69C81.3873 229.755 80.7955 232.676 80.7955 236.455C80.7955 238.973 81.0606 241.114 81.5909 242.875C82.1212 244.636 82.8835 245.976 83.8778 246.895C84.8816 247.813 86.089 248.273 87.5 248.273Z" fill="black"/>
<path d="M3.79261 140V137.443L13.3949 126.932C14.5218 125.701 15.4498 124.631 16.179 123.722C16.9081 122.803 17.4479 121.941 17.7983 121.136C18.1581 120.322 18.3381 119.47 18.3381 118.58C18.3381 117.557 18.0919 116.671 17.5994 115.923C17.1165 115.175 16.4536 114.598 15.6108 114.19C14.768 113.783 13.821 113.58 12.7699 113.58C11.6525 113.58 10.6771 113.812 9.84375 114.276C9.01989 114.73 8.38068 115.369 7.92614 116.193C7.48106 117.017 7.25852 117.983 7.25852 119.091H3.90625C3.90625 117.386 4.29924 115.89 5.08523 114.602C5.87121 113.314 6.94129 112.311 8.29545 111.591C9.65909 110.871 11.1884 110.511 12.8835 110.511C14.5881 110.511 16.0985 110.871 17.4148 111.591C18.7311 112.311 19.7633 113.281 20.5114 114.503C21.2595 115.724 21.6335 117.083 21.6335 118.58C21.6335 119.65 21.4394 120.696 21.0511 121.719C20.6723 122.732 20.0095 123.864 19.0625 125.114C18.125 126.354 16.8229 127.869 15.1562 129.659L8.62216 136.648V136.875H22.1449V140H3.79261ZM37.5 140.398C35.3598 140.398 33.5369 139.815 32.0312 138.651C30.5256 137.476 29.375 135.777 28.5795 133.551C27.7841 131.316 27.3864 128.617 27.3864 125.455C27.3864 122.311 27.7841 119.626 28.5795 117.401C29.3845 115.166 30.5398 113.461 32.0455 112.287C33.5606 111.103 35.3788 110.511 37.5 110.511C39.6212 110.511 41.4347 111.103 42.9403 112.287C44.4555 113.461 45.6108 115.166 46.4062 117.401C47.2112 119.626 47.6136 122.311 47.6136 125.455C47.6136 128.617 47.2159 131.316 46.4205 133.551C45.625 135.777 44.4744 137.476 42.9688 138.651C41.4631 139.815 39.6402 140.398 37.5 140.398ZM37.5 137.273C39.6212 137.273 41.2689 136.25 42.4432 134.205C43.6174 132.159 44.2045 129.242 44.2045 125.455C44.2045 122.936 43.9347 120.791 43.3949 119.02C42.8646 117.249 42.0975 115.9 41.0938 114.972C40.0994 114.044 38.9015 113.58 37.5 113.58C35.3977 113.58 33.7547 114.616 32.571 116.69C31.3873 118.755 30.7955 121.676 30.7955 125.455C30.7955 127.973 31.0606 130.114 31.5909 131.875C32.1212 133.636 32.8835 134.976 33.8778 135.895C34.8816 136.813 36.089 137.273 37.5 137.273ZM62.5 140.398C60.3598 140.398 58.5369 139.815 57.0312 138.651C55.5256 137.476 54.375 135.777 53.5795 133.551C52.7841 131.316 52.3864 128.617 52.3864 125.455C52.3864 122.311 52.7841 119.626 53.5795 117.401C54.3845 115.166 55.5398 113.461 57.0455 112.287C58.5606 111.103 60.3788 110.511 62.5 110.511C64.6212 110.511 66.4347 111.103 67.9403 112.287C69.4555 113.461 70.6108 115.166 71.4062 117.401C72.2112 119.626 72.6136 122.311 72.6136 125.455C72.6136 128.617 72.2159 131.316 71.4205 133.551C70.625 135.777 69.4744 137.476 67.9688 138.651C66.4631 139.815 64.6402 140.398 62.5 140.398ZM62.5 137.273C64.6212 137.273 66.2689 136.25 67.4432 134.205C68.6174 132.159 69.2045 129.242 69.2045 125.455C69.2045 122.936 68.9347 120.791 68.3949 119.02C67.8646 117.249 67.0975 115.9 66.0938 114.972C65.0994 114.044 63.9015 113.58 62.5 113.58C60.3977 113.58 58.7547 114.616 57.571 116.69C56.3873 118.755 55.7955 121.676 55.7955 125.455C55.7955 127.973 56.0606 130.114 56.5909 131.875C57.1212 133.636 57.8835 134.976 58.8778 135.895C59.8816 136.813 61.089 137.273 62.5 137.273ZM87.5 140.398C85.3598 140.398 83.5369 139.815 82.0312 138.651C80.5256 137.476 79.375 135.777 78.5795 133.551C77.7841 131.316 77.3864 128.617 77.3864 125.455C77.3864 122.311 77.7841 119.626 78.5795 117.401C79.3845 115.166 80.5398 113.461 82.0455 112.287C83.5606 111.103 85.3788 110.511 87.5 110.511C89.6212 110.511 91.4347 111.103 92.9403 112.287C94.4555 113.461 95.6108 115.166 96.4062 117.401C97.2112 119.626 97.6136 122.311 97.6136 125.455C97.6136 128.617 97.2159 131.316 96.4205 133.551C95.625 135.777 94.4744 137.476 92.9688 138.651C91.4631 139.815 89.6402 140.398 87.5 140.398ZM87.5 137.273C89.6212 137.273 91.2689 136.25 92.4432 134.205C93.6174 132.159 94.2045 129.242 94.2045 125.455C94.2045 122.936 93.9347 120.791 93.3949 119.02C92.8646 117.249 92.0975 115.9 91.0938 114.972C90.0994 114.044 88.9015 113.58 87.5 113.58C85.3977 113.58 83.7547 114.616 82.571 116.69C81.3873 118.755 80.7955 121.676 80.7955 125.455C80.7955 127.973 81.0606 130.114 81.5909 131.875C82.1212 133.636 82.8835 134.976 83.8778 135.895C84.8816 136.813 86.089 137.273 87.5 137.273Z" fill="black"/>
<path d="M4.45668 39V36.4432L14.0589 25.9318C15.1858 24.7008 16.1139 23.6307 16.843 22.7216C17.5722 21.803 18.112 20.9413 18.4624 20.1364C18.8222 19.322 19.0021 18.4697 19.0021 17.5795C19.0021 16.5568 18.7559 15.6714 18.2635 14.9233C17.7805 14.1752 17.1177 13.5975 16.2749 13.1903C15.4321 12.7831 14.4851 12.5795 13.4339 12.5795C12.3165 12.5795 11.3411 12.8116 10.5078 13.2756C9.68395 13.7301 9.04474 14.3693 8.5902 15.1932C8.14512 16.017 7.92259 16.983 7.92259 18.0909H4.57031C4.57031 16.3864 4.9633 14.8902 5.74929 13.6023C6.53527 12.3144 7.60535 11.3106 8.95952 10.5909C10.3232 9.87121 11.8525 9.51136 13.5476 9.51136C15.2521 9.51136 16.7625 9.87121 18.0788 10.5909C19.3951 11.3106 20.4273 12.2812 21.1754 13.5028C21.9235 14.7244 22.2976 16.0833 22.2976 17.5795C22.2976 18.6496 22.1035 19.696 21.7152 20.7188C21.3364 21.732 20.6735 22.8636 19.7266 24.1136C18.7891 25.3542 17.487 26.8693 15.8203 28.6591L9.28622 35.6477V35.875H22.8089V39H4.45668ZM37.7663 39.3977C36.0997 39.3977 34.5987 39.0663 33.2635 38.4034C31.9283 37.7405 30.8582 36.8314 30.0533 35.6761C29.2483 34.5208 28.808 33.2045 28.7322 31.7273H32.1413C32.2739 33.0436 32.8705 34.1326 33.9311 34.9943C35.0012 35.8466 36.2796 36.2727 37.7663 36.2727C38.9595 36.2727 40.0201 35.9934 40.9482 35.4347C41.8857 34.8759 42.6196 34.1089 43.1499 33.1335C43.6896 32.1487 43.9595 31.036 43.9595 29.7955C43.9595 28.5265 43.6802 27.3949 43.1214 26.4006C42.5722 25.3968 41.8146 24.6061 40.8487 24.0284C39.8828 23.4508 38.7796 23.1572 37.5391 23.1477C36.6489 23.1383 35.7351 23.2756 34.7976 23.5597C33.8601 23.8343 33.0883 24.1894 32.4822 24.625L29.1868 24.2273L30.9482 9.90909H46.0618V13.0341H33.9027L32.88 21.6136H33.0504C33.647 21.1402 34.3951 20.7472 35.2947 20.4347C36.1944 20.1222 37.1319 19.9659 38.1072 19.9659C39.8875 19.9659 41.4737 20.392 42.8658 21.2443C44.2673 22.0871 45.3658 23.2424 46.1612 24.7102C46.9661 26.178 47.3686 27.8542 47.3686 29.7386C47.3686 31.5947 46.9519 33.2519 46.1186 34.7102C45.2947 36.1591 44.1584 37.3049 42.7095 38.1477C41.2607 38.9811 39.6129 39.3977 37.7663 39.3977ZM62.5 39.3977C60.3598 39.3977 58.5369 38.8153 57.0312 37.6506C55.5256 36.4763 54.375 34.7765 53.5795 32.5511C52.7841 30.3163 52.3864 27.6174 52.3864 24.4545C52.3864 21.3106 52.7841 18.6259 53.5795 16.4006C54.3845 14.1657 55.5398 12.4612 57.0455 11.2869C58.5606 10.1032 60.3788 9.51136 62.5 9.51136C64.6212 9.51136 66.4347 10.1032 67.9403 11.2869C69.4555 12.4612 70.6108 14.1657 71.4062 16.4006C72.2112 18.6259 72.6136 21.3106 72.6136 24.4545C72.6136 27.6174 72.2159 30.3163 71.4205 32.5511C70.625 34.7765 69.4744 36.4763 67.9688 37.6506C66.4631 38.8153 64.6402 39.3977 62.5 39.3977ZM62.5 36.2727C64.6212 36.2727 66.2689 35.25 67.4432 33.2045C68.6174 31.1591 69.2045 28.2424 69.2045 24.4545C69.2045 21.9356 68.9347 19.7907 68.3949 18.0199C67.8646 16.2491 67.0975 14.8996 66.0938 13.9716C65.0994 13.0436 63.9015 12.5795 62.5 12.5795C60.3977 12.5795 58.7547 13.6165 57.571 15.6903C56.3873 17.7547 55.7955 20.6761 55.7955 24.4545C55.7955 26.9735 56.0606 29.1136 56.5909 30.875C57.1212 32.6364 57.8835 33.9763 58.8778 34.8949C59.8816 35.8134 61.089 36.2727 62.5 36.2727ZM87.5 39.3977C85.3598 39.3977 83.5369 38.8153 82.0312 37.6506C80.5256 36.4763 79.375 34.7765 78.5795 32.5511C77.7841 30.3163 77.3864 27.6174 77.3864 24.4545C77.3864 21.3106 77.7841 18.6259 78.5795 16.4006C79.3845 14.1657 80.5398 12.4612 82.0455 11.2869C83.5606 10.1032 85.3788 9.51136 87.5 9.51136C89.6212 9.51136 91.4347 10.1032 92.9403 11.2869C94.4555 12.4612 95.6108 14.1657 96.4062 16.4006C97.2112 18.6259 97.6136 21.3106 97.6136 24.4545C97.6136 27.6174 97.2159 30.3163 96.4205 32.5511C95.625 34.7765 94.4744 36.4763 92.9688 37.6506C91.4631 38.8153 89.6402 39.3977 87.5 39.3977ZM87.5 36.2727C89.6212 36.2727 91.2689 35.25 92.4432 33.2045C93.6174 31.1591 94.2045 28.2424 94.2045 24.4545C94.2045 21.9356 93.9347 19.7907 93.3949 18.0199C92.8646 16.2491 92.0975 14.8996 91.0938 13.9716C90.0994 13.0436 88.9015 12.5795 87.5 12.5795C85.3977 12.5795 83.7547 13.6165 82.571 15.6903C81.3873 17.7547 80.7955 20.6761 80.7955 24.4545C80.7955 26.9735 81.0606 29.1136 81.5909 30.875C82.1212 32.6364 82.8835 33.9763 83.8778 34.8949C84.8816 35.8134 86.089 36.2727 87.5 36.2727Z" fill="black"/>
<path d="M284 556L511 440L736 505L993.5 338L1239.5 236H1490L1722 18" stroke="#006D43" stroke-width="3"/>
</svg>
