<svg width="1493" height="682" viewBox="0 0 1493 682" fill="none" xmlns="http://www.w3.org/2000/svg">
<path d="M119.735 496.42C119.735 488.803 121.659 482.786 125.508 478.37C129.357 473.913 134.341 471.685 140.459 471.685C144.389 471.685 147.731 472.758 150.486 474.906C153.242 477.053 155.288 479.666 156.625 482.746L150.669 484.751C147.995 480.011 144.551 477.641 140.337 477.641C136.245 477.641 132.984 479.362 130.553 482.806C128.122 486.21 126.906 490.747 126.906 496.42C126.906 502.173 128.142 506.731 130.613 510.094C133.085 513.457 136.326 515.138 140.337 515.138C142.971 515.138 145.26 514.368 147.205 512.829C149.19 511.289 150.649 509.405 151.58 507.177L157.84 509.121C157.232 510.58 156.463 511.958 155.531 513.254C154.599 514.51 153.444 515.766 152.067 517.022C150.689 518.278 148.987 519.271 146.962 520C144.976 520.729 142.809 521.094 140.459 521.094C134.462 521.094 129.499 518.906 125.569 514.53C121.68 510.155 119.735 504.118 119.735 496.42ZM161.669 502.679C161.669 497.25 163.148 492.895 166.105 489.613C169.104 486.291 172.892 484.63 177.47 484.63C182.048 484.63 185.756 486.27 188.592 489.552C191.468 492.834 192.907 497.068 192.907 502.254C192.907 502.335 192.846 503.287 192.724 505.11H168.415C168.415 507.987 169.245 510.458 170.907 512.525C172.568 514.591 174.877 515.624 177.835 515.624C179.82 515.624 181.582 515.138 183.122 514.166C184.662 513.193 185.837 511.937 186.647 510.398L192.238 512.282C191.144 514.834 189.362 516.941 186.89 518.602C184.459 520.263 181.42 521.094 177.774 521.094C172.993 521.094 169.104 519.433 166.105 516.11C163.148 512.748 161.669 508.271 161.669 502.679ZM168.536 500.309H186.1C186.1 497.433 185.33 495.002 183.791 493.016C182.251 491.031 180.144 490.038 177.47 490.038C174.756 490.038 172.608 491.051 171.028 493.077C169.448 495.103 168.617 497.514 168.536 500.309ZM199.531 520V485.723H206.034V490.525H206.095C206.621 489.147 207.756 487.83 209.498 486.574C211.281 485.278 213.469 484.63 216.062 484.63C219.384 484.63 222.058 485.663 224.084 487.729C226.11 489.795 227.122 493.199 227.122 497.939V520H220.437V498.851C220.437 493.178 218.472 490.342 214.542 490.342C212.233 490.342 210.268 491.294 208.647 493.199C207.067 495.062 206.277 497.331 206.277 500.005V520H199.531ZM231.984 491.436V485.723H237.515V475.331H244.2V485.723H252.404V491.436H244.2V509.304C244.2 511.086 244.544 512.363 245.233 513.133C245.962 513.902 247.056 514.287 248.515 514.287H252.404V520H247.664C240.898 520 237.515 516.597 237.515 509.79V491.436H231.984ZM258.664 520V485.723H265.045V489.856C265.734 488.519 266.828 487.324 268.327 486.27C269.826 485.177 271.629 484.63 273.736 484.63C275.6 484.63 277.119 484.893 278.294 485.42V491.558C276.957 491.031 275.438 490.768 273.736 490.768C271.062 490.768 268.996 491.801 267.537 493.867C266.119 495.893 265.41 498.608 265.41 502.011V520H258.664ZM287.289 502.862C287.289 506.954 288.16 510.074 289.902 512.221C291.644 514.368 293.731 515.442 296.162 515.442C298.552 515.442 300.618 514.368 302.361 512.221C304.143 510.074 305.035 506.954 305.035 502.862C305.035 498.729 304.143 495.609 302.361 493.503C300.618 491.396 298.552 490.342 296.162 490.342C293.771 490.342 291.685 491.396 289.902 493.503C288.16 495.609 287.289 498.729 287.289 502.862ZM280.482 502.862C280.482 499.539 281.009 496.541 282.062 493.867C283.156 491.193 284.919 488.985 287.349 487.243C289.78 485.501 292.718 484.63 296.162 484.63C301.226 484.63 305.095 486.392 307.77 489.917C310.484 493.401 311.841 497.716 311.841 502.862C311.841 504.969 311.578 507.035 311.051 509.061C310.525 511.046 309.674 512.97 308.499 514.834C307.364 516.698 305.723 518.217 303.576 519.392C301.469 520.527 298.998 521.094 296.162 521.094C293.326 521.094 290.854 520.547 288.747 519.453C286.64 518.319 285 516.84 283.825 515.017C282.69 513.153 281.839 511.208 281.272 509.182C280.745 507.156 280.482 505.05 280.482 502.862Z" fill="#494953"/>
<path d="M119.735 637.42C119.735 629.803 121.659 623.786 125.508 619.37C129.357 614.913 134.341 612.685 140.459 612.685C144.389 612.685 147.731 613.758 150.486 615.906C153.242 618.053 155.288 620.666 156.625 623.746L150.669 625.751C147.995 621.011 144.551 618.641 140.337 618.641C136.245 618.641 132.984 620.362 130.553 623.806C128.122 627.21 126.906 631.747 126.906 637.42C126.906 643.173 128.142 647.731 130.613 651.094C133.085 654.457 136.326 656.138 140.337 656.138C142.971 656.138 145.26 655.368 147.205 653.829C149.19 652.289 150.649 650.405 151.58 648.177L157.84 650.121C157.232 651.58 156.463 652.958 155.531 654.254C154.599 655.51 153.444 656.766 152.067 658.022C150.689 659.278 148.987 660.271 146.962 661C144.976 661.729 142.809 662.094 140.459 662.094C134.462 662.094 129.499 659.906 125.569 655.53C121.68 651.155 119.735 645.118 119.735 637.42ZM168.354 651.641C168.354 653.018 168.901 654.173 169.995 655.105C171.129 656.037 172.649 656.503 174.553 656.503C177.146 656.503 179.354 655.672 181.177 654.011C183.001 652.309 183.912 650.101 183.912 647.387V643.679C182.048 644.125 179.597 644.591 176.559 645.077C173.803 645.523 171.737 646.272 170.36 647.326C169.023 648.379 168.354 649.818 168.354 651.641ZM161.547 652.188C161.547 645.786 166.389 641.836 176.072 640.337C180.083 639.729 182.697 639.223 183.912 638.817V636.934C183.912 635.11 183.244 633.672 181.907 632.619C180.61 631.525 178.848 630.978 176.619 630.978C172.689 630.978 169.347 632.578 166.592 635.779L162.459 632.254C164.201 630.188 166.288 628.567 168.719 627.392C171.19 626.217 173.783 625.63 176.498 625.63C185.897 625.63 190.597 630.248 190.597 639.486V661H184.094V656.26C183.406 657.84 182.109 659.217 180.205 660.392C178.301 661.527 176.093 662.094 173.581 662.094C169.853 662.094 166.916 661.182 164.768 659.359C162.621 657.495 161.547 655.105 161.547 652.188ZM205.912 643.801C205.912 647.609 206.662 650.668 208.161 652.978C209.66 655.287 211.726 656.442 214.36 656.442C216.872 656.442 218.918 655.328 220.498 653.099C222.119 650.83 222.929 647.731 222.929 643.801C222.929 640.033 222.159 637.015 220.62 634.746C219.121 632.477 217.034 631.342 214.36 631.342C211.767 631.342 209.701 632.497 208.161 634.806C206.662 637.116 205.912 640.114 205.912 643.801ZM199.349 675.282V626.723H205.73V631.707C206.621 629.924 207.898 628.466 209.559 627.331C211.22 626.197 213.124 625.63 215.272 625.63C219.445 625.63 222.909 627.27 225.664 630.552C228.419 633.834 229.797 638.25 229.797 643.801C229.797 646.88 229.351 649.635 228.459 652.066C227.609 654.497 226.474 656.422 225.056 657.84C223.638 659.258 222.098 660.311 220.437 661C218.776 661.729 217.054 662.094 215.272 662.094C212.962 662.094 211.017 661.547 209.437 660.453C207.857 659.319 206.702 657.961 205.973 656.381V675.282H199.349ZM241.283 643.862C241.283 647.954 242.154 651.074 243.896 653.221C245.638 655.368 247.725 656.442 250.156 656.442C252.546 656.442 254.613 655.368 256.355 653.221C258.137 651.074 259.029 647.954 259.029 643.862C259.029 639.729 258.137 636.609 256.355 634.503C254.613 632.396 252.546 631.342 250.156 631.342C247.765 631.342 245.679 632.396 243.896 634.503C242.154 636.609 241.283 639.729 241.283 643.862ZM234.476 643.862C234.476 640.539 235.003 637.541 236.056 634.867C237.15 632.193 238.913 629.985 241.344 628.243C243.775 626.501 246.712 625.63 250.156 625.63C255.22 625.63 259.09 627.392 261.764 630.917C264.478 634.401 265.835 638.716 265.835 643.862C265.835 645.969 265.572 648.035 265.045 650.061C264.519 652.046 263.668 653.97 262.493 655.834C261.358 657.698 259.718 659.217 257.57 660.392C255.463 661.527 252.992 662.094 250.156 662.094C247.32 662.094 244.848 661.547 242.741 660.453C240.635 659.319 238.994 657.84 237.819 656.017C236.684 654.153 235.833 652.208 235.266 650.182C234.739 648.156 234.476 646.05 234.476 643.862ZM269.3 632.436V626.723H274.83V616.331H281.515V626.723H289.72V632.436H281.515V650.304C281.515 652.086 281.86 653.363 282.548 654.133C283.278 654.902 284.372 655.287 285.83 655.287H289.72V661H284.979C278.213 661 274.83 657.597 274.83 650.79V632.436H269.3ZM293.913 643.679C293.913 638.25 295.392 633.895 298.35 630.613C301.348 627.291 305.136 625.63 309.714 625.63C314.293 625.63 318 627.27 320.836 630.552C323.713 633.834 325.151 638.068 325.151 643.254C325.151 643.335 325.09 644.287 324.969 646.11H300.659C300.659 648.987 301.49 651.458 303.151 653.525C304.812 655.591 307.121 656.624 310.079 656.624C312.064 656.624 313.827 656.138 315.366 655.166C316.906 654.193 318.081 652.937 318.891 651.398L324.482 653.282C323.388 655.834 321.606 657.941 319.134 659.602C316.703 661.263 313.665 662.094 310.018 662.094C305.237 662.094 301.348 660.433 298.35 657.11C295.392 653.748 293.913 649.271 293.913 643.679ZM300.781 641.309H318.344C318.344 638.433 317.574 636.002 316.035 634.016C314.495 632.031 312.388 631.038 309.714 631.038C307 631.038 304.852 632.051 303.272 634.077C301.692 636.103 300.862 638.514 300.781 641.309Z" fill="#494953"/>
<path d="M525.713 661V613.779H534.343L543.276 636.873C543.803 638.372 544.532 640.479 545.464 643.193C546.437 645.867 547.125 647.772 547.531 648.906H547.774C548.017 648.258 549.475 644.247 552.149 636.873L560.962 613.779H569.713V661H562.785V637.906C562.785 634.786 563.048 629.944 563.575 623.381H563.332L560.232 632.254L550.387 658.022H545.039L535.193 632.254L532.033 623.32H531.729C532.337 629.924 532.641 634.786 532.641 637.906V661H525.713ZM584.481 643.862C584.481 647.954 585.352 651.074 587.094 653.221C588.837 655.368 590.923 656.442 593.354 656.442C595.745 656.442 597.811 655.368 599.553 653.221C601.336 651.074 602.227 647.954 602.227 643.862C602.227 639.729 601.336 636.609 599.553 634.503C597.811 632.396 595.745 631.342 593.354 631.342C590.964 631.342 588.877 632.396 587.094 634.503C585.352 636.609 584.481 639.729 584.481 643.862ZM577.675 643.862C577.675 640.539 578.201 637.541 579.255 634.867C580.349 632.193 582.111 629.985 584.542 628.243C586.973 626.501 589.91 625.63 593.354 625.63C598.419 625.63 602.288 627.392 604.962 630.917C607.677 634.401 609.034 638.716 609.034 643.862C609.034 645.969 608.771 648.035 608.244 650.061C607.717 652.046 606.866 653.97 605.691 655.834C604.557 657.698 602.916 659.217 600.769 660.392C598.662 661.527 596.19 662.094 593.354 662.094C590.518 662.094 588.047 661.547 585.94 660.453C583.833 659.319 582.192 657.84 581.017 656.017C579.883 654.153 579.032 652.208 578.465 650.182C577.938 648.156 577.675 646.05 577.675 643.862ZM613.713 643.862C613.713 638.352 615.132 633.935 617.968 630.613C620.844 627.291 624.633 625.63 629.332 625.63C632.655 625.63 635.45 626.622 637.719 628.607C639.988 630.552 641.447 632.821 642.095 635.414L636.443 636.994C635.916 635.414 635.025 634.077 633.769 632.983C632.553 631.889 631.095 631.342 629.393 631.342C626.638 631.342 624.47 632.538 622.89 634.928C621.351 637.278 620.581 640.256 620.581 643.862C620.581 647.792 621.412 650.871 623.073 653.099C624.734 655.328 626.841 656.442 629.393 656.442C631.216 656.442 632.837 655.834 634.255 654.619C635.714 653.363 636.727 651.924 637.294 650.304L642.946 651.945C642.176 654.659 640.535 657.029 638.023 659.055C635.552 661.081 632.655 662.094 629.332 662.094C624.673 662.094 620.905 660.453 618.028 657.171C615.152 653.849 613.713 649.412 613.713 643.862ZM653.399 643.862C653.399 647.954 654.27 651.074 656.012 653.221C657.754 655.368 659.841 656.442 662.272 656.442C664.662 656.442 666.729 655.368 668.471 653.221C670.254 651.074 671.145 647.954 671.145 643.862C671.145 639.729 670.254 636.609 668.471 634.503C666.729 632.396 664.662 631.342 662.272 631.342C659.881 631.342 657.795 632.396 656.012 634.503C654.27 636.609 653.399 639.729 653.399 643.862ZM646.592 643.862C646.592 640.539 647.119 637.541 648.172 634.867C649.266 632.193 651.029 629.985 653.46 628.243C655.891 626.501 658.828 625.63 662.272 625.63C667.336 625.63 671.206 627.392 673.88 630.917C676.594 634.401 677.952 638.716 677.952 643.862C677.952 645.969 677.688 648.035 677.162 650.061C676.635 652.046 675.784 653.97 674.609 655.834C673.475 657.698 671.834 659.217 669.686 660.392C667.579 661.527 665.108 662.094 662.272 662.094C659.436 662.094 656.964 661.547 654.857 660.453C652.751 659.319 651.11 657.84 649.935 656.017C648.8 654.153 647.949 652.208 647.382 650.182C646.856 648.156 646.592 646.05 646.592 643.862ZM682.631 643.862C682.631 638.352 684.049 633.935 686.885 630.613C689.762 627.291 693.55 625.63 698.25 625.63C701.572 625.63 704.368 626.622 706.637 628.607C708.906 630.552 710.364 632.821 711.013 635.414L705.361 636.994C704.834 635.414 703.943 634.077 702.687 632.983C701.471 631.889 700.013 631.342 698.311 631.342C695.556 631.342 693.388 632.538 691.808 634.928C690.268 637.278 689.499 640.256 689.499 643.862C689.499 647.792 690.329 650.871 691.99 653.099C693.652 655.328 695.758 656.442 698.311 656.442C700.134 656.442 701.755 655.834 703.173 654.619C704.631 653.363 705.644 651.924 706.211 650.304L711.863 651.945C711.094 654.659 709.453 657.029 706.941 659.055C704.469 661.081 701.572 662.094 698.25 662.094C693.591 662.094 689.823 660.453 686.946 657.171C684.069 653.849 682.631 649.412 682.631 643.862ZM722.195 651.641C722.195 653.018 722.742 654.173 723.836 655.105C724.97 656.037 726.49 656.503 728.394 656.503C730.987 656.503 733.195 655.672 735.018 654.011C736.842 652.309 737.753 650.101 737.753 647.387V643.679C735.889 644.125 733.438 644.591 730.4 645.077C727.644 645.523 725.578 646.272 724.201 647.326C722.864 648.379 722.195 649.818 722.195 651.641ZM715.388 652.188C715.388 645.786 720.23 641.836 729.913 640.337C733.924 639.729 736.538 639.223 737.753 638.817V636.934C737.753 635.11 737.085 633.672 735.748 632.619C734.451 631.525 732.689 630.978 730.46 630.978C726.53 630.978 723.188 632.578 720.433 635.779L716.3 632.254C718.042 630.188 720.129 628.567 722.56 627.392C725.031 626.217 727.624 625.63 730.339 625.63C739.738 625.63 744.438 630.248 744.438 639.486V661H737.936V656.26C737.247 657.84 735.95 659.217 734.046 660.392C732.142 661.527 729.934 662.094 727.422 662.094C723.694 662.094 720.757 661.182 718.609 659.359C716.462 657.495 715.388 655.105 715.388 652.188Z" fill="#494953"/>
<path d="M954.735 637.42C954.735 630.005 956.558 624.029 960.204 619.491C963.891 614.954 968.774 612.685 974.851 612.685C980.928 612.685 985.77 614.954 989.376 619.491C993.022 624.029 994.846 630.026 994.846 637.48C994.846 644.976 993.022 650.952 989.376 655.409C985.73 659.866 980.888 662.094 974.851 662.094C968.774 662.094 963.891 659.866 960.204 655.409C956.558 650.912 954.735 644.915 954.735 637.42ZM961.967 637.42C961.967 643.173 963.101 647.731 965.37 651.094C967.68 654.457 970.84 656.138 974.851 656.138C978.822 656.138 981.941 654.477 984.21 651.155C986.52 647.832 987.674 643.274 987.674 637.48C987.674 631.768 986.54 627.21 984.271 623.806C982.043 620.362 978.903 618.641 974.851 618.641C970.84 618.641 967.68 620.342 965.37 623.746C963.101 627.108 961.967 631.666 961.967 637.42ZM1001.59 648.724V626.723H1008.34V647.69C1008.34 653.525 1010.4 656.442 1014.54 656.442C1017.05 656.442 1018.97 655.429 1020.31 653.403C1021.69 651.337 1022.38 648.886 1022.38 646.05V626.723H1029V661H1022.62V656.503H1022.5C1021.93 657.84 1020.86 659.116 1019.28 660.331C1017.7 661.506 1015.61 662.094 1013.02 662.094C1009.9 662.094 1007.2 661.041 1004.93 658.934C1002.71 656.827 1001.59 653.424 1001.59 648.724ZM1034.53 632.436V626.723H1040.06V616.331H1046.75V626.723H1054.95V632.436H1046.75V650.304C1046.75 652.086 1047.09 653.363 1047.78 654.133C1048.51 654.902 1049.6 655.287 1051.06 655.287H1054.95V661H1050.21C1043.44 661 1040.06 657.597 1040.06 650.79V632.436H1034.53ZM1061.21 661V626.723H1067.59V630.856C1068.28 629.519 1069.37 628.324 1070.87 627.27C1072.37 626.177 1074.18 625.63 1076.28 625.63C1078.15 625.63 1079.67 625.893 1080.84 626.42V632.558C1079.5 632.031 1077.98 631.768 1076.28 631.768C1073.61 631.768 1071.54 632.801 1070.08 634.867C1068.67 636.893 1067.96 639.608 1067.96 643.011V661H1061.21ZM1089.84 643.862C1089.84 647.954 1090.71 651.074 1092.45 653.221C1094.19 655.368 1096.28 656.442 1098.71 656.442C1101.1 656.442 1103.17 655.368 1104.91 653.221C1106.69 651.074 1107.58 647.954 1107.58 643.862C1107.58 639.729 1106.69 636.609 1104.91 634.503C1103.17 632.396 1101.1 631.342 1098.71 631.342C1096.32 631.342 1094.23 632.396 1092.45 634.503C1090.71 636.609 1089.84 639.729 1089.84 643.862ZM1083.03 643.862C1083.03 640.539 1083.56 637.541 1084.61 634.867C1085.7 632.193 1087.47 629.985 1089.9 628.243C1092.33 626.501 1095.26 625.63 1098.71 625.63C1103.77 625.63 1107.64 627.392 1110.32 630.917C1113.03 634.401 1114.39 638.716 1114.39 643.862C1114.39 645.969 1114.12 648.035 1113.6 650.061C1113.07 652.046 1112.22 653.97 1111.05 655.834C1109.91 657.698 1108.27 659.217 1106.12 660.392C1104.02 661.527 1101.54 662.094 1098.71 662.094C1095.87 662.094 1093.4 661.547 1091.29 660.453C1089.19 659.319 1087.55 657.84 1086.37 656.017C1085.24 654.153 1084.39 652.208 1083.82 650.182C1083.29 648.156 1083.03 646.05 1083.03 643.862ZM1118.46 653.95L1123.32 651.155C1125.79 654.801 1128.97 656.624 1132.86 656.624C1134.93 656.624 1136.59 656.219 1137.85 655.409C1139.1 654.558 1139.73 653.444 1139.73 652.066C1139.73 650.284 1138.39 648.825 1135.72 647.69C1134.87 647.285 1132.94 646.617 1129.95 645.685C1128.53 645.239 1127.29 644.794 1126.24 644.348C1125.23 643.862 1124.17 643.234 1123.08 642.464C1122.03 641.654 1121.22 640.661 1120.65 639.486C1120.08 638.311 1119.8 636.974 1119.8 635.475C1119.8 632.517 1121.03 630.147 1123.5 628.364C1125.98 626.541 1129.12 625.63 1132.92 625.63C1135.72 625.63 1138.33 626.379 1140.76 627.878C1143.19 629.377 1145 631.221 1146.17 633.409L1141.74 636.143C1139.43 632.781 1136.49 631.099 1132.92 631.099C1130.86 631.099 1129.28 631.525 1128.18 632.375C1127.09 633.186 1126.54 634.259 1126.54 635.596C1126.54 636.326 1126.75 636.994 1127.15 637.602C1127.56 638.21 1127.96 638.696 1128.37 639.061C1128.81 639.425 1129.54 639.83 1130.55 640.276C1131.61 640.681 1132.38 640.965 1132.86 641.127C1133.39 641.289 1134.28 641.573 1135.54 641.978C1142.91 644.247 1146.6 647.63 1146.6 652.127C1146.6 654.923 1145.4 657.293 1143.01 659.238C1140.62 661.142 1137.28 662.094 1132.98 662.094C1129.78 662.094 1126.91 661.365 1124.36 659.906C1121.8 658.447 1119.84 656.462 1118.46 653.95ZM1168.48 661V612.138H1175.1V631.282C1175.91 629.782 1177.13 628.466 1178.75 627.331C1180.37 626.197 1182.25 625.63 1184.4 625.63C1188.61 625.63 1192.08 627.25 1194.79 630.491C1197.55 633.733 1198.92 638.169 1198.92 643.801C1198.92 646.961 1198.48 649.777 1197.59 652.249C1196.7 654.68 1195.52 656.584 1194.06 657.961C1192.64 659.339 1191.11 660.372 1189.44 661.061C1187.82 661.75 1186.16 662.094 1184.46 662.094C1182.31 662.094 1180.39 661.506 1178.69 660.331C1176.99 659.157 1175.75 657.738 1174.98 656.077V661H1168.48ZM1174.98 643.801C1174.98 647.69 1175.77 650.77 1177.35 653.039C1178.97 655.308 1181.02 656.442 1183.49 656.442C1186 656.442 1188.05 655.348 1189.63 653.16C1191.25 650.932 1192.06 647.812 1192.06 643.801C1192.06 639.952 1191.27 636.913 1189.69 634.685C1188.15 632.456 1186.08 631.342 1183.49 631.342C1180.98 631.342 1178.93 632.477 1177.35 634.746C1175.77 637.015 1174.98 640.033 1174.98 643.801ZM1210.29 651.641C1210.29 653.018 1210.84 654.173 1211.93 655.105C1213.06 656.037 1214.58 656.503 1216.49 656.503C1219.08 656.503 1221.29 655.672 1223.11 654.011C1224.94 652.309 1225.85 650.101 1225.85 647.387V643.679C1223.98 644.125 1221.53 644.591 1218.49 645.077C1215.74 645.523 1213.67 646.272 1212.29 647.326C1210.96 648.379 1210.29 649.818 1210.29 651.641ZM1203.48 652.188C1203.48 645.786 1208.32 641.836 1218.01 640.337C1222.02 639.729 1224.63 639.223 1225.85 638.817V636.934C1225.85 635.11 1225.18 633.672 1223.84 632.619C1222.55 631.525 1220.78 630.978 1218.55 630.978C1214.62 630.978 1211.28 632.578 1208.53 635.779L1204.39 632.254C1206.14 630.188 1208.22 628.567 1210.65 627.392C1213.13 626.217 1215.72 625.63 1218.43 625.63C1227.83 625.63 1232.53 630.248 1232.53 639.486V661H1226.03V656.26C1225.34 657.84 1224.04 659.217 1222.14 660.392C1220.24 661.527 1218.03 662.094 1215.52 662.094C1211.79 662.094 1208.85 661.182 1206.7 659.359C1204.56 657.495 1203.48 655.105 1203.48 652.188ZM1241.34 620.768V613.11H1248.82V620.768H1241.34ZM1241.83 661V626.723H1248.46V661H1241.83ZM1258.12 661V626.723H1264.5V630.856C1265.19 629.519 1266.28 628.324 1267.78 627.27C1269.28 626.177 1271.08 625.63 1273.19 625.63C1275.05 625.63 1276.57 625.893 1277.75 626.42V632.558C1276.41 632.031 1274.89 631.768 1273.19 631.768C1270.52 631.768 1268.45 632.801 1266.99 634.867C1265.57 636.893 1264.86 639.608 1264.86 643.011V661H1258.12ZM1282 661V626.723H1288.38V630.856C1289.07 629.519 1290.17 628.324 1291.67 627.27C1293.16 626.177 1294.97 625.63 1297.07 625.63C1298.94 625.63 1300.46 625.893 1301.63 626.42V632.558C1300.3 632.031 1298.78 631.768 1297.07 631.768C1294.4 631.768 1292.33 632.801 1290.88 634.867C1289.46 636.893 1288.75 639.608 1288.75 643.011V661H1282ZM1310.63 643.862C1310.63 647.954 1311.5 651.074 1313.24 653.221C1314.98 655.368 1317.07 656.442 1319.5 656.442C1321.89 656.442 1323.96 655.368 1325.7 653.221C1327.48 651.074 1328.37 647.954 1328.37 643.862C1328.37 639.729 1327.48 636.609 1325.7 634.503C1323.96 632.396 1321.89 631.342 1319.5 631.342C1317.11 631.342 1315.02 632.396 1313.24 634.503C1311.5 636.609 1310.63 639.729 1310.63 643.862ZM1303.82 643.862C1303.82 640.539 1304.35 637.541 1305.4 634.867C1306.49 632.193 1308.26 629.985 1310.69 628.243C1313.12 626.501 1316.06 625.63 1319.5 625.63C1324.56 625.63 1328.43 627.392 1331.11 630.917C1333.82 634.401 1335.18 638.716 1335.18 643.862C1335.18 645.969 1334.92 648.035 1334.39 650.061C1333.86 652.046 1333.01 653.97 1331.84 655.834C1330.7 657.698 1329.06 659.217 1326.91 660.392C1324.81 661.527 1322.34 662.094 1319.5 662.094C1316.66 662.094 1314.19 661.547 1312.09 660.453C1309.98 659.319 1308.34 657.84 1307.16 656.017C1306.03 654.153 1305.18 652.208 1304.61 650.182C1304.08 648.156 1303.82 646.05 1303.82 643.862ZM1339.25 653.95L1344.11 651.155C1346.59 654.801 1349.77 656.624 1353.66 656.624C1355.72 656.624 1357.38 656.219 1358.64 655.409C1359.89 654.558 1360.52 653.444 1360.52 652.066C1360.52 650.284 1359.19 648.825 1356.51 647.69C1355.66 647.285 1353.74 646.617 1350.74 645.685C1349.32 645.239 1348.08 644.794 1347.03 644.348C1346.02 643.862 1344.96 643.234 1343.87 642.464C1342.82 641.654 1342.01 640.661 1341.44 639.486C1340.87 638.311 1340.59 636.974 1340.59 635.475C1340.59 632.517 1341.82 630.147 1344.3 628.364C1346.77 626.541 1349.91 625.63 1353.72 625.63C1356.51 625.63 1359.12 626.379 1361.56 627.878C1363.99 629.377 1365.79 631.221 1366.96 633.409L1362.53 636.143C1360.22 632.781 1357.28 631.099 1353.72 631.099C1351.65 631.099 1350.07 631.525 1348.98 632.375C1347.88 633.186 1347.33 634.259 1347.33 635.596C1347.33 636.326 1347.54 636.994 1347.94 637.602C1348.35 638.21 1348.75 638.696 1349.16 639.061C1349.6 639.425 1350.33 639.83 1351.35 640.276C1352.4 640.681 1353.17 640.965 1353.66 641.127C1354.18 641.289 1355.07 641.573 1356.33 641.978C1363.7 644.247 1367.39 647.63 1367.39 652.127C1367.39 654.923 1366.19 657.293 1363.8 659.238C1361.41 661.142 1358.07 662.094 1353.78 662.094C1350.58 662.094 1347.7 661.365 1345.15 659.906C1342.59 658.447 1340.63 656.462 1339.25 653.95Z" fill="#494953"/>
<path d="M483.735 496.42C483.735 488.803 485.659 482.786 489.508 478.37C493.357 473.913 498.341 471.685 504.459 471.685C508.389 471.685 511.731 472.758 514.486 474.906C517.242 477.053 519.288 479.666 520.625 482.746L514.669 484.751C511.995 480.011 508.551 477.641 504.337 477.641C500.245 477.641 496.984 479.362 494.553 482.806C492.122 486.21 490.906 490.747 490.906 496.42C490.906 502.173 492.142 506.731 494.613 510.094C497.085 513.457 500.326 515.138 504.337 515.138C506.971 515.138 509.26 514.368 511.205 512.829C513.19 511.289 514.649 509.405 515.58 507.177L521.84 509.121C521.232 510.58 520.463 511.958 519.531 513.254C518.599 514.51 517.444 515.766 516.067 517.022C514.689 518.278 512.987 519.271 510.962 520C508.976 520.729 506.809 521.094 504.459 521.094C498.462 521.094 493.499 518.906 489.569 514.53C485.68 510.155 483.735 504.118 483.735 496.42ZM532.354 510.641C532.354 512.018 532.901 513.173 533.995 514.105C535.129 515.037 536.649 515.503 538.553 515.503C541.146 515.503 543.354 514.672 545.177 513.011C547.001 511.309 547.912 509.101 547.912 506.387V502.679C546.048 503.125 543.597 503.591 540.559 504.077C537.803 504.523 535.737 505.272 534.36 506.326C533.023 507.379 532.354 508.818 532.354 510.641ZM525.547 511.188C525.547 504.786 530.389 500.836 540.072 499.337C544.083 498.729 546.697 498.223 547.912 497.817V495.934C547.912 494.11 547.244 492.672 545.907 491.619C544.61 490.525 542.848 489.978 540.619 489.978C536.689 489.978 533.347 491.578 530.592 494.779L526.459 491.254C528.201 489.188 530.288 487.567 532.719 486.392C535.19 485.217 537.783 484.63 540.498 484.63C549.897 484.63 554.597 489.248 554.597 498.486V520H548.094V515.26C547.406 516.84 546.109 518.217 544.205 519.392C542.301 520.527 540.093 521.094 537.581 521.094C533.853 521.094 530.916 520.182 528.768 518.359C526.621 516.495 525.547 514.105 525.547 511.188ZM562.984 520V485.723H569.487V490.525H569.548C570.074 489.147 571.209 487.83 572.951 486.574C574.734 485.278 576.922 484.63 579.515 484.63C582.837 484.63 585.511 485.663 587.537 487.729C589.563 489.795 590.575 493.199 590.575 497.939V520H583.89V498.851C583.89 493.178 581.925 490.342 577.995 490.342C575.686 490.342 573.721 491.294 572.1 493.199C570.52 495.062 569.73 497.331 569.73 500.005V520H562.984ZM596.957 502.801C596.957 497.169 598.314 492.733 601.029 489.491C603.784 486.25 607.268 484.63 611.482 484.63C613.629 484.63 615.513 485.197 617.134 486.331C618.754 487.466 619.95 488.762 620.719 490.221V471.138H627.405V520H620.902V515.017C620.132 516.718 618.896 518.157 617.194 519.331C615.533 520.506 613.629 521.094 611.482 521.094C609.699 521.094 607.977 520.75 606.316 520.061C604.695 519.372 603.156 518.339 601.697 516.961C600.279 515.584 599.124 513.68 598.233 511.249C597.382 508.777 596.957 505.961 596.957 502.801ZM603.763 502.801C603.763 506.731 604.554 509.83 606.134 512.099C607.754 514.328 609.841 515.442 612.393 515.442C614.824 515.442 616.83 514.308 618.41 512.039C620.031 509.77 620.841 506.69 620.841 502.801C620.841 499.033 620.051 496.015 618.471 493.746C616.891 491.477 614.865 490.342 612.393 490.342C609.719 490.342 607.612 491.477 606.073 493.746C604.533 496.015 603.763 499.033 603.763 502.801ZM641.322 502.862C641.322 506.954 642.193 510.074 643.935 512.221C645.677 514.368 647.764 515.442 650.195 515.442C652.585 515.442 654.652 514.368 656.394 512.221C658.176 510.074 659.068 506.954 659.068 502.862C659.068 498.729 658.176 495.609 656.394 493.503C654.652 491.396 652.585 490.342 650.195 490.342C647.804 490.342 645.718 491.396 643.935 493.503C642.193 495.609 641.322 498.729 641.322 502.862ZM634.515 502.862C634.515 499.539 635.042 496.541 636.095 493.867C637.189 491.193 638.952 488.985 641.383 487.243C643.814 485.501 646.751 484.63 650.195 484.63C655.259 484.63 659.129 486.392 661.803 489.917C664.517 493.401 665.874 497.716 665.874 502.862C665.874 504.969 665.611 507.035 665.084 509.061C664.558 511.046 663.707 512.97 662.532 514.834C661.397 516.698 659.757 518.217 657.609 519.392C655.502 520.527 653.031 521.094 650.195 521.094C647.359 521.094 644.887 520.547 642.78 519.453C640.674 518.319 639.033 516.84 637.858 515.017C636.723 513.153 635.872 511.208 635.305 509.182C634.778 507.156 634.515 505.05 634.515 502.862ZM672.62 520V485.723H679.123V490.525H679.184C679.711 489.147 680.845 487.83 682.587 486.574C684.37 485.278 686.558 484.63 689.151 484.63C692.473 484.63 695.147 485.663 697.173 487.729C699.199 489.795 700.212 493.199 700.212 497.939V520H693.527V498.851C693.527 493.178 691.562 490.342 687.632 490.342C685.322 490.342 683.357 491.294 681.736 493.199C680.156 495.062 679.366 497.331 679.366 500.005V520H672.62ZM713.521 502.193C713.521 505.88 714.251 508.777 715.709 510.884C717.208 512.991 719.193 514.044 721.665 514.044C724.136 514.044 726.101 513.031 727.56 511.005C729.019 508.939 729.748 506.002 729.748 502.193C729.748 498.466 728.998 495.569 727.499 493.503C726.041 491.396 724.136 490.342 721.787 490.342C719.275 490.342 717.269 491.436 715.77 493.624C714.271 495.771 713.521 498.628 713.521 502.193ZM706.715 502.254C706.715 496.906 708.031 492.631 710.665 489.431C713.339 486.23 716.742 484.63 720.875 484.63C723.144 484.63 725.028 485.217 726.527 486.392C728.066 487.526 729.16 488.803 729.809 490.221V485.723H736.433V515.503C736.433 521.985 735.197 526.766 732.726 529.845C730.295 532.965 726.486 534.525 721.3 534.525C715.588 534.525 711.192 532.378 708.112 528.083L712.61 524.983C715.081 527.779 718.039 529.177 721.483 529.177C723.914 529.177 725.879 528.225 727.378 526.32C728.877 524.416 729.667 521.925 729.748 518.845C729.748 518.359 729.748 517.63 729.748 516.657C729.788 515.685 729.809 515.017 729.809 514.652C728.998 516.151 727.823 517.387 726.284 518.359C724.744 519.291 723.022 519.757 721.118 519.757C716.783 519.757 713.298 518.157 710.665 514.956C708.031 511.714 706.715 507.481 706.715 502.254ZM749.864 510.641C749.864 512.018 750.411 513.173 751.505 514.105C752.639 515.037 754.159 515.503 756.063 515.503C758.656 515.503 760.864 514.672 762.687 513.011C764.511 511.309 765.422 509.101 765.422 506.387V502.679C763.559 503.125 761.107 503.591 758.069 504.077C755.314 504.523 753.247 505.272 751.87 506.326C750.533 507.379 749.864 508.818 749.864 510.641ZM743.057 511.188C743.057 504.786 747.899 500.836 757.582 499.337C761.593 498.729 764.207 498.223 765.422 497.817V495.934C765.422 494.11 764.754 492.672 763.417 491.619C762.12 490.525 760.358 489.978 758.129 489.978C754.199 489.978 750.857 491.578 748.102 494.779L743.969 491.254C745.711 489.188 747.798 487.567 750.229 486.392C752.7 485.217 755.293 484.63 758.008 484.63C767.408 484.63 772.107 489.248 772.107 498.486V520H765.605V515.26C764.916 516.84 763.619 518.217 761.715 519.392C759.811 520.527 757.603 521.094 755.091 521.094C751.363 521.094 748.426 520.182 746.278 518.359C744.131 516.495 743.057 514.105 743.057 511.188Z" fill="#494953"/>
<path d="M938.735 496.42C938.735 488.803 940.659 482.786 944.508 478.37C948.357 473.913 953.341 471.685 959.459 471.685C963.389 471.685 966.731 472.758 969.486 474.906C972.242 477.053 974.288 479.666 975.625 482.746L969.669 484.751C966.995 480.011 963.551 477.641 959.337 477.641C955.245 477.641 951.984 479.362 949.553 482.806C947.122 486.21 945.906 490.747 945.906 496.42C945.906 502.173 947.142 506.731 949.613 510.094C952.085 513.457 955.326 515.138 959.337 515.138C961.971 515.138 964.26 514.368 966.205 512.829C968.19 511.289 969.649 509.405 970.58 507.177L976.84 509.121C976.232 510.58 975.463 511.958 974.531 513.254C973.599 514.51 972.444 515.766 971.067 517.022C969.689 518.278 967.987 519.271 965.962 520C963.976 520.729 961.809 521.094 959.459 521.094C953.462 521.094 948.499 518.906 944.569 514.53C940.68 510.155 938.735 504.118 938.735 496.42ZM980.669 502.679C980.669 497.25 982.148 492.895 985.105 489.613C988.104 486.291 991.892 484.63 996.47 484.63C1001.05 484.63 1004.76 486.27 1007.59 489.552C1010.47 492.834 1011.91 497.068 1011.91 502.254C1011.91 502.335 1011.85 503.287 1011.72 505.11H987.415C987.415 507.987 988.245 510.458 989.907 512.525C991.568 514.591 993.877 515.624 996.835 515.624C998.82 515.624 1000.58 515.138 1002.12 514.166C1003.66 513.193 1004.84 511.937 1005.65 510.398L1011.24 512.282C1010.14 514.834 1008.36 516.941 1005.89 518.602C1003.46 520.263 1000.42 521.094 996.774 521.094C991.993 521.094 988.104 519.433 985.105 516.11C982.148 512.748 980.669 508.271 980.669 502.679ZM987.536 500.309H1005.1C1005.1 497.433 1004.33 495.002 1002.79 493.016C1001.25 491.031 999.144 490.038 996.47 490.038C993.756 490.038 991.608 491.051 990.028 493.077C988.448 495.103 987.617 497.514 987.536 500.309ZM990.15 479.95L997.078 468.768H1005.34L995.862 479.95H990.15ZM1015.86 512.95L1020.72 510.155C1023.19 513.801 1026.37 515.624 1030.26 515.624C1032.33 515.624 1033.99 515.219 1035.24 514.409C1036.5 513.558 1037.13 512.444 1037.13 511.066C1037.13 509.284 1035.79 507.825 1033.12 506.69C1032.27 506.285 1030.34 505.617 1027.34 504.685C1025.93 504.239 1024.69 503.794 1023.64 503.348C1022.62 502.862 1021.57 502.234 1020.48 501.464C1019.42 500.654 1018.61 499.661 1018.04 498.486C1017.48 497.311 1017.19 495.974 1017.19 494.475C1017.19 491.517 1018.43 489.147 1020.9 487.364C1023.37 485.541 1026.51 484.63 1030.32 484.63C1033.12 484.63 1035.73 485.379 1038.16 486.878C1040.59 488.377 1042.39 490.221 1043.57 492.409L1039.13 495.143C1036.82 491.781 1033.89 490.099 1030.32 490.099C1028.25 490.099 1026.67 490.525 1025.58 491.375C1024.49 492.186 1023.94 493.259 1023.94 494.596C1023.94 495.326 1024.14 495.994 1024.55 496.602C1024.95 497.21 1025.36 497.696 1025.76 498.061C1026.21 498.425 1026.94 498.83 1027.95 499.276C1029 499.681 1029.77 499.965 1030.26 500.127C1030.79 500.289 1031.68 500.573 1032.93 500.978C1040.31 503.247 1044 506.63 1044 511.127C1044 513.923 1042.8 516.293 1040.41 518.238C1038.02 520.142 1034.68 521.094 1030.38 521.094C1027.18 521.094 1024.3 520.365 1021.75 518.906C1019.2 517.447 1017.23 515.462 1015.86 512.95ZM1054.93 510.641C1054.93 512.018 1055.48 513.173 1056.58 514.105C1057.71 515.037 1059.23 515.503 1061.13 515.503C1063.73 515.503 1065.93 514.672 1067.76 513.011C1069.58 511.309 1070.49 509.101 1070.49 506.387V502.679C1068.63 503.125 1066.18 503.591 1063.14 504.077C1060.38 504.523 1058.32 505.272 1056.94 506.326C1055.6 507.379 1054.93 508.818 1054.93 510.641ZM1048.13 511.188C1048.13 504.786 1052.97 500.836 1062.65 499.337C1066.66 498.729 1069.28 498.223 1070.49 497.817V495.934C1070.49 494.11 1069.82 492.672 1068.49 491.619C1067.19 490.525 1065.43 489.978 1063.2 489.978C1059.27 489.978 1055.93 491.578 1053.17 494.779L1049.04 491.254C1050.78 489.188 1052.87 487.567 1055.3 486.392C1057.77 485.217 1060.36 484.63 1063.08 484.63C1072.48 484.63 1077.18 489.248 1077.18 498.486V520H1070.68V515.26C1069.99 516.84 1068.69 518.217 1066.79 519.392C1064.88 520.527 1062.67 521.094 1060.16 521.094C1056.43 521.094 1053.5 520.182 1051.35 518.359C1049.2 516.495 1048.13 514.105 1048.13 511.188ZM1085.56 520V485.723H1091.95V489.856C1092.63 488.519 1093.73 487.324 1095.23 486.27C1096.73 485.177 1098.53 484.63 1100.64 484.63C1102.5 484.63 1104.02 484.893 1105.19 485.42V491.558C1103.86 491.031 1102.34 490.768 1100.64 490.768C1097.96 490.768 1095.9 491.801 1094.44 493.867C1093.02 495.893 1092.31 498.608 1092.31 502.011V520H1085.56ZM1122.58 502.801C1122.58 497.169 1123.93 492.733 1126.65 489.491C1129.4 486.25 1132.89 484.63 1137.1 484.63C1139.25 484.63 1141.13 485.197 1142.75 486.331C1144.37 487.466 1145.57 488.762 1146.34 490.221V471.138H1153.02V520H1146.52V515.017C1145.75 516.718 1144.52 518.157 1142.81 519.331C1141.15 520.506 1139.25 521.094 1137.1 521.094C1135.32 521.094 1133.6 520.75 1131.94 520.061C1130.31 519.372 1128.78 518.339 1127.32 516.961C1125.9 515.584 1124.74 513.68 1123.85 511.249C1123 508.777 1122.58 505.961 1122.58 502.801ZM1129.38 502.801C1129.38 506.731 1130.17 509.83 1131.75 512.099C1133.37 514.328 1135.46 515.442 1138.01 515.442C1140.44 515.442 1142.45 514.308 1144.03 512.039C1145.65 509.77 1146.46 506.69 1146.46 502.801C1146.46 499.033 1145.67 496.015 1144.09 493.746C1142.51 491.477 1140.48 490.342 1138.01 490.342C1135.34 490.342 1133.23 491.477 1131.69 493.746C1130.15 496.015 1129.38 499.033 1129.38 502.801ZM1160.13 502.679C1160.13 497.25 1161.61 492.895 1164.57 489.613C1167.57 486.291 1171.36 484.63 1175.94 484.63C1180.51 484.63 1184.22 486.27 1187.06 489.552C1189.93 492.834 1191.37 497.068 1191.37 502.254C1191.37 502.335 1191.31 503.287 1191.19 505.11H1166.88C1166.88 507.987 1167.71 510.458 1169.37 512.525C1171.03 514.591 1173.34 515.624 1176.3 515.624C1178.29 515.624 1180.05 515.138 1181.59 514.166C1183.13 513.193 1184.3 511.937 1185.11 510.398L1190.7 512.282C1189.61 514.834 1187.83 516.941 1185.36 518.602C1182.92 520.263 1179.89 521.094 1176.24 521.094C1171.46 521.094 1167.57 519.433 1164.57 516.11C1161.61 512.748 1160.13 508.271 1160.13 502.679ZM1167 500.309H1184.57C1184.57 497.433 1183.8 495.002 1182.26 493.016C1180.72 491.031 1178.61 490.038 1175.94 490.038C1173.22 490.038 1171.07 491.051 1169.49 493.077C1167.91 495.103 1167.08 497.514 1167 500.309ZM1214.47 520V472.779H1232.7C1237.52 472.779 1241.29 474.075 1244 476.668C1246.76 479.261 1248.14 482.705 1248.14 487C1248.14 491.416 1246.74 494.9 1243.94 497.453C1241.15 500.005 1237.44 501.282 1232.82 501.282H1221.39V520H1214.47ZM1221.39 495.387H1231.79C1234.7 495.387 1236.95 494.678 1238.53 493.259C1240.15 491.841 1240.96 489.755 1240.96 487C1240.96 484.285 1240.17 482.239 1238.59 480.862C1237.01 479.443 1234.72 478.734 1231.73 478.734H1221.39V495.387ZM1255.18 479.768V472.11H1262.66V479.768H1255.18ZM1255.67 520V485.723H1262.3V520H1255.67ZM1271.96 520V485.723H1278.46V490.525H1278.52C1279.05 489.147 1280.18 487.83 1281.93 486.574C1283.71 485.278 1285.9 484.63 1288.49 484.63C1291.81 484.63 1294.49 485.663 1296.51 487.729C1298.54 489.795 1299.55 493.199 1299.55 497.939V520H1292.86V498.851C1292.86 493.178 1290.9 490.342 1286.97 490.342C1284.66 490.342 1282.7 491.294 1281.07 493.199C1279.49 495.062 1278.7 497.331 1278.7 500.005V520H1271.96ZM1312.62 510.641C1312.62 512.018 1313.16 513.173 1314.26 514.105C1315.39 515.037 1316.91 515.503 1318.82 515.503C1321.41 515.503 1323.62 514.672 1325.44 513.011C1327.26 511.309 1328.17 509.101 1328.17 506.387V502.679C1326.31 503.125 1323.86 503.591 1320.82 504.077C1318.07 504.523 1316 505.272 1314.62 506.326C1313.28 507.379 1312.62 508.818 1312.62 510.641ZM1305.81 511.188C1305.81 504.786 1310.65 500.836 1320.33 499.337C1324.35 498.729 1326.96 498.223 1328.17 497.817V495.934C1328.17 494.11 1327.51 492.672 1326.17 491.619C1324.87 490.525 1323.11 489.978 1320.88 489.978C1316.95 489.978 1313.61 491.578 1310.85 494.779L1306.72 491.254C1308.46 489.188 1310.55 487.567 1312.98 486.392C1315.45 485.217 1318.05 484.63 1320.76 484.63C1330.16 484.63 1334.86 489.248 1334.86 498.486V520H1328.36V515.26C1327.67 516.84 1326.37 518.217 1324.47 519.392C1322.56 520.527 1320.35 521.094 1317.84 521.094C1314.12 521.094 1311.18 520.182 1309.03 518.359C1306.88 516.495 1305.81 514.105 1305.81 511.188Z" fill="#494953"/>
<path d="M8.8125 89V16.1562H19.5V79.8125H53.0625V89H8.8125ZM66.1875 62.5625C66.1875 68.875 67.5312 73.6875 70.2188 77C72.9062 80.3125 76.125 81.9688 79.875 81.9688C83.5625 81.9688 86.75 80.3125 89.4375 77C92.1875 73.6875 93.5625 68.875 93.5625 62.5625C93.5625 56.1875 92.1875 51.375 89.4375 48.125C86.75 44.875 83.5625 43.25 79.875 43.25C76.1875 43.25 72.9688 44.875 70.2188 48.125C67.5312 51.375 66.1875 56.1875 66.1875 62.5625ZM55.6875 62.5625C55.6875 57.4375 56.5 52.8125 58.125 48.6875C59.8125 44.5625 62.5312 41.1562 66.2812 38.4688C70.0312 35.7812 74.5625 34.4375 79.875 34.4375C87.6875 34.4375 93.6562 37.1562 97.7812 42.5938C101.969 47.9688 104.062 54.625 104.062 62.5625C104.062 65.8125 103.656 69 102.844 72.125C102.031 75.1875 100.719 78.1562 98.9062 81.0312C97.1562 83.9062 94.625 86.25 91.3125 88.0625C88.0625 89.8125 84.25 90.6875 79.875 90.6875C75.5 90.6875 71.6875 89.8438 68.4375 88.1562C65.1875 86.4062 62.6562 84.125 60.8438 81.3125C59.0938 78.4375 57.7812 75.4375 56.9062 72.3125C56.0938 69.1875 55.6875 65.9375 55.6875 62.5625ZM111.281 62.5625C111.281 54.0625 113.469 47.25 117.844 42.125C122.281 37 128.125 34.4375 135.375 34.4375C140.5 34.4375 144.812 35.9688 148.312 39.0312C151.812 42.0312 154.062 45.5312 155.062 49.5312L146.344 51.9688C145.531 49.5312 144.156 47.4688 142.219 45.7812C140.344 44.0938 138.094 43.25 135.469 43.25C131.219 43.25 127.875 45.0938 125.438 48.7812C123.062 52.4062 121.875 57 121.875 62.5625C121.875 68.625 123.156 73.375 125.719 76.8125C128.281 80.25 131.531 81.9688 135.469 81.9688C138.281 81.9688 140.781 81.0312 142.969 79.1562C145.219 77.2188 146.781 75 147.656 72.5L156.375 75.0312C155.188 79.2188 152.656 82.875 148.781 86C144.969 89.125 140.5 90.6875 135.375 90.6875C128.188 90.6875 122.375 88.1562 117.938 83.0938C113.5 77.9688 111.281 71.125 111.281 62.5625ZM172.312 74.5625C172.312 76.6875 173.156 78.4688 174.844 79.9062C176.594 81.3438 178.938 82.0625 181.875 82.0625C185.875 82.0625 189.281 80.7812 192.094 78.2188C194.906 75.5938 196.312 72.1875 196.312 68V62.2812C193.438 62.9688 189.656 63.6875 184.969 64.4375C180.719 65.125 177.531 66.2812 175.406 67.9062C173.344 69.5312 172.312 71.75 172.312 74.5625ZM161.812 75.4062C161.812 65.5312 169.281 59.4375 184.219 57.125C190.406 56.1875 194.438 55.4062 196.312 54.7812V51.875C196.312 49.0625 195.281 46.8438 193.219 45.2188C191.219 43.5312 188.5 42.6875 185.062 42.6875C179 42.6875 173.844 45.1562 169.594 50.0938L163.219 44.6562C165.906 41.4688 169.125 38.9688 172.875 37.1562C176.688 35.3438 180.688 34.4375 184.875 34.4375C199.375 34.4375 206.625 41.5625 206.625 55.8125V89H196.594V81.6875C195.531 84.125 193.531 86.25 190.594 88.0625C187.656 89.8125 184.25 90.6875 180.375 90.6875C174.625 90.6875 170.094 89.2812 166.781 86.4688C163.469 83.5938 161.812 79.9062 161.812 75.4062ZM220.594 89V13.625H230.906V89H220.594ZM246.188 26.9375V15.125H257.719V26.9375H246.188ZM246.938 89V36.125H257.156V89H246.938ZM267.844 89V82.1562L296.25 44.9375H270.188V36.125H309.75V42.5938L281.062 80.2812H310.688V89H267.844ZM325.969 74.5625C325.969 76.6875 326.812 78.4688 328.5 79.9062C330.25 81.3438 332.594 82.0625 335.531 82.0625C339.531 82.0625 342.938 80.7812 345.75 78.2188C348.562 75.5938 349.969 72.1875 349.969 68V62.2812C347.094 62.9688 343.312 63.6875 338.625 64.4375C334.375 65.125 331.188 66.2812 329.062 67.9062C327 69.5312 325.969 71.75 325.969 74.5625ZM315.469 75.4062C315.469 65.5312 322.938 59.4375 337.875 57.125C344.062 56.1875 348.094 55.4062 349.969 54.7812V51.875C349.969 49.0625 348.938 46.8438 346.875 45.2188C344.875 43.5312 342.156 42.6875 338.719 42.6875C332.656 42.6875 327.5 45.1562 323.25 50.0938L316.875 44.6562C319.562 41.4688 322.781 38.9688 326.531 37.1562C330.344 35.3438 334.344 34.4375 338.531 34.4375C353.031 34.4375 360.281 41.5625 360.281 55.8125V89H350.25V81.6875C349.188 84.125 347.188 86.25 344.25 88.0625C341.312 89.8125 337.906 90.6875 334.031 90.6875C328.281 90.6875 323.75 89.2812 320.438 86.4688C317.125 83.5938 315.469 79.9062 315.469 75.4062ZM370.031 62.5625C370.031 54.0625 372.219 47.25 376.594 42.125C381.031 37 386.875 34.4375 394.125 34.4375C399.25 34.4375 403.562 35.9688 407.062 39.0312C410.562 42.0312 412.812 45.5312 413.812 49.5312L405.094 51.9688C404.281 49.5312 402.906 47.4688 400.969 45.7812C399.094 44.0938 396.844 43.25 394.219 43.25C389.969 43.25 386.625 45.0938 384.188 48.7812C381.812 52.4062 380.625 57 380.625 62.5625C380.625 68.625 381.906 73.375 384.469 76.8125C387.031 80.25 390.281 81.9688 394.219 81.9688C397.031 81.9688 399.531 81.0312 401.719 79.1562C403.969 77.2188 405.531 75 406.406 72.5L415.125 75.0312C413.938 79.2188 411.406 82.875 407.531 86C403.719 89.125 399.25 90.6875 394.125 90.6875C386.938 90.6875 381.125 88.1562 376.688 83.0938C372.25 77.9688 370.031 71.125 370.031 62.5625ZM382.031 103.25C385.281 104.062 388.219 104.469 390.844 104.469C392.531 104.469 394.094 104.156 395.531 103.531C397.031 102.906 397.781 101.906 397.781 100.531C397.781 97.8438 394.188 96.5625 387 96.6875L389.156 87.875H398.438L397.031 92.9375C399.844 93.3125 402.031 94.2188 403.594 95.6562C405.156 97.0938 405.938 98.9375 405.938 101.188C405.938 103.875 404.719 106.188 402.281 108.125C399.844 110.125 396.125 111.125 391.125 111.125C388.062 111.125 385.031 110.688 382.031 109.812V103.25ZM431.062 74.5625C431.062 76.6875 431.906 78.4688 433.594 79.9062C435.344 81.3438 437.688 82.0625 440.625 82.0625C444.625 82.0625 448.031 80.7812 450.844 78.2188C453.656 75.5938 455.062 72.1875 455.062 68V62.2812C452.188 62.9688 448.406 63.6875 443.719 64.4375C439.469 65.125 436.281 66.2812 434.156 67.9062C432.094 69.5312 431.062 71.75 431.062 74.5625ZM420.562 75.4062C420.562 65.5312 428.031 59.4375 442.969 57.125C449.156 56.1875 453.188 55.4062 455.062 54.7812V51.875C455.062 49.0625 454.031 46.8438 451.969 45.2188C449.969 43.5312 447.25 42.6875 443.812 42.6875C437.75 42.6875 432.594 45.1562 428.344 50.0938L421.969 44.6562C424.656 41.4688 427.875 38.9688 431.625 37.1562C435.438 35.3438 439.438 34.4375 443.625 34.4375C458.125 34.4375 465.375 41.5625 465.375 55.8125V89H455.344V81.6875C454.281 84.125 452.281 86.25 449.344 88.0625C446.406 89.8125 443 90.6875 439.125 90.6875C433.375 90.6875 428.844 89.2812 425.531 86.4688C422.219 83.5938 420.562 79.9062 420.562 75.4062ZM422.625 22.1562C426.188 16.2187 430.781 13.25 436.406 13.25C438.719 13.25 441.438 14.2188 444.562 16.1562C447.75 18.0937 449.969 19.0625 451.219 19.0625C454.531 19.0625 457.25 17.125 459.375 13.25L465.188 17.75C461.375 23.8125 456.812 26.8438 451.5 26.8438C449.125 26.8438 446.406 25.8438 443.344 23.8438C440.281 21.8437 438.062 20.8438 436.688 20.8438C435.125 20.8438 433.594 21.4062 432.094 22.5312C430.594 23.5938 429.406 24.9688 428.531 26.6562L422.625 22.1562ZM485.625 62.5625C485.625 68.875 486.969 73.6875 489.656 77C492.344 80.3125 495.562 81.9688 499.312 81.9688C503 81.9688 506.188 80.3125 508.875 77C511.625 73.6875 513 68.875 513 62.5625C513 56.1875 511.625 51.375 508.875 48.125C506.188 44.875 503 43.25 499.312 43.25C495.625 43.25 492.406 44.875 489.656 48.125C486.969 51.375 485.625 56.1875 485.625 62.5625ZM475.125 62.5625C475.125 57.4375 475.938 52.8125 477.562 48.6875C479.25 44.5625 481.969 41.1562 485.719 38.4688C489.469 35.7812 494 34.4375 499.312 34.4375C507.125 34.4375 513.094 37.1562 517.219 42.5938C521.406 47.9688 523.5 54.625 523.5 62.5625C523.5 65.8125 523.094 69 522.281 72.125C521.469 75.1875 520.156 78.1562 518.344 81.0312C516.594 83.9062 514.062 86.25 510.75 88.0625C507.5 89.8125 503.688 90.6875 499.312 90.6875C494.938 90.6875 491.125 89.8438 487.875 88.1562C484.625 86.4062 482.094 84.125 480.281 81.3125C478.531 78.4375 477.219 75.4375 476.344 72.3125C475.531 69.1875 475.125 65.9375 475.125 62.5625ZM563.719 54.0312C563.719 35.6562 569.344 19.1875 580.594 4.625L588.188 8.9375C584.062 15.625 581.281 20.625 579.844 23.9375C575.969 32.75 574.031 42.7812 574.031 54.0312C574.031 60.8438 574.75 67.1875 576.188 73.0625C577.688 78.9375 579.312 83.625 581.062 87.125C582.812 90.5625 585.188 94.5625 588.188 99.125L580.594 103.438C575.344 96.3125 571.219 88.8438 568.219 81.0312C565.219 73.2188 563.719 64.2188 563.719 54.0312ZM595.5 25.3438V16.1562H649.031V25.3438H627.656V89H616.969V25.3438H595.5ZM657.375 26.9375V15.125H668.906V26.9375H657.375ZM658.125 89V36.125H668.344V89H658.125ZM683.25 89V36.125H693.094V42.5C694.156 40.4375 695.844 38.5938 698.156 36.9688C700.469 35.2812 703.25 34.4375 706.5 34.4375C709.375 34.4375 711.719 34.8438 713.531 35.6562V45.125C711.469 44.3125 709.125 43.9062 706.5 43.9062C702.375 43.9062 699.188 45.5 696.938 48.6875C694.75 51.8125 693.656 56 693.656 61.25V89H683.25ZM726.75 74.5625C726.75 76.6875 727.594 78.4688 729.281 79.9062C731.031 81.3438 733.375 82.0625 736.312 82.0625C740.312 82.0625 743.719 80.7812 746.531 78.2188C749.344 75.5938 750.75 72.1875 750.75 68V62.2812C747.875 62.9688 744.094 63.6875 739.406 64.4375C735.156 65.125 731.969 66.2812 729.844 67.9062C727.781 69.5312 726.75 71.75 726.75 74.5625ZM716.25 75.4062C716.25 65.5312 723.719 59.4375 738.656 57.125C744.844 56.1875 748.875 55.4062 750.75 54.7812V51.875C750.75 49.0625 749.719 46.8438 747.656 45.2188C745.656 43.5312 742.938 42.6875 739.5 42.6875C733.438 42.6875 728.281 45.1562 724.031 50.0938L717.656 44.6562C720.344 41.4688 723.562 38.9688 727.312 37.1562C731.125 35.3438 735.125 34.4375 739.312 34.4375C753.812 34.4375 761.062 41.5625 761.062 55.8125V89H751.031V81.6875C749.969 84.125 747.969 86.25 745.031 88.0625C742.094 89.8125 738.688 90.6875 734.812 90.6875C729.062 90.6875 724.531 89.2812 721.219 86.4688C717.906 83.5938 716.25 79.9062 716.25 75.4062ZM770.812 62.4688C770.812 53.7812 772.906 46.9375 777.094 41.9375C781.344 36.9375 786.719 34.4375 793.219 34.4375C796.531 34.4375 799.438 35.3125 801.938 37.0625C804.438 38.8125 806.281 40.8125 807.469 43.0625V13.625H817.781V89H807.75V81.3125C806.562 83.9375 804.656 86.1562 802.031 87.9688C799.469 89.7812 796.531 90.6875 793.219 90.6875C790.469 90.6875 787.812 90.1562 785.25 89.0938C782.75 88.0312 780.375 86.4375 778.125 84.3125C775.938 82.1875 774.156 79.25 772.781 75.5C771.469 71.6875 770.812 67.3438 770.812 62.4688ZM781.312 62.4688C781.312 68.5312 782.531 73.3125 784.969 76.8125C787.469 80.25 790.688 81.9688 794.625 81.9688C798.375 81.9688 801.469 80.2188 803.906 76.7188C806.406 73.2188 807.656 68.4688 807.656 62.4688C807.656 56.6562 806.438 52 804 48.5C801.562 45 798.438 43.25 794.625 43.25C790.5 43.25 787.25 45 784.875 48.5C782.5 52 781.312 56.6562 781.312 62.4688ZM828.75 62.2812C828.75 53.9062 831.031 47.1875 835.594 42.125C840.219 37 846.062 34.4375 853.125 34.4375C860.188 34.4375 865.906 36.9688 870.281 42.0312C874.719 47.0938 876.938 53.625 876.938 61.625C876.938 61.75 876.844 63.2188 876.656 66.0312H839.156C839.156 70.4688 840.438 74.2812 843 77.4688C845.562 80.6562 849.125 82.25 853.688 82.25C856.75 82.25 859.469 81.5 861.844 80C864.219 78.5 866.031 76.5625 867.281 74.1875L875.906 77.0938C874.219 81.0312 871.469 84.2812 867.656 86.8438C863.906 89.4062 859.219 90.6875 853.594 90.6875C846.219 90.6875 840.219 88.125 835.594 83C831.031 77.8125 828.75 70.9062 828.75 62.2812ZM839.344 58.625H866.438C866.438 54.1875 865.25 50.4375 862.875 47.375C860.5 44.3125 857.25 42.7812 853.125 42.7812C848.938 42.7812 845.625 44.3438 843.188 47.4688C840.75 50.5938 839.469 54.3125 839.344 58.625ZM887.156 89V36.125H897.188V43.5312H897.281C898.094 41.4062 899.844 39.375 902.531 37.4375C905.281 35.4375 908.656 34.4375 912.656 34.4375C917.781 34.4375 921.906 36.0312 925.031 39.2188C928.156 42.4062 929.719 47.6562 929.719 54.9688V89H919.406V56.375C919.406 47.625 916.375 43.25 910.312 43.25C906.75 43.25 903.719 44.7188 901.219 47.6562C898.781 50.5312 897.562 54.0312 897.562 58.1562V89H887.156ZM937.219 44.9375V36.125H945.75V20.0938H956.062V36.125H968.719V44.9375H956.062V72.5C956.062 75.25 956.594 77.2188 957.656 78.4062C958.781 79.5938 960.469 80.1875 962.719 80.1875H968.719V89H961.406C950.969 89 945.75 83.75 945.75 73.25V44.9375H937.219ZM975.188 62.2812C975.188 53.9062 977.469 47.1875 982.031 42.125C986.656 37 992.5 34.4375 999.562 34.4375C1006.62 34.4375 1012.34 36.9688 1016.72 42.0312C1021.16 47.0938 1023.38 53.625 1023.38 61.625C1023.38 61.75 1023.28 63.2188 1023.09 66.0312H985.594C985.594 70.4688 986.875 74.2812 989.438 77.4688C992 80.6562 995.562 82.25 1000.12 82.25C1003.19 82.25 1005.91 81.5 1008.28 80C1010.66 78.5 1012.47 76.5625 1013.72 74.1875L1022.34 77.0938C1020.66 81.0312 1017.91 84.2812 1014.09 86.8438C1010.34 89.4062 1005.66 90.6875 1000.03 90.6875C992.656 90.6875 986.656 88.125 982.031 83C977.469 77.8125 975.188 70.9062 975.188 62.2812ZM985.781 58.625H1012.88C1012.88 54.1875 1011.69 50.4375 1009.31 47.375C1006.94 44.3125 1003.69 42.7812 999.562 42.7812C995.375 42.7812 992.062 44.3438 989.625 47.4688C987.188 50.5938 985.906 54.3125 985.781 58.625ZM1029.47 78.125L1036.97 73.8125C1040.78 79.4375 1045.69 82.25 1051.69 82.25C1054.88 82.25 1057.44 81.625 1059.38 80.375C1061.31 79.0625 1062.28 77.3438 1062.28 75.2188C1062.28 72.4688 1060.22 70.2188 1056.09 68.4688C1054.78 67.8438 1051.81 66.8125 1047.19 65.375C1045 64.6875 1043.09 64 1041.47 63.3125C1039.91 62.5625 1038.28 61.5938 1036.59 60.4062C1034.97 59.1562 1033.72 57.625 1032.84 55.8125C1031.97 54 1031.53 51.9375 1031.53 49.625C1031.53 45.0625 1033.44 41.4062 1037.25 38.6562C1041.06 35.8438 1045.91 34.4375 1051.78 34.4375C1056.09 34.4375 1060.12 35.5938 1063.88 37.9062C1067.62 40.2188 1070.41 43.0625 1072.22 46.4375L1065.38 50.6562C1061.81 45.4688 1057.28 42.875 1051.78 42.875C1048.59 42.875 1046.16 43.5312 1044.47 44.8438C1042.78 46.0938 1041.94 47.75 1041.94 49.8125C1041.94 50.9375 1042.25 51.9688 1042.88 52.9062C1043.5 53.8438 1044.12 54.5938 1044.75 55.1562C1045.44 55.7188 1046.56 56.3438 1048.12 57.0312C1049.75 57.6562 1050.94 58.0938 1051.69 58.3438C1052.5 58.5938 1053.88 59.0312 1055.81 59.6562C1067.19 63.1562 1072.88 68.375 1072.88 75.3125C1072.88 79.625 1071.03 83.2812 1067.34 86.2812C1063.66 89.2188 1058.5 90.6875 1051.88 90.6875C1046.94 90.6875 1042.5 89.5625 1038.56 87.3125C1034.62 85.0625 1031.59 82 1029.47 78.125ZM1080.19 104.938L1088.72 75.5938H1101.28L1088.53 104.938H1080.19ZM1142.72 89V16.1562H1156.03L1169.81 51.7812C1170.62 54.0938 1171.75 57.3438 1173.19 61.5312C1174.69 65.6562 1175.75 68.5938 1176.38 70.3438H1176.75C1177.12 69.3438 1179.38 63.1562 1183.5 51.7812L1197.09 16.1562H1210.59V89H1199.91V53.375C1199.91 48.5625 1200.31 41.0938 1201.12 30.9688H1200.75L1195.97 44.6562L1180.78 84.4062H1172.53L1157.34 44.6562L1152.47 30.875H1152C1152.94 41.0625 1153.41 48.5625 1153.41 53.375V89H1142.72ZM1223.44 52.625C1223.44 41.4375 1226.38 32.2812 1232.25 25.1562C1238.12 18.0312 1246.03 14.4688 1255.97 14.4688C1259.53 14.4688 1262.84 15.0625 1265.91 16.25C1269.03 17.375 1271.59 18.875 1273.59 20.75C1275.66 22.5625 1277.31 24.3438 1278.56 26.0938C1279.81 27.7812 1280.84 29.5 1281.66 31.25L1272.47 34.25C1270.47 31.0625 1268.22 28.5 1265.72 26.5625C1263.22 24.625 1259.97 23.6562 1255.97 23.6562C1249.22 23.6562 1243.94 26.3125 1240.12 31.625C1236.38 36.9375 1234.5 43.9375 1234.5 52.625C1234.5 61.5625 1236.44 68.625 1240.31 73.8125C1244.19 78.9375 1249.25 81.5 1255.5 81.5C1261 81.5 1265.28 79.8438 1268.34 76.5312C1271.47 73.1562 1273.16 69.0312 1273.41 64.1562C1273.47 63.0938 1273.5 61 1273.5 57.875H1254.75V48.7812H1283.91V89H1276.41L1275.56 80.4688C1271.56 87.2812 1264.78 90.6875 1255.22 90.6875C1245.97 90.6875 1238.34 87.2812 1232.34 80.4688C1226.41 73.5938 1223.44 64.3125 1223.44 52.625ZM1295.91 99.125C1300.72 91.875 1304.25 84.8125 1306.5 77.9375C1308.81 71 1309.97 63.0312 1309.97 54.0312C1309.97 48.7188 1309.59 43.8125 1308.84 39.3125C1308.16 34.8125 1307.03 30.6875 1305.47 26.9375C1303.91 23.1875 1302.47 20.0938 1301.16 17.6562C1299.84 15.2188 1298.09 12.3125 1295.91 8.9375L1303.41 4.625C1314.66 19.375 1320.28 35.8438 1320.28 54.0312C1320.28 64.2812 1318.78 73.3125 1315.78 81.125C1312.78 88.9375 1308.66 96.375 1303.41 103.438L1295.91 99.125Z" fill="#494953"/>
<path d="M104.495 501.237C104.495 527.587 82.5715 548.969 55.5 548.969C28.4285 548.969 6.5051 527.587 6.5051 501.237C6.5051 474.888 28.4285 453.505 55.5 453.505C82.5715 453.505 104.495 474.888 104.495 501.237Z" fill="#00FF9E" stroke="black" stroke-width="1.0102"/>
<path d="M104.495 633.237C104.495 659.587 82.5715 680.969 55.5 680.969C28.4285 680.969 6.5051 659.587 6.5051 633.237C6.5051 606.888 28.4285 585.505 55.5 585.505C82.5715 585.505 104.495 606.888 104.495 633.237Z" fill="#004128" stroke="black" stroke-width="1.0102"/>
<path d="M493.495 633.237C493.495 659.587 471.572 680.969 444.5 680.969C417.428 680.969 395.505 659.587 395.505 633.237C395.505 606.888 417.428 585.505 444.5 585.505C471.572 585.505 493.495 606.888 493.495 633.237Z" fill="#7BA700" stroke="black" stroke-width="1.0102"/>
<path d="M465.495 501.237C465.495 527.587 443.572 548.969 416.5 548.969C389.428 548.969 367.505 527.587 367.505 501.237C367.505 474.888 389.428 453.505 416.5 453.505C443.572 453.505 465.495 474.888 465.495 501.237Z" fill="#8FFFE4" stroke="black" stroke-width="1.0102"/>
<path d="M928.495 501.237C928.495 527.587 906.572 548.969 879.5 548.969C852.428 548.969 830.505 527.587 830.505 501.237C830.505 474.888 852.428 453.505 879.5 453.505C906.572 453.505 928.495 474.888 928.495 501.237Z" fill="#00C97C" stroke="black" stroke-width="1.0102"/>
<path d="M935.495 633.237C935.495 659.587 913.572 680.969 886.5 680.969C859.428 680.969 837.505 659.587 837.505 633.237C837.505 606.888 859.428 585.505 886.5 585.505C913.572 585.505 935.495 606.888 935.495 633.237Z" fill="#E3FF93" stroke="black" stroke-width="1.0102"/>
<rect x="7" y="195" width="1485" height="233" rx="21" fill="#00FF9E" stroke="black" stroke-width="2"/>
</svg>
