<svg width="787" height="383" viewBox="0 0 787 383" fill="none" xmlns="http://www.w3.org/2000/svg">
<path d="M0.159461 189.522C0.159461 170.05 5.59038 154.684 16.4522 143.425C27.3141 132.166 40.7589 126.536 56.7868 126.536C72.2848 126.536 85.3985 132.365 96.1278 144.021C106.99 155.545 112.421 170.712 112.421 189.522C112.421 193.363 112.222 197.205 111.825 201.046H32.3476C32.3476 208.596 34.7319 215.021 39.5005 220.319C44.2691 225.485 50.6935 228.068 58.7737 228.068C64.7345 228.068 69.9005 226.611 74.2717 223.697C78.7754 220.65 82.1531 216.809 84.405 212.173L110.831 221.511C106.857 230.386 100.367 237.937 91.3592 244.162C82.3518 250.255 71.1588 253.302 57.7802 253.302C40.9576 253.302 27.1154 247.54 16.2535 236.016C5.52415 224.492 0.159461 208.994 0.159461 189.522ZM32.5463 179.389H80.0338C80.0338 171.706 77.9806 165.149 73.8743 159.718C69.9005 154.155 64.2046 151.373 56.7868 151.373C49.2365 151.373 43.2757 154.155 38.9045 159.718C34.6657 165.281 32.5463 171.838 32.5463 179.389ZM121.958 223.896L144.211 210.782C152.292 222.174 162.425 227.869 174.611 227.869C179.645 227.869 183.552 226.81 186.334 224.69C189.248 222.439 190.705 219.723 190.705 216.544C190.705 215.484 190.507 214.425 190.109 213.365C189.844 212.305 189.315 211.378 188.52 210.583C187.857 209.656 187.129 208.861 186.334 208.199C185.539 207.537 184.413 206.874 182.956 206.212C181.632 205.417 180.44 204.821 179.38 204.424C178.32 203.894 176.863 203.298 175.009 202.636C173.287 201.973 171.83 201.51 170.637 201.245C169.445 200.847 167.79 200.317 165.67 199.655C163.551 198.993 161.961 198.463 160.902 198.066C150.834 194.754 142.754 190.449 136.661 185.151C130.7 179.852 127.72 172.103 127.72 161.904C127.72 151.042 132.356 142.432 141.628 136.074C151.033 129.715 162.094 126.536 174.81 126.536C184.745 126.536 194.216 129.186 203.223 134.484C212.363 139.65 219.185 146.472 223.688 154.949L202.826 167.268C194.348 157.069 185.142 151.969 175.207 151.969C170.439 151.969 166.664 152.962 163.882 154.949C161.233 156.936 159.908 159.453 159.908 162.5C159.908 163.957 160.173 165.348 160.703 166.672C161.233 167.864 162.094 168.99 163.286 170.05C164.61 171.11 165.803 172.037 166.862 172.832C168.054 173.626 169.71 174.421 171.83 175.216C174.081 176.011 175.803 176.673 176.996 177.203C178.32 177.6 180.373 178.263 183.155 179.19C185.937 179.985 187.924 180.581 189.116 180.978C211.899 188.661 223.291 200.649 223.291 216.941C223.291 227.008 219.185 235.618 210.972 242.771C202.759 249.792 190.97 253.302 175.605 253.302C163.551 253.302 152.755 250.653 143.218 245.354C133.813 239.923 126.726 232.771 121.958 223.896ZM232.033 156.936V130.113H249.121V96.1364H280.514V130.113H305.351V156.936H280.514V209.59C280.514 218.332 284.356 222.703 292.038 222.703H305.55V249.726H288.065C262.102 249.726 249.121 236.943 249.121 211.378V156.936H232.033ZM324.823 117.397V84.811H356.812V117.397H324.823ZM325.22 249.726V130.113H356.613V249.726H325.22ZM383.834 249.726V82.0293H415.228V170.249L451.986 130.113H491.128L446.224 179.19L492.718 249.726H455.96L425.758 201.443L415.228 212.968V249.726H383.834ZM527.886 214.358C527.886 217.935 529.277 220.981 532.059 223.498C534.84 225.883 538.417 227.075 542.788 227.075C549.809 227.075 555.769 224.69 560.67 219.922C565.571 215.153 568.022 208.795 568.022 200.847V192.9C560.339 194.754 554.246 196.012 549.742 196.675C535.172 198.794 527.886 204.689 527.886 214.358ZM495.698 217.14C495.698 206.278 499.871 197.271 508.216 190.118C516.561 182.965 528.813 178.196 544.974 175.812C558.22 173.693 565.903 172.302 568.022 171.64V165.48C568.022 160.579 566.3 157.003 562.856 154.751C559.544 152.366 555.173 151.174 549.742 151.174C537.291 151.174 526.562 156.075 517.554 165.877L498.877 149.783C511.858 134.285 528.681 126.536 549.345 126.536C567.625 126.536 580.606 130.908 588.289 139.65C595.971 148.393 599.813 160.778 599.813 176.806V249.726H569.015V237.407C566.631 241.91 562.657 245.686 557.094 248.732C551.531 251.779 545.172 253.302 538.02 253.302C525.038 253.302 514.706 249.991 507.024 243.367C499.473 236.612 495.698 227.869 495.698 217.14Z" fill="#02A767"/>
<path d="M15.8228 331.071V294.237H40.3266V299.566H22.2492V309.702H39.1772V315.031H22.2492V325.742H40.3266V331.071H15.8228ZM59.1833 331.593C56.2923 331.593 53.6103 331.228 51.1373 330.496C48.6642 329.73 46.5744 328.702 44.8676 327.414L46.9053 322.137C48.612 323.356 50.4755 324.296 52.4957 324.958C54.5507 325.62 56.7799 325.951 59.1833 325.951C61.935 325.951 63.9378 325.498 65.1917 324.592C66.4456 323.652 67.0726 322.45 67.0726 320.987C67.0726 319.768 66.6198 318.81 65.7142 318.114C64.8434 317.417 63.3282 316.842 61.1687 316.389L55.4215 315.188C48.8732 313.794 45.5991 310.433 45.5991 305.104C45.5991 302.805 46.2086 300.802 47.4277 299.096C48.6468 297.389 50.3361 296.065 52.4957 295.125C54.6552 294.184 57.1457 293.714 59.967 293.714C62.4749 293.714 64.826 294.097 67.0203 294.864C69.2147 295.595 71.0434 296.64 72.5063 297.998L70.4686 303.014C67.5776 300.576 64.0597 299.357 59.9148 299.357C57.5114 299.357 55.6305 299.862 54.2721 300.872C52.9137 301.882 52.2345 303.206 52.2345 304.843C52.2345 306.097 52.6524 307.107 53.4884 307.873C54.3243 308.605 55.7524 309.179 57.7726 309.597L63.4676 310.799C66.9159 311.53 69.476 312.68 71.1479 314.247C72.8546 315.815 73.708 317.905 73.708 320.517C73.708 322.711 73.1158 324.644 71.9316 326.316C70.7473 327.988 69.058 329.294 66.8636 330.235C64.7041 331.14 62.144 331.593 59.1833 331.593ZM87.5644 331.071V299.827H74.9207V294.237H106.896V299.827H94.252V331.071H87.5644ZM111.133 331.071V294.237H117.82V331.071H111.133ZM142.964 331.593C139.133 331.593 135.841 330.827 133.089 329.294C130.373 327.727 128.283 325.533 126.82 322.711C125.357 319.855 124.625 316.494 124.625 312.628C124.625 308.761 125.357 305.418 126.82 302.596C128.283 299.775 130.373 297.598 133.089 296.065C135.841 294.498 139.133 293.714 142.964 293.714C145.437 293.714 147.771 294.097 149.965 294.864C152.194 295.63 154.023 296.727 155.451 298.155L153.257 303.484C151.689 302.161 150.087 301.203 148.45 300.611C146.813 299.984 145.054 299.67 143.173 299.67C139.446 299.67 136.607 300.802 134.657 303.066C132.706 305.296 131.731 308.483 131.731 312.628C131.731 316.773 132.706 319.977 134.657 322.241C136.607 324.505 139.446 325.637 143.173 325.637C145.054 325.637 146.813 325.341 148.45 324.749C150.087 324.122 151.689 323.147 153.257 321.823L155.451 327.152C154.023 328.546 152.194 329.643 149.965 330.444C147.771 331.21 145.437 331.593 142.964 331.593ZM156.552 331.071L173.218 294.237H178.704L195.371 331.071H188.579L184.922 322.555H166.949L163.344 331.071H156.552ZM175.883 301.499L169.248 317.225H182.623L175.987 301.499H175.883ZM199.401 331.071V294.237H204.417L224.219 319.942V294.237H230.436V331.071H225.473L205.619 305.261V331.071H199.401ZM238.485 331.071V294.237H252.173C258.338 294.237 263.093 295.822 266.437 298.991C269.815 302.161 271.505 306.706 271.505 312.628C271.505 318.514 269.815 323.06 266.437 326.264C263.093 329.469 258.338 331.071 252.173 331.071H238.485ZM245.172 325.533H251.755C260.254 325.533 264.504 321.231 264.504 312.628C264.504 304.059 260.254 299.775 251.755 299.775H245.172V325.533ZM294.792 331.593C291.239 331.593 288.122 330.81 285.44 329.242C282.793 327.675 280.738 325.48 279.275 322.659C277.812 319.803 277.08 316.459 277.08 312.628C277.08 308.761 277.812 305.418 279.275 302.596C280.738 299.775 282.793 297.598 285.44 296.065C288.087 294.498 291.205 293.714 294.792 293.714C298.38 293.714 301.497 294.498 304.144 296.065C306.792 297.598 308.847 299.775 310.309 302.596C311.772 305.418 312.504 308.744 312.504 312.575C312.504 316.442 311.772 319.803 310.309 322.659C308.847 325.48 306.792 327.675 304.144 329.242C301.497 330.81 298.38 331.593 294.792 331.593ZM294.792 325.846C298.171 325.846 300.801 324.679 302.681 322.346C304.562 320.012 305.503 316.773 305.503 312.628C305.503 308.448 304.562 305.209 302.681 302.91C300.835 300.611 298.206 299.461 294.792 299.461C291.414 299.461 288.784 300.611 286.903 302.91C285.022 305.209 284.082 308.448 284.082 312.628C284.082 316.773 285.022 320.012 286.903 322.346C288.784 324.679 291.414 325.846 294.792 325.846ZM346.082 331.593C343.191 331.593 340.509 331.228 338.036 330.496C335.563 329.73 333.473 328.702 331.767 327.414L333.804 322.137C335.511 323.356 337.375 324.296 339.395 324.958C341.45 325.62 343.679 325.951 346.082 325.951C348.834 325.951 350.837 325.498 352.091 324.592C353.345 323.652 353.972 322.45 353.972 320.987C353.972 319.768 353.519 318.81 352.613 318.114C351.742 317.417 350.227 316.842 348.068 316.389L342.321 315.188C335.772 313.794 332.498 310.433 332.498 305.104C332.498 302.805 333.108 300.802 334.327 299.096C335.546 297.389 337.235 296.065 339.395 295.125C341.554 294.184 344.045 293.714 346.866 293.714C349.374 293.714 351.725 294.097 353.919 294.864C356.114 295.595 357.942 296.64 359.405 297.998L357.368 303.014C354.477 300.576 350.959 299.357 346.814 299.357C344.41 299.357 342.53 299.862 341.171 300.872C339.813 301.882 339.133 303.206 339.133 304.843C339.133 306.097 339.551 307.107 340.387 307.873C341.223 308.605 342.651 309.179 344.672 309.597L350.367 310.799C353.815 311.53 356.375 312.68 358.047 314.247C359.754 315.815 360.607 317.905 360.607 320.517C360.607 322.711 360.015 324.644 358.831 326.316C357.646 327.988 355.957 329.294 353.763 330.235C351.603 331.14 349.043 331.593 346.082 331.593ZM366.347 331.071V294.237H390.851V299.566H372.773V309.702H389.701V315.031H372.773V325.742H390.851V331.071H366.347ZM412.83 331.593C407.779 331.593 403.913 330.287 401.231 327.675C398.584 325.028 397.26 321.126 397.26 315.971V294.237H403.948V315.919C403.948 319.228 404.697 321.719 406.194 323.39C407.727 325.028 409.939 325.846 412.83 325.846C418.716 325.846 421.66 322.537 421.66 315.919V294.237H428.295V315.971C428.295 321.126 426.989 325.028 424.376 327.675C421.764 330.287 417.915 331.593 412.83 331.593ZM450.177 331.071V294.237H455.192L474.994 319.942V294.237H481.211V331.071H476.248L456.394 305.261V331.071H450.177ZM489.26 331.071V294.237H513.764V299.566H495.686V309.702H512.614V315.031H495.686V325.742H513.764V331.071H489.26ZM538.095 331.593C534.02 331.593 530.572 330.827 527.75 329.294C524.964 327.762 522.839 325.585 521.376 322.764C519.913 319.942 519.182 316.598 519.182 312.732C519.182 308.831 519.931 305.47 521.428 302.648C522.926 299.792 525.086 297.598 527.907 296.065C530.728 294.498 534.107 293.714 538.043 293.714C540.62 293.714 543.041 294.097 545.305 294.864C547.569 295.595 549.45 296.623 550.948 297.946L548.701 303.171C547.064 301.882 545.392 300.959 543.686 300.402C541.979 299.845 540.098 299.566 538.043 299.566C534.142 299.566 531.181 300.698 529.161 302.962C527.176 305.226 526.183 308.483 526.183 312.732C526.183 317.016 527.21 320.273 529.265 322.502C531.32 324.732 534.368 325.846 538.409 325.846C539.558 325.846 540.725 325.759 541.909 325.585C543.128 325.376 544.33 325.08 545.514 324.697V316.128H537.05V311.165H551.105V328.876C549.398 329.712 547.378 330.374 545.044 330.862C542.71 331.349 540.394 331.593 538.095 331.593ZM575.364 331.593C571.812 331.593 568.694 330.81 566.012 329.242C563.365 327.675 561.31 325.48 559.847 322.659C558.384 319.803 557.653 316.459 557.653 312.628C557.653 308.761 558.384 305.418 559.847 302.596C561.31 299.775 563.365 297.598 566.012 296.065C568.659 294.498 571.777 293.714 575.364 293.714C578.952 293.714 582.069 294.498 584.717 296.065C587.364 297.598 589.419 299.775 590.882 302.596C592.345 305.418 593.076 308.744 593.076 312.575C593.076 316.442 592.345 319.803 590.882 322.659C589.419 325.48 587.364 327.675 584.717 329.242C582.069 330.81 578.952 331.593 575.364 331.593ZM575.364 325.846C578.743 325.846 581.373 324.679 583.254 322.346C585.135 320.012 586.075 316.773 586.075 312.628C586.075 308.448 585.135 305.209 583.254 302.91C581.408 300.611 578.778 299.461 575.364 299.461C571.986 299.461 569.356 300.611 567.475 302.91C565.594 305.209 564.654 308.448 564.654 312.628C564.654 316.773 565.594 320.012 567.475 322.346C569.356 324.679 571.986 325.846 575.364 325.846ZM573.013 291.102L579.178 282.011H585.971L577.663 291.102H573.013ZM617.013 331.593C613.182 331.593 609.89 330.827 607.139 329.294C604.422 327.727 602.332 325.533 600.869 322.711C599.406 319.855 598.675 316.494 598.675 312.628C598.675 308.761 599.406 305.418 600.869 302.596C602.332 299.775 604.422 297.598 607.139 296.065C609.89 294.498 613.182 293.714 617.013 293.714C619.486 293.714 621.82 294.097 624.015 294.864C626.244 295.63 628.072 296.727 629.5 298.155L627.306 303.484C625.739 302.161 624.136 301.203 622.499 300.611C620.862 299.984 619.103 299.67 617.222 299.67C613.495 299.67 610.657 300.802 608.706 303.066C606.756 305.296 605.78 308.483 605.78 312.628C605.78 316.773 606.756 319.977 608.706 322.241C610.657 324.505 613.495 325.637 617.222 325.637C619.103 325.637 620.862 325.341 622.499 324.749C624.136 324.122 625.739 323.147 627.306 321.823L629.5 327.152C628.072 328.546 626.244 329.643 624.015 330.444C621.82 331.21 619.486 331.593 617.013 331.593ZM635.337 331.071V294.237H642.025V331.071H635.337ZM666.541 331.593C662.989 331.593 659.871 330.81 657.189 329.242C654.542 327.675 652.487 325.48 651.024 322.659C649.561 319.803 648.83 316.459 648.83 312.628C648.83 308.761 649.561 305.418 651.024 302.596C652.487 299.775 654.542 297.598 657.189 296.065C659.836 294.498 662.954 293.714 666.541 293.714C670.129 293.714 673.247 294.498 675.894 296.065C678.541 297.598 680.596 299.775 682.059 302.596C683.522 305.418 684.253 308.744 684.253 312.575C684.253 316.442 683.522 319.803 682.059 322.659C680.596 325.48 678.541 327.675 675.894 329.242C673.247 330.81 670.129 331.593 666.541 331.593ZM666.541 325.846C669.92 325.846 672.55 324.679 674.431 322.346C676.312 320.012 677.252 316.773 677.252 312.628C677.252 308.448 676.312 305.209 674.431 302.91C672.585 300.611 669.955 299.461 666.541 299.461C663.163 299.461 660.533 300.611 658.652 302.91C656.771 305.209 655.831 308.448 655.831 312.628C655.831 316.773 656.771 320.012 658.652 322.346C660.533 324.679 663.163 325.846 666.541 325.846Z" fill="#494953"/>
<path fill-rule="evenodd" clip-rule="evenodd" d="M644.504 6.8329C644.504 5.0207 643.784 3.28273 642.502 2.00131C641.221 0.719893 639.483 0 637.671 0C635.859 0 634.121 0.719893 632.839 2.00131C631.558 3.28273 630.838 5.0207 630.838 6.8329V20.4987C630.838 22.3109 631.558 24.0489 632.839 25.3303C634.121 26.6117 635.859 27.3316 637.671 27.3316C639.483 27.3316 641.221 26.6117 642.502 25.3303C643.784 24.0489 644.504 22.3109 644.504 20.4987V6.8329ZM599.017 20.0136C597.723 18.7997 596.007 18.137 594.232 18.1658C592.458 18.1946 590.764 18.9127 589.51 20.168C588.255 21.4232 587.539 23.1173 587.511 24.8917C587.484 26.6661 588.147 28.3817 589.362 29.6753L599.024 39.337C600.313 40.5817 602.039 41.2704 603.83 41.2548C605.622 41.2393 607.336 40.5207 608.602 39.2538C609.869 37.9869 610.588 36.2731 610.603 34.4816C610.619 32.69 609.93 30.964 608.686 29.6753L599.017 20.0136ZM685.986 29.6753C687.231 28.3866 687.92 26.6606 687.904 24.869C687.889 23.0775 687.17 21.3637 685.903 20.0968C684.636 18.8299 682.922 18.1113 681.131 18.0958C679.339 18.0802 677.613 18.7689 676.325 20.0136L666.663 29.6753C665.418 30.964 664.729 32.69 664.745 34.4816C664.761 36.2731 665.479 37.9869 666.746 39.2538C668.013 40.5207 669.727 41.2393 671.518 41.2548C673.31 41.2704 675.036 40.5817 676.325 39.337L685.986 29.6753ZM637.671 34.1645C628.61 34.1645 619.92 37.764 613.513 44.1711C607.106 50.5782 603.506 59.268 603.506 68.329C603.506 77.39 607.106 86.0799 613.513 92.487C619.92 98.8941 628.61 102.494 637.671 102.494C646.732 102.494 655.422 98.8941 661.829 92.487C668.236 86.0799 671.835 77.39 671.835 68.329C671.835 59.268 668.236 50.5782 661.829 44.1711C655.422 37.764 646.732 34.1645 637.671 34.1645ZM576.175 61.4961C574.363 61.4961 572.625 62.216 571.343 63.4974C570.062 64.7789 569.342 66.5168 569.342 68.329C569.342 70.1412 570.062 71.8792 571.343 73.1606C572.625 74.442 574.363 75.1619 576.175 75.1619H589.841C591.653 75.1619 593.391 74.442 594.672 73.1606C595.954 71.8792 596.673 70.1412 596.673 68.329C596.673 66.5168 595.954 64.7789 594.672 63.4974C593.391 62.216 591.653 61.4961 589.841 61.4961H576.175ZM685.501 61.4961C683.689 61.4961 681.951 62.216 680.67 63.4974C679.388 64.7789 678.668 66.5168 678.668 68.329C678.668 70.1412 679.388 71.8792 680.67 73.1606C681.951 74.442 683.689 75.1619 685.501 75.1619H699.167C700.979 75.1619 702.717 74.442 703.999 73.1606C705.28 71.8792 706 70.1412 706 68.329C706 66.5168 705.28 64.7789 703.999 63.4974C702.717 62.216 700.979 61.4961 699.167 61.4961H685.501ZM608.679 106.983C609.331 106.352 609.852 105.598 610.21 104.765C610.568 103.931 610.757 103.035 610.765 102.127C610.772 101.22 610.6 100.32 610.256 99.4806C609.912 98.6408 609.405 97.8779 608.764 97.2363C608.122 96.5948 607.359 96.0874 606.519 95.7439C605.68 95.4003 604.78 95.2274 603.873 95.2353C602.965 95.2432 602.069 95.4317 601.235 95.7898C600.401 96.1479 599.647 96.6684 599.017 97.321L589.355 106.983C588.703 107.613 588.182 108.367 587.824 109.201C587.466 110.034 587.278 110.931 587.27 111.838C587.262 112.745 587.435 113.645 587.778 114.485C588.122 115.325 588.629 116.088 589.271 116.729C589.912 117.371 590.675 117.878 591.515 118.222C592.355 118.565 593.254 118.738 594.162 118.73C595.069 118.722 595.966 118.534 596.799 118.176C597.633 117.818 598.387 117.297 599.017 116.644L608.679 106.983ZM676.325 97.321C675.036 96.0764 673.31 95.3877 671.518 95.4032C669.727 95.4188 668.013 96.1374 666.746 97.4043C665.479 98.6712 664.761 100.385 664.745 102.176C664.729 103.968 665.418 105.694 666.663 106.983L676.325 116.644C677.613 117.889 679.339 118.578 681.131 118.562C682.922 118.547 684.636 117.828 685.903 116.561C687.17 115.294 687.889 113.581 687.904 111.789C687.92 109.997 687.231 108.271 685.986 106.983L676.325 97.321ZM644.504 116.159C644.504 114.347 643.784 112.609 642.502 111.328C641.221 110.046 639.483 109.326 637.671 109.326C635.859 109.326 634.121 110.046 632.839 111.328C631.558 112.609 630.838 114.347 630.838 116.159V129.825C630.838 131.637 631.558 133.375 632.839 134.657C634.121 135.938 635.859 136.658 637.671 136.658C639.483 136.658 641.221 135.938 642.502 134.657C643.784 133.375 644.504 131.637 644.504 129.825V116.159Z" fill="#02A767"/>
<path d="M0.159461 189.522C0.159461 170.05 5.59038 154.684 16.4522 143.425C27.3141 132.166 40.7589 126.536 56.7868 126.536C72.2848 126.536 85.3985 132.365 96.1278 144.021C106.99 155.545 112.421 170.712 112.421 189.522C112.421 193.363 112.222 197.205 111.825 201.046H32.3476C32.3476 208.596 34.7319 215.021 39.5005 220.319C44.2691 225.485 50.6935 228.068 58.7737 228.068C64.7345 228.068 69.9005 226.611 74.2717 223.697C78.7754 220.65 82.1531 216.809 84.405 212.173L110.831 221.511C106.857 230.386 100.367 237.937 91.3592 244.162C82.3518 250.255 71.1588 253.302 57.7802 253.302C40.9576 253.302 27.1154 247.54 16.2535 236.016C5.52415 224.492 0.159461 208.994 0.159461 189.522ZM32.5463 179.389H80.0338C80.0338 171.706 77.9806 165.149 73.8743 159.718C69.9005 154.155 64.2046 151.373 56.7868 151.373C49.2365 151.373 43.2757 154.155 38.9045 159.718C34.6657 165.281 32.5463 171.838 32.5463 179.389ZM121.958 223.896L144.211 210.782C152.292 222.174 162.425 227.869 174.611 227.869C179.645 227.869 183.552 226.81 186.334 224.69C189.248 222.439 190.705 219.723 190.705 216.544C190.705 215.484 190.507 214.425 190.109 213.365C189.844 212.305 189.315 211.378 188.52 210.583C187.857 209.656 187.129 208.861 186.334 208.199C185.539 207.537 184.413 206.874 182.956 206.212C181.632 205.417 180.44 204.821 179.38 204.424C178.32 203.894 176.863 203.298 175.009 202.636C173.287 201.973 171.83 201.51 170.637 201.245C169.445 200.847 167.79 200.317 165.67 199.655C163.551 198.993 161.961 198.463 160.902 198.066C150.834 194.754 142.754 190.449 136.661 185.151C130.7 179.852 127.72 172.103 127.72 161.904C127.72 151.042 132.356 142.432 141.628 136.074C151.033 129.715 162.094 126.536 174.81 126.536C184.745 126.536 194.216 129.186 203.223 134.484C212.363 139.65 219.185 146.472 223.688 154.949L202.826 167.268C194.348 157.069 185.142 151.969 175.207 151.969C170.439 151.969 166.664 152.962 163.882 154.949C161.233 156.936 159.908 159.453 159.908 162.5C159.908 163.957 160.173 165.348 160.703 166.672C161.233 167.864 162.094 168.99 163.286 170.05C164.61 171.11 165.803 172.037 166.862 172.832C168.054 173.626 169.71 174.421 171.83 175.216C174.081 176.011 175.803 176.673 176.996 177.203C178.32 177.6 180.373 178.263 183.155 179.19C185.937 179.985 187.924 180.581 189.116 180.978C211.899 188.661 223.291 200.649 223.291 216.941C223.291 227.008 219.185 235.618 210.972 242.771C202.759 249.792 190.97 253.302 175.605 253.302C163.551 253.302 152.755 250.653 143.218 245.354C133.813 239.923 126.726 232.771 121.958 223.896ZM232.033 156.936V130.113H249.121V96.1364H280.514V130.113H305.351V156.936H280.514V209.59C280.514 218.332 284.356 222.703 292.038 222.703H305.55V249.726H288.065C262.102 249.726 249.121 236.943 249.121 211.378V156.936H232.033ZM324.823 117.397V84.811H356.812V117.397H324.823ZM325.22 249.726V130.113H356.613V249.726H325.22ZM383.834 249.726V82.0293H415.228V170.249L451.986 130.113H491.128L446.224 179.19L492.718 249.726H455.96L425.758 201.443L415.228 212.968V249.726H383.834ZM527.886 214.358C527.886 217.935 529.277 220.981 532.059 223.498C534.84 225.883 538.417 227.075 542.788 227.075C549.809 227.075 555.769 224.69 560.67 219.922C565.571 215.153 568.022 208.795 568.022 200.847V192.9C560.339 194.754 554.246 196.012 549.742 196.675C535.172 198.794 527.886 204.689 527.886 214.358ZM495.698 217.14C495.698 206.278 499.871 197.271 508.216 190.118C516.561 182.965 528.813 178.196 544.974 175.812C558.22 173.693 565.903 172.302 568.022 171.64V165.48C568.022 160.579 566.3 157.003 562.856 154.751C559.544 152.366 555.173 151.174 549.742 151.174C537.291 151.174 526.562 156.075 517.554 165.877L498.877 149.783C511.858 134.285 528.681 126.536 549.345 126.536C567.625 126.536 580.606 130.908 588.289 139.65C595.971 148.393 599.813 160.778 599.813 176.806V249.726H569.015V237.407C566.631 241.91 562.657 245.686 557.094 248.732C551.531 251.779 545.172 253.302 538.02 253.302C525.038 253.302 514.706 249.991 507.024 243.367C499.473 236.612 495.698 227.869 495.698 217.14Z" fill="#017649"/>
<path d="M15.8228 331.071V294.237H40.3266V299.566H22.2492V309.702H39.1772V315.031H22.2492V325.742H40.3266V331.071H15.8228ZM59.1833 331.593C56.2923 331.593 53.6103 331.228 51.1373 330.496C48.6642 329.73 46.5744 328.702 44.8676 327.414L46.9053 322.137C48.612 323.356 50.4755 324.296 52.4957 324.958C54.5507 325.62 56.7799 325.951 59.1833 325.951C61.935 325.951 63.9378 325.498 65.1917 324.592C66.4456 323.652 67.0726 322.45 67.0726 320.987C67.0726 319.768 66.6198 318.81 65.7142 318.114C64.8434 317.417 63.3282 316.842 61.1687 316.389L55.4215 315.188C48.8732 313.794 45.5991 310.433 45.5991 305.104C45.5991 302.805 46.2086 300.802 47.4277 299.096C48.6468 297.389 50.3361 296.065 52.4957 295.125C54.6552 294.184 57.1457 293.714 59.967 293.714C62.4749 293.714 64.826 294.097 67.0203 294.864C69.2147 295.595 71.0434 296.64 72.5063 297.998L70.4686 303.014C67.5776 300.576 64.0597 299.357 59.9148 299.357C57.5114 299.357 55.6305 299.862 54.2721 300.872C52.9137 301.882 52.2345 303.206 52.2345 304.843C52.2345 306.097 52.6524 307.107 53.4884 307.873C54.3243 308.605 55.7524 309.179 57.7726 309.597L63.4676 310.799C66.9159 311.53 69.476 312.68 71.1479 314.247C72.8546 315.815 73.708 317.905 73.708 320.517C73.708 322.711 73.1158 324.644 71.9316 326.316C70.7473 327.988 69.058 329.294 66.8636 330.235C64.7041 331.14 62.144 331.593 59.1833 331.593ZM87.5644 331.071V299.827H74.9207V294.237H106.896V299.827H94.252V331.071H87.5644ZM111.133 331.071V294.237H117.82V331.071H111.133ZM142.964 331.593C139.133 331.593 135.841 330.827 133.089 329.294C130.373 327.727 128.283 325.533 126.82 322.711C125.357 319.855 124.625 316.494 124.625 312.628C124.625 308.761 125.357 305.418 126.82 302.596C128.283 299.775 130.373 297.598 133.089 296.065C135.841 294.498 139.133 293.714 142.964 293.714C145.437 293.714 147.771 294.097 149.965 294.864C152.194 295.63 154.023 296.727 155.451 298.155L153.257 303.484C151.689 302.161 150.087 301.203 148.45 300.611C146.813 299.984 145.054 299.67 143.173 299.67C139.446 299.67 136.607 300.802 134.657 303.066C132.706 305.296 131.731 308.483 131.731 312.628C131.731 316.773 132.706 319.977 134.657 322.241C136.607 324.505 139.446 325.637 143.173 325.637C145.054 325.637 146.813 325.341 148.45 324.749C150.087 324.122 151.689 323.147 153.257 321.823L155.451 327.152C154.023 328.546 152.194 329.643 149.965 330.444C147.771 331.21 145.437 331.593 142.964 331.593ZM156.552 331.071L173.218 294.237H178.704L195.371 331.071H188.579L184.922 322.555H166.949L163.344 331.071H156.552ZM175.883 301.499L169.248 317.225H182.623L175.987 301.499H175.883ZM199.401 331.071V294.237H204.417L224.219 319.942V294.237H230.436V331.071H225.473L205.619 305.261V331.071H199.401ZM238.485 331.071V294.237H252.173C258.338 294.237 263.093 295.822 266.437 298.991C269.815 302.161 271.505 306.706 271.505 312.628C271.505 318.514 269.815 323.06 266.437 326.264C263.093 329.469 258.338 331.071 252.173 331.071H238.485ZM245.172 325.533H251.755C260.254 325.533 264.504 321.231 264.504 312.628C264.504 304.059 260.254 299.775 251.755 299.775H245.172V325.533ZM294.792 331.593C291.239 331.593 288.122 330.81 285.44 329.242C282.793 327.675 280.738 325.48 279.275 322.659C277.812 319.803 277.08 316.459 277.08 312.628C277.08 308.761 277.812 305.418 279.275 302.596C280.738 299.775 282.793 297.598 285.44 296.065C288.087 294.498 291.205 293.714 294.792 293.714C298.38 293.714 301.497 294.498 304.144 296.065C306.792 297.598 308.847 299.775 310.309 302.596C311.772 305.418 312.504 308.744 312.504 312.575C312.504 316.442 311.772 319.803 310.309 322.659C308.847 325.48 306.792 327.675 304.144 329.242C301.497 330.81 298.38 331.593 294.792 331.593ZM294.792 325.846C298.171 325.846 300.801 324.679 302.681 322.346C304.562 320.012 305.503 316.773 305.503 312.628C305.503 308.448 304.562 305.209 302.681 302.91C300.835 300.611 298.206 299.461 294.792 299.461C291.414 299.461 288.784 300.611 286.903 302.91C285.022 305.209 284.082 308.448 284.082 312.628C284.082 316.773 285.022 320.012 286.903 322.346C288.784 324.679 291.414 325.846 294.792 325.846ZM346.082 331.593C343.191 331.593 340.509 331.228 338.036 330.496C335.563 329.73 333.473 328.702 331.767 327.414L333.804 322.137C335.511 323.356 337.375 324.296 339.395 324.958C341.45 325.62 343.679 325.951 346.082 325.951C348.834 325.951 350.837 325.498 352.091 324.592C353.345 323.652 353.972 322.45 353.972 320.987C353.972 319.768 353.519 318.81 352.613 318.114C351.742 317.417 350.227 316.842 348.068 316.389L342.321 315.188C335.772 313.794 332.498 310.433 332.498 305.104C332.498 302.805 333.108 300.802 334.327 299.096C335.546 297.389 337.235 296.065 339.395 295.125C341.554 294.184 344.045 293.714 346.866 293.714C349.374 293.714 351.725 294.097 353.919 294.864C356.114 295.595 357.942 296.64 359.405 297.998L357.368 303.014C354.477 300.576 350.959 299.357 346.814 299.357C344.41 299.357 342.53 299.862 341.171 300.872C339.813 301.882 339.133 303.206 339.133 304.843C339.133 306.097 339.551 307.107 340.387 307.873C341.223 308.605 342.651 309.179 344.672 309.597L350.367 310.799C353.815 311.53 356.375 312.68 358.047 314.247C359.754 315.815 360.607 317.905 360.607 320.517C360.607 322.711 360.015 324.644 358.831 326.316C357.646 327.988 355.957 329.294 353.763 330.235C351.603 331.14 349.043 331.593 346.082 331.593ZM366.347 331.071V294.237H390.851V299.566H372.773V309.702H389.701V315.031H372.773V325.742H390.851V331.071H366.347ZM412.83 331.593C407.779 331.593 403.913 330.287 401.231 327.675C398.584 325.028 397.26 321.126 397.26 315.971V294.237H403.948V315.919C403.948 319.228 404.697 321.719 406.194 323.39C407.727 325.028 409.939 325.846 412.83 325.846C418.716 325.846 421.66 322.537 421.66 315.919V294.237H428.295V315.971C428.295 321.126 426.989 325.028 424.376 327.675C421.764 330.287 417.915 331.593 412.83 331.593ZM450.177 331.071V294.237H455.192L474.994 319.942V294.237H481.211V331.071H476.248L456.394 305.261V331.071H450.177ZM489.26 331.071V294.237H513.764V299.566H495.686V309.702H512.614V315.031H495.686V325.742H513.764V331.071H489.26ZM538.095 331.593C534.02 331.593 530.572 330.827 527.75 329.294C524.964 327.762 522.839 325.585 521.376 322.764C519.913 319.942 519.182 316.598 519.182 312.732C519.182 308.831 519.931 305.47 521.428 302.648C522.926 299.792 525.086 297.598 527.907 296.065C530.728 294.498 534.107 293.714 538.043 293.714C540.62 293.714 543.041 294.097 545.305 294.864C547.569 295.595 549.45 296.623 550.948 297.946L548.701 303.171C547.064 301.882 545.392 300.959 543.686 300.402C541.979 299.845 540.098 299.566 538.043 299.566C534.142 299.566 531.181 300.698 529.161 302.962C527.176 305.226 526.183 308.483 526.183 312.732C526.183 317.016 527.21 320.273 529.265 322.502C531.32 324.732 534.368 325.846 538.409 325.846C539.558 325.846 540.725 325.759 541.909 325.585C543.128 325.376 544.33 325.08 545.514 324.697V316.128H537.05V311.165H551.105V328.876C549.398 329.712 547.378 330.374 545.044 330.862C542.71 331.349 540.394 331.593 538.095 331.593ZM575.364 331.593C571.812 331.593 568.694 330.81 566.012 329.242C563.365 327.675 561.31 325.48 559.847 322.659C558.384 319.803 557.653 316.459 557.653 312.628C557.653 308.761 558.384 305.418 559.847 302.596C561.31 299.775 563.365 297.598 566.012 296.065C568.659 294.498 571.777 293.714 575.364 293.714C578.952 293.714 582.069 294.498 584.717 296.065C587.364 297.598 589.419 299.775 590.882 302.596C592.345 305.418 593.076 308.744 593.076 312.575C593.076 316.442 592.345 319.803 590.882 322.659C589.419 325.48 587.364 327.675 584.717 329.242C582.069 330.81 578.952 331.593 575.364 331.593ZM575.364 325.846C578.743 325.846 581.373 324.679 583.254 322.346C585.135 320.012 586.075 316.773 586.075 312.628C586.075 308.448 585.135 305.209 583.254 302.91C581.408 300.611 578.778 299.461 575.364 299.461C571.986 299.461 569.356 300.611 567.475 302.91C565.594 305.209 564.654 308.448 564.654 312.628C564.654 316.773 565.594 320.012 567.475 322.346C569.356 324.679 571.986 325.846 575.364 325.846ZM573.013 291.102L579.178 282.011H585.971L577.663 291.102H573.013ZM617.013 331.593C613.182 331.593 609.89 330.827 607.139 329.294C604.422 327.727 602.332 325.533 600.869 322.711C599.406 319.855 598.675 316.494 598.675 312.628C598.675 308.761 599.406 305.418 600.869 302.596C602.332 299.775 604.422 297.598 607.139 296.065C609.89 294.498 613.182 293.714 617.013 293.714C619.486 293.714 621.82 294.097 624.015 294.864C626.244 295.63 628.072 296.727 629.5 298.155L627.306 303.484C625.739 302.161 624.136 301.203 622.499 300.611C620.862 299.984 619.103 299.67 617.222 299.67C613.495 299.67 610.657 300.802 608.706 303.066C606.756 305.296 605.78 308.483 605.78 312.628C605.78 316.773 606.756 319.977 608.706 322.241C610.657 324.505 613.495 325.637 617.222 325.637C619.103 325.637 620.862 325.341 622.499 324.749C624.136 324.122 625.739 323.147 627.306 321.823L629.5 327.152C628.072 328.546 626.244 329.643 624.015 330.444C621.82 331.21 619.486 331.593 617.013 331.593ZM635.337 331.071V294.237H642.025V331.071H635.337ZM666.541 331.593C662.989 331.593 659.871 330.81 657.189 329.242C654.542 327.675 652.487 325.48 651.024 322.659C649.561 319.803 648.83 316.459 648.83 312.628C648.83 308.761 649.561 305.418 651.024 302.596C652.487 299.775 654.542 297.598 657.189 296.065C659.836 294.498 662.954 293.714 666.541 293.714C670.129 293.714 673.247 294.498 675.894 296.065C678.541 297.598 680.596 299.775 682.059 302.596C683.522 305.418 684.253 308.744 684.253 312.575C684.253 316.442 683.522 319.803 682.059 322.659C680.596 325.48 678.541 327.675 675.894 329.242C673.247 330.81 670.129 331.593 666.541 331.593ZM666.541 325.846C669.92 325.846 672.55 324.679 674.431 322.346C676.312 320.012 677.252 316.773 677.252 312.628C677.252 308.448 676.312 305.209 674.431 302.91C672.585 300.611 669.955 299.461 666.541 299.461C663.163 299.461 660.533 300.611 658.652 302.91C656.771 305.209 655.831 308.448 655.831 312.628C655.831 316.773 656.771 320.012 658.652 322.346C660.533 324.679 663.163 325.846 666.541 325.846Z" fill="#494953"/>
<path fill-rule="evenodd" clip-rule="evenodd" d="M644.504 6.8329C644.504 5.0207 643.784 3.28273 642.502 2.00131C641.221 0.719893 639.483 0 637.671 0C635.859 0 634.121 0.719893 632.839 2.00131C631.558 3.28273 630.838 5.0207 630.838 6.8329V20.4987C630.838 22.3109 631.558 24.0489 632.839 25.3303C634.121 26.6117 635.859 27.3316 637.671 27.3316C639.483 27.3316 641.221 26.6117 642.502 25.3303C643.784 24.0489 644.504 22.3109 644.504 20.4987V6.8329ZM599.017 20.0136C597.723 18.7997 596.007 18.137 594.232 18.1658C592.458 18.1946 590.764 18.9127 589.51 20.168C588.255 21.4232 587.539 23.1173 587.511 24.8917C587.484 26.6661 588.147 28.3817 589.362 29.6753L599.024 39.337C600.313 40.5817 602.039 41.2704 603.83 41.2548C605.622 41.2393 607.336 40.5207 608.602 39.2538C609.869 37.9869 610.588 36.2731 610.603 34.4816C610.619 32.69 609.93 30.964 608.686 29.6753L599.017 20.0136ZM685.986 29.6753C687.231 28.3866 687.92 26.6606 687.904 24.869C687.889 23.0775 687.17 21.3637 685.903 20.0968C684.636 18.8299 682.922 18.1113 681.131 18.0958C679.339 18.0802 677.613 18.7689 676.325 20.0136L666.663 29.6753C665.418 30.964 664.729 32.69 664.745 34.4816C664.761 36.2731 665.479 37.9869 666.746 39.2538C668.013 40.5207 669.727 41.2393 671.518 41.2548C673.31 41.2704 675.036 40.5817 676.325 39.337L685.986 29.6753ZM637.671 34.1645C628.61 34.1645 619.92 37.764 613.513 44.1711C607.106 50.5782 603.506 59.268 603.506 68.329C603.506 77.39 607.106 86.0799 613.513 92.487C619.92 98.8941 628.61 102.494 637.671 102.494C646.732 102.494 655.422 98.8941 661.829 92.487C668.236 86.0799 671.835 77.39 671.835 68.329C671.835 59.268 668.236 50.5782 661.829 44.1711C655.422 37.764 646.732 34.1645 637.671 34.1645ZM576.175 61.4961C574.363 61.4961 572.625 62.216 571.343 63.4974C570.062 64.7789 569.342 66.5168 569.342 68.329C569.342 70.1412 570.062 71.8792 571.343 73.1606C572.625 74.442 574.363 75.1619 576.175 75.1619H589.841C591.653 75.1619 593.391 74.442 594.672 73.1606C595.954 71.8792 596.673 70.1412 596.673 68.329C596.673 66.5168 595.954 64.7789 594.672 63.4974C593.391 62.216 591.653 61.4961 589.841 61.4961H576.175ZM685.501 61.4961C683.689 61.4961 681.951 62.216 680.67 63.4974C679.388 64.7789 678.668 66.5168 678.668 68.329C678.668 70.1412 679.388 71.8792 680.67 73.1606C681.951 74.442 683.689 75.1619 685.501 75.1619H699.167C700.979 75.1619 702.717 74.442 703.999 73.1606C705.28 71.8792 706 70.1412 706 68.329C706 66.5168 705.28 64.7789 703.999 63.4974C702.717 62.216 700.979 61.4961 699.167 61.4961H685.501ZM608.679 106.983C609.331 106.352 609.852 105.598 610.21 104.765C610.568 103.931 610.757 103.035 610.765 102.127C610.772 101.22 610.6 100.32 610.256 99.4805C609.912 98.6408 609.405 97.8779 608.764 97.2363C608.122 96.5948 607.359 96.0874 606.519 95.7439C605.68 95.4003 604.78 95.2274 603.873 95.2353C602.965 95.2432 602.069 95.4317 601.235 95.7898C600.401 96.1479 599.647 96.6684 599.017 97.321L589.355 106.983C588.703 107.613 588.182 108.367 587.824 109.201C587.466 110.034 587.278 110.931 587.27 111.838C587.262 112.745 587.435 113.645 587.778 114.485C588.122 115.325 588.629 116.088 589.271 116.729C589.912 117.371 590.675 117.878 591.515 118.222C592.355 118.565 593.254 118.738 594.162 118.73C595.069 118.722 595.966 118.534 596.799 118.176C597.633 117.818 598.387 117.297 599.017 116.644L608.679 106.983ZM676.325 97.321C675.036 96.0764 673.31 95.3876 671.518 95.4032C669.727 95.4188 668.013 96.1374 666.746 97.4043C665.479 98.6712 664.761 100.385 664.745 102.176C664.729 103.968 665.418 105.694 666.663 106.983L676.325 116.644C677.613 117.889 679.339 118.578 681.131 118.562C682.922 118.547 684.636 117.828 685.903 116.561C687.17 115.294 687.889 113.581 687.904 111.789C687.92 109.997 687.231 108.271 685.986 106.983L676.325 97.321ZM644.504 116.159C644.504 114.347 643.784 112.609 642.502 111.328C641.221 110.046 639.483 109.326 637.671 109.326C635.859 109.326 634.121 110.046 632.839 111.328C631.558 112.609 630.838 114.347 630.838 116.159V129.825C630.838 131.637 631.558 133.375 632.839 134.657C634.121 135.938 635.859 136.658 637.671 136.658C639.483 136.658 641.221 135.938 642.502 134.657C643.784 133.375 644.504 131.637 644.504 129.825V116.159Z" fill="#02A767"/>
</svg>
