<svg width="147" height="163" viewBox="0 0 147 163" fill="none" xmlns="http://www.w3.org/2000/svg">
<path d="M130.133 94.2328V65.0667C130.133 38.9017 112.362 16.8604 88.2873 10.2317C85.9043 4.22933 80.0808 0 73.2 0C66.3192 0 60.4957 4.22933 58.1127 10.2317C34.038 16.8685 16.2667 38.9017 16.2667 65.0667V94.2328L2.38307 108.116C0.857665 109.641 0.000460651 111.71 0 113.867V130.133C0 132.29 0.856902 134.359 2.3822 135.884C3.90749 137.41 5.97624 138.267 8.13333 138.267H138.267C140.424 138.267 142.493 137.41 144.018 135.884C145.543 134.359 146.4 132.29 146.4 130.133V113.867C146.4 111.71 145.542 109.641 144.017 108.116L130.133 94.2328ZM130.133 122H16.2667V117.234L30.1503 103.35C31.6757 101.825 32.5329 99.7569 32.5333 97.6V65.0667C32.5333 42.6431 50.7764 24.4 73.2 24.4C95.6236 24.4 113.867 42.6431 113.867 65.0667V97.6C113.867 99.7635 114.721 101.829 116.25 103.35L130.133 117.234V122ZM73.2 162.667C78.237 162.673 83.1508 161.11 87.2584 158.195C91.366 155.279 94.4633 151.157 96.1197 146.4H50.2803C51.9367 151.157 55.034 155.279 59.1416 158.195C63.2492 161.11 68.163 162.673 73.2 162.667Z" fill="#017649"/>
</svg>
