<svg width="120" height="120" viewBox="0 0 120 120" fill="none" xmlns="http://www.w3.org/2000/svg">
<path d="M23.6398 80.6835C15.9148 72.9535 12.0498 69.0935 10.6148 64.0785C9.17482 59.0635 10.4048 53.7385 12.8648 43.0935L14.2798 36.9535C16.3448 27.9935 17.3798 23.5135 20.4448 20.4435C23.5098 17.3735 27.9948 16.3435 36.9548 14.2785L43.0948 12.8585C53.7448 10.4035 59.0648 9.17354 64.0798 10.6085C69.0948 12.0485 72.9548 15.9135 80.6798 23.6385L89.8298 32.7885C103.285 46.2385 110 52.9585 110 61.3085C110 69.6635 103.28 76.3835 89.8348 89.8285C76.3848 103.279 69.6648 109.999 61.3098 109.999C52.9598 109.999 46.2348 103.279 32.7898 89.8335L23.6398 80.6835Z" stroke="white" stroke-width="7.5"/>
<path d="M76.9514 76.9501C79.8764 74.0151 80.2714 69.6651 77.8314 67.2201C75.3914 64.7751 71.0364 65.1751 68.1064 68.1051C65.1814 71.0351 60.8264 71.4301 58.3864 68.9901C55.9464 66.5501 56.3414 62.1951 59.2714 59.2701M59.2714 59.2701L57.5014 57.5001M59.2714 59.2701C60.9264 57.6101 63.0364 56.7701 65.0014 56.7851M78.7164 78.7151L76.9464 76.9451C74.9464 78.9501 72.2714 79.7701 70.0014 79.3001" stroke="white" stroke-width="7.5" stroke-linecap="round"/>
<path d="M50.1092 51.4661C54.0144 47.5608 54.0144 41.2292 50.1092 37.324C46.204 33.4187 39.8723 33.4187 35.9671 37.324C32.0618 41.2292 32.0618 47.5608 35.9671 51.4661C39.8723 55.3713 46.204 55.3713 50.1092 51.4661Z" stroke="white" stroke-width="7.5"/>
</svg>
