<svg width="1490" height="537" viewBox="0 0 1490 537" fill="none" xmlns="http://www.w3.org/2000/svg">
<path d="M132.713 507V459.779H162.31V465.734H139.641V480.381H160V486.215H139.641V507H132.713ZM165.531 489.679C165.531 484.25 167.01 479.895 169.967 476.613C172.965 473.291 176.754 471.63 181.332 471.63C185.91 471.63 189.617 473.27 192.454 476.552C195.33 479.834 196.769 484.068 196.769 489.254C196.769 489.335 196.708 490.287 196.586 492.11H172.277C172.277 494.987 173.107 497.458 174.768 499.525C176.43 501.591 178.739 502.624 181.697 502.624C183.682 502.624 185.444 502.138 186.984 501.166C188.524 500.193 189.698 498.937 190.509 497.398L196.1 499.282C195.006 501.834 193.223 503.941 190.752 505.602C188.321 507.263 185.282 508.094 181.636 508.094C176.855 508.094 172.965 506.433 169.967 503.11C167.01 499.748 165.531 495.271 165.531 489.679ZM172.398 487.309H189.962C189.962 484.433 189.192 482.002 187.652 480.016C186.113 478.031 184.006 477.038 181.332 477.038C178.617 477.038 176.47 478.051 174.89 480.077C173.31 482.103 172.479 484.514 172.398 487.309ZM203.393 507V472.723H209.896V477.099C210.503 475.803 211.597 474.567 213.178 473.392C214.758 472.217 216.682 471.63 218.951 471.63C222.841 471.63 225.656 473.838 227.399 478.254C227.642 477.727 227.986 477.16 228.432 476.552C228.918 475.904 229.566 475.195 230.377 474.425C231.227 473.615 232.301 472.946 233.598 472.42C234.935 471.893 236.393 471.63 237.973 471.63C244.902 471.63 248.366 476.066 248.366 484.939V507H241.559V485.243C241.559 482.609 241.194 480.644 240.465 479.348C239.776 478.011 238.459 477.342 236.515 477.342C234.367 477.342 232.605 478.234 231.227 480.016C229.85 481.799 229.161 484.027 229.161 486.701V507H222.537V485.061C222.537 479.915 220.815 477.342 217.371 477.342C215.102 477.342 213.319 478.193 212.023 479.895C210.767 481.556 210.139 483.764 210.139 486.519V507H203.393ZM257.178 466.768V459.11H264.653V466.768H257.178ZM257.664 507V472.723H264.288V507H257.664ZM273.951 507V472.723H280.454V477.525H280.515C281.042 476.147 282.176 474.83 283.918 473.574C285.701 472.278 287.889 471.63 290.482 471.63C293.804 471.63 296.478 472.663 298.504 474.729C300.53 476.795 301.543 480.199 301.543 484.939V507H294.858V485.851C294.858 480.178 292.893 477.342 288.963 477.342C286.653 477.342 284.688 478.294 283.068 480.199C281.487 482.062 280.697 484.331 280.697 487.005V507H273.951ZM310.416 466.768V459.11H317.891V466.768H310.416ZM310.902 507V472.723H317.526V507H310.902ZM327.189 507V472.723H333.692V477.525H333.753C334.28 476.147 335.414 474.83 337.156 473.574C338.939 472.278 341.127 471.63 343.72 471.63C347.042 471.63 349.716 472.663 351.742 474.729C353.768 476.795 354.781 480.199 354.781 484.939V507H348.096V485.851C348.096 480.178 346.131 477.342 342.201 477.342C339.891 477.342 337.926 478.294 336.306 480.199C334.725 482.062 333.935 484.331 333.935 487.005V507H327.189ZM367.969 489.862C367.969 493.954 368.84 497.074 370.582 499.221C372.324 501.368 374.411 502.442 376.842 502.442C379.232 502.442 381.299 501.368 383.041 499.221C384.823 497.074 385.715 493.954 385.715 489.862C385.715 485.729 384.823 482.609 383.041 480.503C381.299 478.396 379.232 477.342 376.842 477.342C374.451 477.342 372.365 478.396 370.582 480.503C368.84 482.609 367.969 485.729 367.969 489.862ZM361.162 489.862C361.162 486.539 361.689 483.541 362.742 480.867C363.836 478.193 365.599 475.985 368.03 474.243C370.461 472.501 373.398 471.63 376.842 471.63C381.906 471.63 385.776 473.392 388.45 476.917C391.164 480.401 392.522 484.716 392.522 489.862C392.522 491.969 392.258 494.035 391.731 496.061C391.205 498.046 390.354 499.97 389.179 501.834C388.045 503.698 386.404 505.217 384.256 506.392C382.149 507.527 379.678 508.094 376.842 508.094C374.006 508.094 371.534 507.547 369.427 506.453C367.321 505.319 365.68 503.84 364.505 502.017C363.37 500.153 362.519 498.208 361.952 496.182C361.426 494.156 361.162 492.05 361.162 489.862Z" fill="#494953"/>
<path d="M585.713 507V459.779H594.343L603.276 482.873C603.803 484.372 604.532 486.479 605.464 489.193C606.437 491.867 607.125 493.772 607.531 494.906H607.774C608.017 494.258 609.475 490.247 612.149 482.873L620.962 459.779H629.713V507H622.785V483.906C622.785 480.786 623.048 475.944 623.575 469.381H623.332L620.232 478.254L610.387 504.022H605.039L595.193 478.254L592.033 469.32H591.729C592.337 475.924 592.641 480.786 592.641 483.906V507H585.713ZM644.36 497.641C644.36 499.018 644.907 500.173 646.001 501.105C647.135 502.037 648.654 502.503 650.559 502.503C653.152 502.503 655.36 501.672 657.183 500.011C659.006 498.309 659.918 496.101 659.918 493.387V489.679C658.054 490.125 655.603 490.591 652.564 491.077C649.809 491.523 647.743 492.272 646.365 493.326C645.028 494.379 644.36 495.818 644.36 497.641ZM637.553 498.188C637.553 491.786 642.395 487.836 652.078 486.337C656.089 485.729 658.702 485.223 659.918 484.817V482.934C659.918 481.11 659.249 479.672 657.912 478.619C656.616 477.525 654.853 476.978 652.625 476.978C648.695 476.978 645.352 478.578 642.597 481.779L638.465 478.254C640.207 476.188 642.293 474.567 644.724 473.392C647.196 472.217 649.789 471.63 652.503 471.63C661.903 471.63 666.603 476.248 666.603 485.486V507H660.1V502.26C659.411 503.84 658.115 505.217 656.211 506.392C654.306 507.527 652.098 508.094 649.586 508.094C645.859 508.094 642.921 507.182 640.774 505.359C638.627 503.495 637.553 501.105 637.553 498.188ZM672.316 499.95L677.178 497.155C679.649 500.801 682.83 502.624 686.719 502.624C688.785 502.624 690.447 502.219 691.703 501.409C692.959 500.558 693.587 499.444 693.587 498.066C693.587 496.284 692.25 494.825 689.575 493.69C688.725 493.285 686.8 492.617 683.802 491.685C682.384 491.239 681.148 490.794 680.095 490.348C679.082 489.862 678.028 489.234 676.935 488.464C675.881 487.654 675.071 486.661 674.504 485.486C673.936 484.311 673.653 482.974 673.653 481.475C673.653 478.517 674.888 476.147 677.36 474.364C679.831 472.541 682.971 471.63 686.78 471.63C689.575 471.63 692.189 472.379 694.62 473.878C697.051 475.377 698.854 477.221 700.029 479.409L695.592 482.143C693.283 478.781 690.345 477.099 686.78 477.099C684.714 477.099 683.133 477.525 682.04 478.375C680.946 479.186 680.399 480.259 680.399 481.596C680.399 482.326 680.601 482.994 681.006 483.602C681.412 484.21 681.817 484.696 682.222 485.061C682.668 485.425 683.397 485.83 684.41 486.276C685.463 486.681 686.233 486.965 686.719 487.127C687.246 487.289 688.137 487.573 689.393 487.978C696.767 490.247 700.454 493.63 700.454 498.127C700.454 500.923 699.259 503.293 696.868 505.238C694.478 507.142 691.135 508.094 686.841 508.094C683.64 508.094 680.763 507.365 678.211 505.906C675.658 504.447 673.693 502.462 672.316 499.95ZM704.708 489.862C704.708 484.352 706.126 479.935 708.962 476.613C711.839 473.291 715.627 471.63 720.327 471.63C723.649 471.63 726.445 472.622 728.714 474.607C730.983 476.552 732.441 478.821 733.09 481.414L727.438 482.994C726.911 481.414 726.02 480.077 724.764 478.983C723.548 477.889 722.09 477.342 720.388 477.342C717.633 477.342 715.465 478.538 713.885 480.928C712.345 483.278 711.576 486.256 711.576 489.862C711.576 493.792 712.406 496.871 714.067 499.099C715.729 501.328 717.835 502.442 720.388 502.442C722.211 502.442 723.832 501.834 725.25 500.619C726.708 499.363 727.721 497.924 728.289 496.304L733.94 497.945C733.171 500.659 731.53 503.029 729.018 505.055C726.546 507.081 723.649 508.094 720.327 508.094C715.668 508.094 711.9 506.453 709.023 503.171C706.147 499.849 704.708 495.412 704.708 489.862ZM739.228 494.724V472.723H745.974V493.69C745.974 499.525 748.04 502.442 752.173 502.442C754.685 502.442 756.609 501.429 757.946 499.403C759.324 497.337 760.013 494.886 760.013 492.05V472.723H766.637V507H760.256V502.503H760.134C759.567 503.84 758.493 505.116 756.913 506.331C755.333 507.506 753.246 508.094 750.653 508.094C747.534 508.094 744.839 507.041 742.57 504.934C740.342 502.827 739.228 499.424 739.228 494.724ZM776.178 507V458.138H782.864V507H776.178ZM792.77 466.768V459.11H800.245V466.768H792.77ZM793.256 507V472.723H799.88V507H793.256ZM809.543 507V472.723H816.046V477.525H816.107C816.634 476.147 817.768 474.83 819.51 473.574C821.293 472.278 823.481 471.63 826.074 471.63C829.396 471.63 832.07 472.663 834.096 474.729C836.122 476.795 837.135 480.199 837.135 484.939V507H830.45V485.851C830.45 480.178 828.485 477.342 824.555 477.342C822.245 477.342 820.28 478.294 818.659 480.199C817.079 482.062 816.289 484.331 816.289 487.005V507H809.543ZM850.323 489.862C850.323 493.954 851.194 497.074 852.936 499.221C854.678 501.368 856.765 502.442 859.196 502.442C861.586 502.442 863.652 501.368 865.395 499.221C867.177 497.074 868.069 493.954 868.069 489.862C868.069 485.729 867.177 482.609 865.395 480.503C863.652 478.396 861.586 477.342 859.196 477.342C856.805 477.342 854.719 478.396 852.936 480.503C851.194 482.609 850.323 485.729 850.323 489.862ZM843.516 489.862C843.516 486.539 844.043 483.541 845.096 480.867C846.19 478.193 847.952 475.985 850.383 474.243C852.814 472.501 855.752 471.63 859.196 471.63C864.26 471.63 868.129 473.392 870.804 476.917C873.518 480.401 874.875 484.716 874.875 489.862C874.875 491.969 874.612 494.035 874.085 496.061C873.559 498.046 872.708 499.97 871.533 501.834C870.398 503.698 868.757 505.217 866.61 506.392C864.503 507.527 862.032 508.094 859.196 508.094C856.36 508.094 853.888 507.547 851.781 506.453C849.674 505.319 848.034 503.84 846.859 502.017C845.724 500.153 844.873 498.208 844.306 496.182C843.779 494.156 843.516 492.05 843.516 489.862Z" fill="#494953"/>
<path d="M2.90625 74.0938L12.4688 70.8125C14.2812 74 16.8438 76.5938 20.1562 78.5938C23.4688 80.5312 27.1875 81.5 31.3125 81.5C35.625 81.5 39.125 80.4375 41.8125 78.3125C44.5625 76.1875 45.9375 73.375 45.9375 69.875C45.9375 68 45.5312 66.3438 44.7188 64.9062C43.9062 63.4062 42.625 62.125 40.875 61.0625C39.1875 59.9375 37.5312 59.0312 35.9062 58.3438C34.3438 57.6562 32.2812 56.875 29.7188 56C22.3438 53.5625 17.2812 51.5 14.5312 49.8125C8.53125 46.125 5.53125 40.9375 5.53125 34.25C5.53125 28.3125 7.84375 23.5312 12.4688 19.9062C17.0938 16.2813 23.1562 14.4688 30.6562 14.4688C36.7188 14.4688 41.9375 15.875 46.3125 18.6875C50.6875 21.5 53.8438 25.0625 55.7812 29.375L46.7812 32.4688C42.9062 26.5938 37.5 23.6562 30.5625 23.6562C26.25 23.6562 22.8438 24.625 20.3438 26.5625C17.8438 28.4375 16.5938 30.9688 16.5938 34.1562C16.5938 36.5938 17.5938 38.75 19.5938 40.625C21.5938 42.5 23.4688 43.7812 25.2188 44.4688C26.9688 45.1562 30.0312 46.2188 34.4062 47.6562C35.3438 47.9688 36.0625 48.2188 36.5625 48.4062C39.5 49.4062 42.0312 50.4062 44.1562 51.4062C46.2812 52.4062 48.4062 53.7188 50.5312 55.3438C52.6562 56.9688 54.2812 58.9688 55.4062 61.3438C56.5312 63.7188 57.0938 66.4062 57.0938 69.4062C57.0938 76.0938 54.6875 81.3125 49.875 85.0625C45.0625 88.8125 38.8125 90.6875 31.125 90.6875C24.4375 90.6875 18.6562 89.1875 13.7812 86.1875C8.90625 83.1875 5.28125 79.1562 2.90625 74.0938ZM63.9375 62.2812C63.9375 53.9062 66.2188 47.1875 70.7812 42.125C75.4062 37 81.25 34.4375 88.3125 34.4375C95.375 34.4375 101.094 36.9688 105.469 42.0312C109.906 47.0938 112.125 53.625 112.125 61.625C112.125 61.75 112.031 63.2188 111.844 66.0312H74.3438C74.3438 70.4688 75.625 74.2812 78.1875 77.4688C80.75 80.6562 84.3125 82.25 88.875 82.25C91.9375 82.25 94.6562 81.5 97.0312 80C99.4062 78.5 101.219 76.5625 102.469 74.1875L111.094 77.0938C109.406 81.0312 106.656 84.2812 102.844 86.8438C99.0938 89.4062 94.4062 90.6875 88.7812 90.6875C81.4062 90.6875 75.4062 88.125 70.7812 83C66.2188 77.8125 63.9375 70.9062 63.9375 62.2812ZM74.5312 58.625H101.625C101.625 54.1875 100.438 50.4375 98.0625 47.375C95.6875 44.3125 92.4375 42.7812 88.3125 42.7812C84.125 42.7812 80.8125 44.3438 78.375 47.4688C75.9375 50.5938 74.6562 54.3125 74.5312 58.625ZM114.75 89L133.688 61.8125L115.688 36.125H128.156L135.75 48.3125C136.188 49.0625 136.844 50.1562 137.719 51.5938C138.594 52.9688 139.219 53.9688 139.594 54.5938H139.875C140.188 54.0312 141.438 51.9375 143.625 48.3125L151.125 36.125H163.594L145.781 61.8125L164.719 89H152.438L143.906 75.3125C142.594 73.25 141.25 71.125 139.875 68.9375H139.594C138.281 71.25 136.969 73.375 135.656 75.3125L127.031 89H114.75ZM177.656 62.5625C177.656 68.875 179 73.6875 181.688 77C184.375 80.3125 187.594 81.9688 191.344 81.9688C195.031 81.9688 198.219 80.3125 200.906 77C203.656 73.6875 205.031 68.875 205.031 62.5625C205.031 56.1875 203.656 51.375 200.906 48.125C198.219 44.875 195.031 43.25 191.344 43.25C187.656 43.25 184.438 44.875 181.688 48.125C179 51.375 177.656 56.1875 177.656 62.5625ZM167.156 62.5625C167.156 57.4375 167.969 52.8125 169.594 48.6875C171.281 44.5625 174 41.1562 177.75 38.4688C181.5 35.7812 186.031 34.4375 191.344 34.4375C199.156 34.4375 205.125 37.1562 209.25 42.5938C213.438 47.9688 215.531 54.625 215.531 62.5625C215.531 65.8125 215.125 69 214.312 72.125C213.5 75.1875 212.188 78.1562 210.375 81.0312C208.625 83.9062 206.094 86.25 202.781 88.0625C199.531 89.8125 195.719 90.6875 191.344 90.6875C186.969 90.6875 183.156 89.8438 179.906 88.1562C176.656 86.4062 174.125 84.125 172.312 81.3125C170.562 78.4375 169.25 75.4375 168.375 72.3125C167.562 69.1875 167.156 65.9375 167.156 62.5625Z" fill="#494953"/>
<path d="M101.495 488.237C101.495 514.587 79.5715 535.969 52.5 535.969C25.4285 535.969 3.5051 514.587 3.5051 488.237C3.5051 461.888 25.4285 440.505 52.5 440.505C79.5715 440.505 101.495 461.888 101.495 488.237Z" fill="#00FF9E" stroke="black" stroke-width="1.0102"/>
<path d="M539.495 488.237C539.495 514.587 517.572 535.969 490.5 535.969C463.428 535.969 441.505 514.587 441.505 488.237C441.505 461.888 463.428 440.505 490.5 440.505C517.572 440.505 539.495 461.888 539.495 488.237Z" fill="#017649" stroke="black" stroke-width="1.0102"/>
<rect x="4" y="153" width="1485" height="233" rx="21" fill="#00FF9E" stroke="black" stroke-width="2"/>
</svg>
