<svg width="1773" height="711" viewBox="0 0 1773 711" fill="none" xmlns="http://www.w3.org/2000/svg">
<line x1="106.006" y1="628.5" x2="1770.01" y2="635.502" stroke="black" stroke-width="3"/>
<path d="M106 630L104.5 -9.05494e-06" stroke="black" stroke-width="3"/>
<path d="M205.053 675.909V705H201.53V679.602H201.36L194.258 684.318V680.739L201.53 675.909H205.053ZM222.908 705.398C220.768 705.398 218.945 704.815 217.439 703.651C215.934 702.476 214.783 700.777 213.988 698.551C213.192 696.316 212.794 693.617 212.794 690.455C212.794 687.311 213.192 684.626 213.988 682.401C214.793 680.166 215.948 678.461 217.454 677.287C218.969 676.103 220.787 675.511 222.908 675.511C225.029 675.511 226.843 676.103 228.348 677.287C229.864 678.461 231.019 680.166 231.814 682.401C232.619 684.626 233.022 687.311 233.022 690.455C233.022 693.617 232.624 696.316 231.829 698.551C231.033 700.777 229.883 702.476 228.377 703.651C226.871 704.815 225.048 705.398 222.908 705.398ZM222.908 702.273C225.029 702.273 226.677 701.25 227.851 699.205C229.026 697.159 229.613 694.242 229.613 690.455C229.613 687.936 229.343 685.791 228.803 684.02C228.273 682.249 227.506 680.9 226.502 679.972C225.508 679.044 224.31 678.58 222.908 678.58C220.806 678.58 219.163 679.616 217.979 681.69C216.795 683.755 216.204 686.676 216.204 690.455C216.204 692.973 216.469 695.114 216.999 696.875C217.529 698.636 218.292 699.976 219.286 700.895C220.29 701.813 221.497 702.273 222.908 702.273ZM241.829 691.875V705H238.476V675.909H241.829V686.591H242.113C242.624 685.464 243.391 684.569 244.414 683.906C245.446 683.234 246.819 682.898 248.533 682.898C250.02 682.898 251.322 683.196 252.439 683.793C253.557 684.38 254.423 685.284 255.039 686.506C255.664 687.718 255.976 689.261 255.976 691.136V705H252.624V691.364C252.624 689.631 252.174 688.291 251.275 687.344C250.384 686.387 249.149 685.909 247.567 685.909C246.469 685.909 245.484 686.141 244.613 686.605C243.751 687.069 243.069 687.746 242.567 688.636C242.075 689.527 241.829 690.606 241.829 691.875Z" fill="black"/>
<path d="M69.8073 583.398C68.1406 583.398 66.6396 583.066 65.3044 582.403C63.9692 581.741 62.8991 580.831 62.0942 579.676C61.2893 578.521 60.8489 577.205 60.7732 575.727H64.1823C64.3148 577.044 64.9114 578.133 65.972 578.994C67.0421 579.847 68.3205 580.273 69.8073 580.273C71.0004 580.273 72.061 579.993 72.9891 579.435C73.9266 578.876 74.6605 578.109 75.1908 577.134C75.7305 576.149 76.0004 575.036 76.0004 573.795C76.0004 572.527 75.7211 571.395 75.1624 570.401C74.6131 569.397 73.8555 568.606 72.8896 568.028C71.9237 567.451 70.8205 567.157 69.58 567.148C68.6898 567.138 67.776 567.276 66.8385 567.56C65.901 567.834 65.1292 568.189 64.5232 568.625L61.2277 568.227L62.9891 553.909H78.1027V557.034H65.9436L64.9209 565.614H65.0913C65.6879 565.14 66.436 564.747 67.3357 564.435C68.2353 564.122 69.1728 563.966 70.1482 563.966C71.9285 563.966 73.5146 564.392 74.9067 565.244C76.3082 566.087 77.4067 567.242 78.2021 568.71C79.0071 570.178 79.4095 571.854 79.4095 573.739C79.4095 575.595 78.9929 577.252 78.1595 578.71C77.3357 580.159 76.1993 581.305 74.7504 582.148C73.3016 582.981 71.6538 583.398 69.8073 583.398Z" fill="black"/>
<path d="M51.6858 433.909V463H48.1631V437.602H47.9926L40.8903 442.318V438.739L48.1631 433.909H51.6858ZM69.5409 463.398C67.4008 463.398 65.5778 462.815 64.0722 461.651C62.5665 460.476 61.4159 458.777 60.6205 456.551C59.825 454.316 59.4273 451.617 59.4273 448.455C59.4273 445.311 59.825 442.626 60.6205 440.401C61.4254 438.166 62.5807 436.461 64.0864 435.287C65.6015 434.103 67.4197 433.511 69.5409 433.511C71.6621 433.511 73.4756 434.103 74.9813 435.287C76.4964 436.461 77.6517 438.166 78.4472 440.401C79.2521 442.626 79.6546 445.311 79.6546 448.455C79.6546 451.617 79.2568 454.316 78.4614 456.551C77.6659 458.777 76.5153 460.476 75.0097 461.651C73.504 462.815 71.6811 463.398 69.5409 463.398ZM69.5409 460.273C71.6621 460.273 73.3099 459.25 74.4841 457.205C75.6583 455.159 76.2455 452.242 76.2455 448.455C76.2455 445.936 75.9756 443.791 75.4358 442.02C74.9055 440.249 74.1385 438.9 73.1347 437.972C72.1403 437.044 70.9424 436.58 69.5409 436.58C67.4386 436.58 65.7957 437.616 64.6119 439.69C63.4282 441.755 62.8364 444.676 62.8364 448.455C62.8364 450.973 63.1015 453.114 63.6318 454.875C64.1621 456.636 64.9244 457.976 65.9188 458.895C66.9225 459.813 68.1299 460.273 69.5409 460.273Z" fill="black"/>
<path d="M52.3499 320.909V350H48.8271V324.602H48.6567L41.5544 329.318V325.739L48.8271 320.909H52.3499ZM69.8073 350.398C68.1406 350.398 66.6396 350.066 65.3044 349.403C63.9692 348.741 62.8991 347.831 62.0942 346.676C61.2893 345.521 60.8489 344.205 60.7732 342.727H64.1823C64.3148 344.044 64.9114 345.133 65.972 345.994C67.0421 346.847 68.3205 347.273 69.8073 347.273C71.0004 347.273 72.061 346.993 72.9891 346.435C73.9266 345.876 74.6605 345.109 75.1908 344.134C75.7305 343.149 76.0004 342.036 76.0004 340.795C76.0004 339.527 75.7211 338.395 75.1624 337.401C74.6131 336.397 73.8555 335.606 72.8896 335.028C71.9237 334.451 70.8205 334.157 69.58 334.148C68.6898 334.138 67.776 334.276 66.8385 334.56C65.901 334.834 65.1292 335.189 64.5232 335.625L61.2277 335.227L62.9891 320.909H78.1027V324.034H65.9436L64.9209 332.614H65.0913C65.6879 332.14 66.436 331.747 67.3357 331.435C68.2353 331.122 69.1728 330.966 70.1482 330.966C71.9285 330.966 73.5146 331.392 74.9067 332.244C76.3082 333.087 77.4067 334.242 78.2021 335.71C79.0071 337.178 79.4095 338.854 79.4095 340.739C79.4095 342.595 78.9929 344.252 78.1595 345.71C77.3357 347.159 76.1993 348.305 74.7504 349.148C73.3016 349.981 71.6538 350.398 69.8073 350.398Z" fill="black"/>
<path d="M35.8335 222V219.443L45.4358 208.932C46.5627 207.701 47.4907 206.631 48.2199 205.722C48.9491 204.803 49.4888 203.941 49.8392 203.136C50.1991 202.322 50.379 201.47 50.379 200.58C50.379 199.557 50.1328 198.671 49.6403 197.923C49.1574 197.175 48.4945 196.598 47.6517 196.19C46.8089 195.783 45.8619 195.58 44.8108 195.58C43.6934 195.58 42.718 195.812 41.8847 196.276C41.0608 196.73 40.4216 197.369 39.9671 198.193C39.522 199.017 39.2994 199.983 39.2994 201.091H35.9472C35.9472 199.386 36.3402 197.89 37.1261 196.602C37.9121 195.314 38.9822 194.311 40.3364 193.591C41.7 192.871 43.2294 192.511 44.9244 192.511C46.629 192.511 48.1394 192.871 49.4557 193.591C50.772 194.311 51.8042 195.281 52.5523 196.503C53.3004 197.724 53.6744 199.083 53.6744 200.58C53.6744 201.65 53.4803 202.696 53.0921 203.719C52.7133 204.732 52.0504 205.864 51.1034 207.114C50.1659 208.354 48.8638 209.869 47.1972 211.659L40.6631 218.648V218.875H54.1858V222H35.8335ZM69.5409 222.398C67.4008 222.398 65.5778 221.815 64.0722 220.651C62.5665 219.476 61.4159 217.777 60.6205 215.551C59.825 213.316 59.4273 210.617 59.4273 207.455C59.4273 204.311 59.825 201.626 60.6205 199.401C61.4254 197.166 62.5807 195.461 64.0864 194.287C65.6015 193.103 67.4197 192.511 69.5409 192.511C71.6621 192.511 73.4756 193.103 74.9813 194.287C76.4964 195.461 77.6517 197.166 78.4472 199.401C79.2521 201.626 79.6546 204.311 79.6546 207.455C79.6546 210.617 79.2568 213.316 78.4614 215.551C77.6659 217.777 76.5153 219.476 75.0097 220.651C73.504 221.815 71.6811 222.398 69.5409 222.398ZM69.5409 219.273C71.6621 219.273 73.3099 218.25 74.4841 216.205C75.6583 214.159 76.2455 211.242 76.2455 207.455C76.2455 204.936 75.9756 202.791 75.4358 201.02C74.9055 199.249 74.1385 197.9 73.1347 196.972C72.1403 196.044 70.9424 195.58 69.5409 195.58C67.4386 195.58 65.7957 196.616 64.6119 198.69C63.4282 200.755 62.8364 203.676 62.8364 207.455C62.8364 209.973 63.1015 212.114 63.6318 213.875C64.1621 215.636 64.9244 216.976 65.9188 217.895C66.9225 218.813 68.1299 219.273 69.5409 219.273Z" fill="black"/>
<path d="M36.4976 94V91.4432L46.0999 80.9318C47.2268 79.7008 48.1548 78.6307 48.884 77.7216C49.6131 76.803 50.1529 75.9413 50.5033 75.1364C50.8631 74.322 51.043 73.4697 51.043 72.5795C51.043 71.5568 50.7968 70.6714 50.3044 69.9233C49.8215 69.1752 49.1586 68.5975 48.3158 68.1903C47.473 67.7831 46.526 67.5795 45.4749 67.5795C44.3574 67.5795 43.3821 67.8116 42.5487 68.2756C41.7249 68.7301 41.0857 69.3693 40.6311 70.1932C40.186 71.017 39.9635 71.983 39.9635 73.0909H36.6112C36.6112 71.3864 37.0042 69.8902 37.7902 68.6023C38.5762 67.3144 39.6463 66.3106 41.0004 65.5909C42.3641 64.8712 43.8934 64.5114 45.5885 64.5114C47.293 64.5114 48.8035 64.8712 50.1198 65.5909C51.436 66.3106 52.4682 67.2812 53.2163 68.5028C53.9644 69.7244 54.3385 71.0833 54.3385 72.5795C54.3385 73.6496 54.1444 74.696 53.7561 75.7188C53.3773 76.732 52.7144 77.8636 51.7675 79.1136C50.83 80.3542 49.5279 81.8693 47.8612 83.6591L41.3271 90.6477V90.875H54.8499V94H36.4976ZM69.8073 94.3977C68.1406 94.3977 66.6396 94.0663 65.3044 93.4034C63.9692 92.7405 62.8991 91.8314 62.0942 90.6761C61.2893 89.5208 60.8489 88.2045 60.7732 86.7273H64.1823C64.3148 88.0436 64.9114 89.1326 65.972 89.9943C67.0421 90.8466 68.3205 91.2727 69.8073 91.2727C71.0004 91.2727 72.061 90.9934 72.9891 90.4347C73.9266 89.8759 74.6605 89.1089 75.1908 88.1335C75.7305 87.1487 76.0004 86.036 76.0004 84.7955C76.0004 83.5265 75.7211 82.3949 75.1624 81.4006C74.6131 80.3968 73.8555 79.6061 72.8896 79.0284C71.9237 78.4508 70.8205 78.1572 69.58 78.1477C68.6898 78.1383 67.776 78.2756 66.8385 78.5597C65.901 78.8343 65.1292 79.1894 64.5232 79.625L61.2277 79.2273L62.9891 64.9091H78.1027V68.0341H65.9436L64.9209 76.6136H65.0913C65.6879 76.1402 66.436 75.7472 67.3357 75.4347C68.2353 75.1222 69.1728 74.9659 70.1482 74.9659C71.9285 74.9659 73.5146 75.392 74.9067 76.2443C76.3082 77.0871 77.4067 78.2424 78.2021 79.7102C79.0071 81.178 79.4095 82.8542 79.4095 84.7386C79.4095 86.5947 78.9929 88.2519 78.1595 89.7102C77.3357 91.1591 76.1993 92.3049 74.7504 93.1477C73.3016 93.9811 71.6538 94.3977 69.8073 94.3977Z" fill="black"/>
<path d="M436.184 672.909V702H432.661V676.602H432.491L425.389 681.318V677.739L432.661 672.909H436.184ZM444.551 702V699.443L454.153 688.932C455.28 687.701 456.208 686.631 456.937 685.722C457.666 684.803 458.206 683.941 458.556 683.136C458.916 682.322 459.096 681.47 459.096 680.58C459.096 679.557 458.85 678.671 458.357 677.923C457.874 677.175 457.212 676.598 456.369 676.19C455.526 675.783 454.579 675.58 453.528 675.58C452.41 675.58 451.435 675.812 450.602 676.276C449.778 676.73 449.139 677.369 448.684 678.193C448.239 679.017 448.016 679.983 448.016 681.091H444.664C444.664 679.386 445.057 677.89 445.843 676.602C446.629 675.314 447.699 674.311 449.053 673.591C450.417 672.871 451.946 672.511 453.641 672.511C455.346 672.511 456.856 672.871 458.173 673.591C459.489 674.311 460.521 675.281 461.269 676.503C462.017 677.724 462.391 679.083 462.391 680.58C462.391 681.65 462.197 682.696 461.809 683.719C461.43 684.732 460.767 685.864 459.82 687.114C458.883 688.354 457.581 689.869 455.914 691.659L449.38 698.648V698.875H462.903V702H444.551ZM472.178 688.875V702H468.826V672.909H472.178V683.591H472.462C472.974 682.464 473.741 681.569 474.764 680.906C475.796 680.234 477.169 679.898 478.883 679.898C480.37 679.898 481.672 680.196 482.789 680.793C483.907 681.38 484.773 682.284 485.389 683.506C486.014 684.718 486.326 686.261 486.326 688.136V702H482.974V688.364C482.974 686.631 482.524 685.291 481.624 684.344C480.734 683.387 479.498 682.909 477.917 682.909C476.819 682.909 475.834 683.141 474.962 683.605C474.101 684.069 473.419 684.746 472.917 685.636C472.425 686.527 472.178 687.606 472.178 688.875Z" fill="black"/>
<path d="M681.296 672.909V702H677.773V676.602H677.602L670.5 681.318V677.739L677.773 672.909H681.296ZM688.98 696.034V693.136L701.764 672.909H703.867V677.398H702.446L692.787 692.682V692.909H710.003V696.034H688.98ZM702.673 702V695.153V693.804V672.909H706.026V702H702.673ZM718.735 688.875V702H715.383V672.909H718.735V683.591H719.019C719.531 682.464 720.298 681.569 721.32 680.906C722.353 680.234 723.726 679.898 725.44 679.898C726.927 679.898 728.229 680.196 729.346 680.793C730.463 681.38 731.33 682.284 731.945 683.506C732.57 684.718 732.883 686.261 732.883 688.136V702H729.531V688.364C729.531 686.631 729.081 685.291 728.181 684.344C727.291 683.387 726.055 682.909 724.474 682.909C723.375 682.909 722.391 683.141 721.519 683.605C720.658 684.069 719.976 684.746 719.474 685.636C718.981 686.527 718.735 687.606 718.735 688.875Z" fill="black"/>
<path d="M922.349 673.909V703H918.826V677.602H918.655L911.553 682.318V678.739L918.826 673.909H922.349ZM940.374 703.398C939.181 703.379 937.988 703.152 936.795 702.716C935.601 702.28 934.512 701.546 933.528 700.514C932.543 699.473 931.752 698.066 931.155 696.295C930.559 694.515 930.261 692.28 930.261 689.591C930.261 687.015 930.502 684.733 930.985 682.744C931.468 680.746 932.169 679.065 933.087 677.702C934.006 676.329 935.114 675.287 936.411 674.577C937.718 673.866 939.19 673.511 940.829 673.511C942.458 673.511 943.906 673.838 945.175 674.491C946.454 675.135 947.495 676.035 948.3 677.19C949.105 678.346 949.626 679.676 949.863 681.182H946.397C946.075 679.875 945.45 678.791 944.522 677.929C943.594 677.067 942.363 676.636 940.829 676.636C938.575 676.636 936.799 677.616 935.502 679.577C934.214 681.537 933.565 684.288 933.556 687.83H933.783C934.314 687.025 934.943 686.338 935.672 685.77C936.411 685.192 937.225 684.747 938.116 684.435C939.006 684.122 939.948 683.966 940.942 683.966C942.609 683.966 944.134 684.383 945.516 685.216C946.899 686.04 948.007 687.181 948.84 688.639C949.673 690.088 950.09 691.75 950.09 693.625C950.09 695.424 949.688 697.072 948.883 698.568C948.078 700.055 946.946 701.239 945.488 702.119C944.039 702.991 942.334 703.417 940.374 703.398ZM940.374 700.273C941.567 700.273 942.637 699.974 943.584 699.378C944.541 698.781 945.294 697.981 945.843 696.977C946.402 695.973 946.681 694.856 946.681 693.625C946.681 692.422 946.411 691.329 945.871 690.344C945.341 689.349 944.607 688.559 943.67 687.972C942.742 687.384 941.681 687.091 940.488 687.091C939.588 687.091 938.75 687.271 937.974 687.631C937.197 687.981 936.515 688.464 935.928 689.08C935.35 689.695 934.896 690.401 934.565 691.196C934.233 691.982 934.067 692.811 934.067 693.682C934.067 694.837 934.337 695.917 934.877 696.92C935.426 697.924 936.174 698.734 937.121 699.349C938.078 699.965 939.162 700.273 940.374 700.273ZM959.085 689.875V703H955.733V673.909H959.085V684.591H959.369C959.881 683.464 960.648 682.569 961.67 681.906C962.703 681.234 964.076 680.898 965.79 680.898C967.276 680.898 968.578 681.196 969.696 681.793C970.813 682.38 971.68 683.284 972.295 684.506C972.92 685.718 973.233 687.261 973.233 689.136V703H969.881V689.364C969.881 687.631 969.431 686.291 968.531 685.344C967.641 684.387 966.405 683.909 964.824 683.909C963.725 683.909 962.74 684.141 961.869 684.605C961.007 685.069 960.326 685.746 959.824 686.636C959.331 687.527 959.085 688.606 959.085 689.875Z" fill="black"/>
<path d="M1169.5 672.909V702H1165.98V676.602H1165.8L1158.7 681.318V677.739L1165.98 672.909H1169.5ZM1187.18 702.398C1185.23 702.398 1183.51 702.052 1182.01 701.361C1180.53 700.66 1179.37 699.699 1178.53 698.477C1177.7 697.246 1177.29 695.845 1177.3 694.273C1177.29 693.042 1177.53 691.905 1178.02 690.864C1178.51 689.812 1179.19 688.937 1180.04 688.236C1180.9 687.526 1181.86 687.076 1182.92 686.886V686.716C1181.53 686.356 1180.42 685.575 1179.6 684.372C1178.77 683.16 1178.37 681.782 1178.38 680.239C1178.37 678.761 1178.74 677.44 1179.5 676.276C1180.26 675.111 1181.3 674.192 1182.62 673.52C1183.96 672.848 1185.48 672.511 1187.18 672.511C1188.87 672.511 1190.37 672.848 1191.7 673.52C1193.03 674.192 1194.07 675.111 1194.82 676.276C1195.59 677.44 1195.98 678.761 1195.99 680.239C1195.98 681.782 1195.56 683.16 1194.73 684.372C1193.9 685.575 1192.81 686.356 1191.44 686.716V686.886C1192.5 687.076 1193.44 687.526 1194.28 688.236C1195.13 688.937 1195.8 689.812 1196.3 690.864C1196.8 691.905 1197.06 693.042 1197.07 694.273C1197.06 695.845 1196.63 697.246 1195.79 698.477C1194.96 699.699 1193.8 700.66 1192.31 701.361C1190.83 702.052 1189.12 702.398 1187.18 702.398ZM1187.18 699.273C1188.5 699.273 1189.64 699.06 1190.59 698.634C1191.55 698.207 1192.29 697.606 1192.81 696.83C1193.33 696.053 1193.59 695.144 1193.6 694.102C1193.59 693.004 1193.31 692.033 1192.75 691.19C1192.19 690.348 1191.43 689.685 1190.46 689.202C1189.51 688.719 1188.41 688.477 1187.18 688.477C1185.94 688.477 1184.83 688.719 1183.86 689.202C1182.89 689.685 1182.13 690.348 1181.57 691.19C1181.02 692.033 1180.75 693.004 1180.76 694.102C1180.75 695.144 1181 696.053 1181.51 696.83C1182.04 697.606 1182.78 698.207 1183.75 698.634C1184.71 699.06 1185.86 699.273 1187.18 699.273ZM1187.18 685.466C1188.22 685.466 1189.15 685.258 1189.95 684.841C1190.77 684.424 1191.41 683.842 1191.87 683.094C1192.33 682.346 1192.57 681.47 1192.58 680.466C1192.57 679.481 1192.34 678.624 1191.88 677.895C1191.43 677.156 1190.8 676.588 1190 676.19C1189.19 675.783 1188.25 675.58 1187.18 675.58C1186.09 675.58 1185.14 675.783 1184.33 676.19C1183.51 676.588 1182.88 677.156 1182.44 677.895C1181.99 678.624 1181.78 679.481 1181.78 680.466C1181.78 681.47 1182 682.346 1182.45 683.094C1182.92 683.842 1183.56 684.424 1184.37 684.841C1185.18 685.258 1186.12 685.466 1187.18 685.466ZM1205.92 688.875V702H1202.57V672.909H1205.92V683.591H1206.21C1206.72 682.464 1207.48 681.569 1208.51 680.906C1209.54 680.234 1210.91 679.898 1212.63 679.898C1214.11 679.898 1215.42 680.196 1216.53 680.793C1217.65 681.38 1218.52 682.284 1219.13 683.506C1219.76 684.718 1220.07 686.261 1220.07 688.136V702H1216.72V688.364C1216.72 686.631 1216.27 685.291 1215.37 684.344C1214.48 683.387 1213.24 682.909 1211.66 682.909C1210.56 682.909 1209.58 683.141 1208.71 683.605C1207.84 684.069 1207.16 684.746 1206.66 685.636C1206.17 686.527 1205.92 687.606 1205.92 688.875Z" fill="black"/>
<path d="M1401.22 703V700.443L1410.83 689.932C1411.95 688.701 1412.88 687.631 1413.61 686.722C1414.34 685.803 1414.88 684.941 1415.23 684.136C1415.59 683.322 1415.77 682.47 1415.77 681.58C1415.77 680.557 1415.52 679.671 1415.03 678.923C1414.55 678.175 1413.89 677.598 1413.04 677.19C1412.2 676.783 1411.25 676.58 1410.2 676.58C1409.08 676.58 1408.11 676.812 1407.28 677.276C1406.45 677.73 1405.81 678.369 1405.36 679.193C1404.91 680.017 1404.69 680.983 1404.69 682.091H1401.34C1401.34 680.386 1401.73 678.89 1402.52 677.602C1403.3 676.314 1404.37 675.311 1405.73 674.591C1407.09 673.871 1408.62 673.511 1410.31 673.511C1412.02 673.511 1413.53 673.871 1414.85 674.591C1416.16 675.311 1417.19 676.281 1417.94 677.503C1418.69 678.724 1419.06 680.083 1419.06 681.58C1419.06 682.65 1418.87 683.696 1418.48 684.719C1418.1 685.732 1417.44 686.864 1416.49 688.114C1415.56 689.354 1414.25 690.869 1412.59 692.659L1406.05 699.648V699.875H1419.58V703H1401.22ZM1434.93 703.398C1432.79 703.398 1430.97 702.815 1429.46 701.651C1427.96 700.476 1426.81 698.777 1426.01 696.551C1425.22 694.316 1424.82 691.617 1424.82 688.455C1424.82 685.311 1425.22 682.626 1426.01 680.401C1426.82 678.166 1427.97 676.461 1429.48 675.287C1430.99 674.103 1432.81 673.511 1434.93 673.511C1437.05 673.511 1438.87 674.103 1440.37 675.287C1441.89 676.461 1443.04 678.166 1443.84 680.401C1444.64 682.626 1445.05 685.311 1445.05 688.455C1445.05 691.617 1444.65 694.316 1443.85 696.551C1443.06 698.777 1441.91 700.476 1440.4 701.651C1438.89 702.815 1437.07 703.398 1434.93 703.398ZM1434.93 700.273C1437.05 700.273 1438.7 699.25 1439.87 697.205C1441.05 695.159 1441.64 692.242 1441.64 688.455C1441.64 685.936 1441.37 683.791 1440.83 682.02C1440.3 680.249 1439.53 678.9 1438.53 677.972C1437.53 677.044 1436.33 676.58 1434.93 676.58C1432.83 676.58 1431.19 677.616 1430 679.69C1428.82 681.755 1428.23 684.676 1428.23 688.455C1428.23 690.973 1428.49 693.114 1429.02 694.875C1429.55 696.636 1430.31 697.976 1431.31 698.895C1432.31 699.813 1433.52 700.273 1434.93 700.273ZM1453.85 689.875V703H1450.5V673.909H1453.85V684.591H1454.14C1454.65 683.464 1455.41 682.569 1456.44 681.906C1457.47 681.234 1458.84 680.898 1460.56 680.898C1462.04 680.898 1463.35 681.196 1464.46 681.793C1465.58 682.38 1466.45 683.284 1467.06 684.506C1467.69 685.718 1468 687.261 1468 689.136V703H1464.65V689.364C1464.65 687.631 1464.2 686.291 1463.3 685.344C1462.41 684.387 1461.17 683.909 1459.59 683.909C1458.49 683.909 1457.51 684.141 1456.64 684.605C1455.77 685.069 1455.09 685.746 1454.59 686.636C1454.1 687.527 1453.85 688.606 1453.85 689.875Z" fill="black"/>
<path d="M1611.59 703V700.443L1621.19 689.932C1622.31 688.701 1623.24 687.631 1623.97 686.722C1624.7 685.803 1625.24 684.941 1625.59 684.136C1625.95 683.322 1626.13 682.47 1626.13 681.58C1626.13 680.557 1625.88 679.671 1625.39 678.923C1624.91 678.175 1624.25 677.598 1623.4 677.19C1622.56 676.783 1621.61 676.58 1620.56 676.58C1619.45 676.58 1618.47 676.812 1617.64 677.276C1616.81 677.73 1616.17 678.369 1615.72 679.193C1615.27 680.017 1615.05 680.983 1615.05 682.091H1611.7C1611.7 680.386 1612.09 678.89 1612.88 677.602C1613.66 676.314 1614.73 675.311 1616.09 674.591C1617.45 673.871 1618.98 673.511 1620.68 673.511C1622.38 673.511 1623.89 673.871 1625.21 674.591C1626.52 675.311 1627.56 676.281 1628.3 677.503C1629.05 678.724 1629.43 680.083 1629.43 681.58C1629.43 682.65 1629.23 683.696 1628.84 684.719C1628.47 685.732 1627.8 686.864 1626.86 688.114C1625.92 689.354 1624.62 690.869 1622.95 692.659L1616.42 699.648V699.875H1629.94V703H1611.59ZM1635.8 703V700.443L1645.41 689.932C1646.53 688.701 1647.46 687.631 1648.19 686.722C1648.92 685.803 1649.46 684.941 1649.81 684.136C1650.17 683.322 1650.35 682.47 1650.35 681.58C1650.35 680.557 1650.1 679.671 1649.61 678.923C1649.13 678.175 1648.47 677.598 1647.62 677.19C1646.78 676.783 1645.83 676.58 1644.78 676.58C1643.66 676.58 1642.69 676.812 1641.86 677.276C1641.03 677.73 1640.39 678.369 1639.94 679.193C1639.49 680.017 1639.27 680.983 1639.27 682.091H1635.92C1635.92 680.386 1636.31 678.89 1637.1 677.602C1637.88 676.314 1638.95 675.311 1640.31 674.591C1641.67 673.871 1643.2 673.511 1644.9 673.511C1646.6 673.511 1648.11 673.871 1649.43 674.591C1650.74 675.311 1651.77 676.281 1652.52 677.503C1653.27 678.724 1653.65 680.083 1653.65 681.58C1653.65 682.65 1653.45 683.696 1653.06 684.719C1652.68 685.732 1652.02 686.864 1651.07 688.114C1650.14 689.354 1648.83 690.869 1647.17 692.659L1640.63 699.648V699.875H1654.16V703H1635.8ZM1663.43 689.875V703H1660.08V673.909H1663.43V684.591H1663.72C1664.23 683.464 1664.99 682.569 1666.02 681.906C1667.05 681.234 1668.42 680.898 1670.14 680.898C1671.62 680.898 1672.93 681.196 1674.04 681.793C1675.16 682.38 1676.03 683.284 1676.64 684.506C1677.27 685.718 1677.58 687.261 1677.58 689.136V703H1674.23V689.364C1674.23 687.631 1673.78 686.291 1672.88 685.344C1671.99 684.387 1670.75 683.909 1669.17 683.909C1668.07 683.909 1667.09 684.141 1666.22 684.605C1665.35 685.069 1664.67 685.746 1664.17 686.636C1663.68 687.527 1663.43 688.606 1663.43 689.875Z" fill="black"/>
<rect x="152" y="387" width="142.595" height="241.548" fill="#017649"/>
<rect x="388" y="529" width="142.595" height="99.8524" fill="#017649"/>
<rect x="625" y="306" width="142.595" height="323.332" fill="#017649"/>
<rect x="866" y="417" width="143" height="213" fill="#017649"/>
<rect x="1112" y="96" width="143" height="536" fill="#017649"/>
<rect x="1359" y="196" width="143" height="437" fill="#017649"/>
<line x1="102.998" y1="531.5" x2="1770" y2="531.5" stroke="#999999"/>
<line x1="106" y1="168.5" x2="1773" y2="168.5" stroke="#999999"/>
<line x1="106" y1="42.5" x2="1773" y2="42.5" stroke="#999999"/>
<line x1="106" y1="416.5" x2="1773" y2="416.5" stroke="#999999"/>
<line x1="106" y1="296.5" x2="1773" y2="296.5" stroke="#999999"/>
</svg>
